<svg xmlns="http://www.w3.org/2000/svg" viewBox="0 0 70.2 73.13"><defs><style>.cls-1{fill:#dfa5c6;}.cls-2{fill:#d892ba;}.cls-3{fill:#f3dfec;}.cls-4{fill:#e6bbd5;}.cls-5{fill:#8f4d76;}.cls-6{fill:#e9c2da;}.cls-7{fill:#a35484;}</style></defs><g id="Capa_2" data-name="Capa 2"><g id="Capa_3" data-name="Capa 3"><path class="cls-1" d="M70.05,49.6a6.86,6.86,0,0,0-4.41-5.22c.14-.19.28-.39.41-.59a.3.3,0,0,0-.23-.46L66,43c.13-.24.26-.48.38-.72a.3.3,0,0,0,.52,0,17.33,17.33,0,0,0,1.17-12.59,16.5,16.5,0,0,0-1.39-3.37.27.27,0,0,0-.34-.14L66.27,26c-.09-.15-.19-.29-.29-.43a9.13,9.13,0,0,0,3-5.9,9.91,9.91,0,0,0-.95-5.2,17.65,17.65,0,0,0-3.29-4.39A14.51,14.51,0,0,0,60,6.69a.33.33,0,0,0-.44.11v0l-.93-.51L58,6l-.61-.29-1.05-.49-.91-.4-1-.41-.95-.39a.29.29,0,0,0-.05-.49A36.18,36.18,0,0,0,40.64.15a52.81,52.81,0,0,0-14,.86C24,1.5,21.38,2.14,18.78,2.88a.3.3,0,0,0-.22.27c-.7.23-1.39.49-2.08.76a.27.27,0,0,0-.38-.25A30.71,30.71,0,0,0,5.43,10.58,21.6,21.6,0,0,0,1.6,15.86,14.86,14.86,0,0,0,.34,19.23,11.29,11.29,0,0,0,0,21.53c0,.14,0,.28,0,.42s0,.56,0,.84a8.14,8.14,0,0,0,.34,1.63q.13.39.3.78l0,.05a7.73,7.73,0,0,0,2.47,3.3.26.26,0,0,0,.42-.13l.6.36.11.06.08,0c-.24.27-.47.56-.69.86a.3.3,0,0,0-.46.08A19.53,19.53,0,0,0,.51,38a13.71,13.71,0,0,0,.07,2.64c0,.2.05.39.08.59A10.17,10.17,0,0,0,1.48,44a9.86,9.86,0,0,0,.72,1.41,10.29,10.29,0,0,0,1.67,2.1.93.93,0,0,0-.14.14l-.12.11-.2.2A.29.29,0,0,0,3,48a8.32,8.32,0,0,0-1.84,3.81,8.24,8.24,0,0,0,.13,4.79c.05.16.1.32.16.47s.12.32.19.48h0a15.07,15.07,0,0,0,2.34,4.1,23.58,23.58,0,0,0,3.11,3.21.33.33,0,0,0,.46,0l.76.6c.39.3.8.59,1.21.87q.9.6,1.83,1.14a.27.27,0,0,0,.13.39,54.62,54.62,0,0,0,13.94,4.5,51.05,51.05,0,0,0,14.6.55,46.47,46.47,0,0,0,8.09-1.58.29.29,0,0,0,.21-.37c.63-.18,1.25-.37,1.88-.57a.28.28,0,0,0,.18,0,34.71,34.71,0,0,0,3.6-1.38h0C55,68.5,56,68,57,67.5a30.6,30.6,0,0,0,5.68-3.73c.37-.28.74-.57,1.1-.87a22.12,22.12,0,0,0,4.72-6A10.58,10.58,0,0,0,70.05,49.6Z"/><path class="cls-1" d="M9.48,66.26c-.41-.28-.82-.57-1.21-.87C8.66,65.69,9.07,66,9.48,66.26Z"/><path class="cls-1" d="M3.87,47.53a.93.93,0,0,0-.14.14c0-.05.1-.09.15-.14Z"/><path class="cls-1" d="M1.41,57c.06.16.12.32.19.48h0C1.53,57.35,1.47,57.19,1.41,57Z"/><path class="cls-1" d="M3.61,47.78l-.2.2h0C3.48,47.92,3.54,47.85,3.61,47.78Z"/><path class="cls-1" d="M51,52.79a.29.29,0,0,1-.22.32,62,62,0,0,1-8.87,1.62,77.26,77.26,0,0,1-16.09,0c-2.66-.26-5.32-.62-8-1.11A32,32,0,0,1,11,51.67l-.37-.13a21.55,21.55,0,0,1-3.07-1.36,18.51,18.51,0,0,1-2-1.25,8,8,0,0,0-1.21,3.73A10.6,10.6,0,0,0,5.74,58.1a16.13,16.13,0,0,0,3.75,4.55,19.06,19.06,0,0,0,5,2.94,42.9,42.9,0,0,0,12.34,2.87c2.12.22,4.25.35,6.38.44A43.8,43.8,0,0,0,52,65.68a54.82,54.82,0,0,0,5.85-2.77,25.5,25.5,0,0,0,4.89-3.41A22,22,0,0,0,66.6,55a9.11,9.11,0,0,0,1.61-5.6A8.35,8.35,0,0,0,67,45.81a5.56,5.56,0,0,0-1.77-.89h0q-.57.73-1.2,1.41a20.46,20.46,0,0,1-9.72,5.83A.3.3,0,0,1,54,52l-1.17.32C52.2,52.5,51.58,52.65,51,52.79Z"/><path class="cls-1" d="M48.28,70.89h0c.63-.18,1.25-.37,1.88-.57h0C49.53,70.52,48.91,70.71,48.28,70.89Z"/><path class="cls-1" d="M7.51,64.79l.76.6-.76-.6Z"/><path class="cls-1" d="M53.94,68.94h0a33.84,33.84,0,0,0,8.75-5.17h0A33.84,33.84,0,0,1,53.94,68.94Z"/><path class="cls-2" d="M1,54.7a9.93,9.93,0,0,1,.16-2.93,8.24,8.24,0,0,0,.13,4.79c.05.16.1.32.16.47s.12.32.19.48A11.14,11.14,0,0,1,1,54.7Z"/><path class="cls-2" d="M60.62,65.21c-1.06.71-2.14,1.38-3.25,2s-2.26,1.21-3.43,1.73a33.84,33.84,0,0,0,8.75-5.17C62,64.27,61.32,64.75,60.62,65.21Z"/><path class="cls-2" d="M11.76,67.24a54.18,54.18,0,0,0,7.59,3,53,53,0,0,0,14.24,2.29A48,48,0,0,0,47.9,70.65a.3.3,0,0,1,.38.24c.63-.18,1.25-.37,1.88-.57a.33.33,0,0,1,0-.62,37.78,37.78,0,0,0,7.5-3.4c1.06-.61,2.09-1.27,3.11-2a27.2,27.2,0,0,0,2.92-2.2,21.78,21.78,0,0,0,4.42-5.88,9.43,9.43,0,0,0,1.18-7A6.43,6.43,0,0,0,67,45.81a8.35,8.35,0,0,1,1.19,3.57A9.11,9.11,0,0,1,66.6,55a22,22,0,0,1-3.82,4.52,25.5,25.5,0,0,1-4.89,3.41A54.82,54.82,0,0,1,52,65.68,43.8,43.8,0,0,1,33.21,68.9c-2.13-.09-4.26-.22-6.38-.44a42.9,42.9,0,0,1-12.34-2.87,19.06,19.06,0,0,1-5-2.94A16.13,16.13,0,0,1,5.74,58.1a10.6,10.6,0,0,1-1.38-5.44,8,8,0,0,1,1.21-3.73c-.26-.2-.53-.41-.78-.63a9.73,9.73,0,0,1-.91-.77s-.11.09-.15.14l-.12.11c-.07.07-.13.14-.2.2a.32.32,0,0,1,0,.44,7.55,7.55,0,0,0-1.66,3.39,10.4,10.4,0,0,0,1,6.83A19.47,19.47,0,0,0,7.5,64.37a.28.28,0,0,1,0,.42l.76.6c.39.3.8.59,1.21.87q.9.6,1.83,1.14A.33.33,0,0,1,11.76,67.24Z"/><path class="cls-3" d="M66.36,41.94a15.56,15.56,0,0,0,1.24-3.29A16.72,16.72,0,0,0,67.76,31l-.16.58q-1.36,4.66-2.95,9.26c-.76,2.16-1.58,4.32-2.52,6.41a19.48,19.48,0,0,0,3.37-3.82.31.31,0,0,1,.32-.14L66,43c.13-.24.26-.48.38-.72A.3.3,0,0,1,66.36,41.94Z"/><path class="cls-3" d="M.66,41.26A10.17,10.17,0,0,0,1.48,44a12.22,12.22,0,0,1-.81-2.77Z"/><path class="cls-3" d="M35,43.33a83.16,83.16,0,0,1-5.38,8.73c-.53.75-1.07,1.49-1.63,2.23,2.26.16,4.54.24,6.81.22l1.84,0c.65-.78,1.27-1.57,1.87-2.38A75.25,75.25,0,0,0,44.21,43a108,108,0,0,0,4.7-10c.2-.49.4-1,.59-1.46q-1.44.22-2.88.39a.26.26,0,0,1-.3-.21l-2,.26a.24.24,0,0,1-.22.17c-1.37.21-2.75.4-4.13.55-.16.41-.32.81-.49,1.21A101.49,101.49,0,0,1,35,43.33Z"/><path class="cls-3" d="M17.21,44.56a64.42,64.42,0,0,1-4.84,7A34.23,34.23,0,0,0,17.83,53c.28-.35.56-.71.83-1.07a87.66,87.66,0,0,0,6.1-9.27c1.74-3,3.32-6.15,4.76-9.33q-3,0-6.07-.2c-.25.52-.51,1-.77,1.56C21,38,19.18,41.34,17.21,44.56Z"/><path class="cls-3" d="M44.64,45.08a69.56,69.56,0,0,1-5.9,9l-.22.28a64.16,64.16,0,0,0,9.16-1.21Q49,51.28,50.2,49.29A88.48,88.48,0,0,0,58,31.89c.25-.74.49-1.48.73-2.23q-3.79,1-7.66,1.66c-.48,1.22-1,2.44-1.49,3.64A102.82,102.82,0,0,1,44.64,45.08Z"/><path class="cls-3" d="M25.17,44.67a90.17,90.17,0,0,1-5.81,8.57c2.33.39,4.68.7,7,.91,1-1.27,2-2.59,2.86-3.93a84.31,84.31,0,0,0,5.19-8.73c1.45-2.8,2.76-5.68,3.94-8.6-.89.08-1.77.16-2.66.21-1.57.11-3.13.17-4.7.19l-.62,1.38A105.65,105.65,0,0,1,25.17,44.67Z"/><path class="cls-3" d="M3.79,30.15a21.46,21.46,0,0,0-1.92,4.26,16,16,0,0,0-.73,3.94A93.7,93.7,0,0,0,6.59,30h0a.27.27,0,0,1-.17-.25,17.74,17.74,0,0,1-2-.89c-.24.27-.47.56-.69.86A.31.31,0,0,1,3.79,30.15Z"/><path class="cls-3" d="M13.62,31.94l-.17,0a33.68,33.68,0,0,1-5.56-1.36c-.8,1.37-1.64,2.73-2.5,4.07-1.32,2-2.72,4-4.18,5.92a11.52,11.52,0,0,0,.3,1.62,10.83,10.83,0,0,0,2,4L3.65,46A80.38,80.38,0,0,0,13.62,31.94Z"/><path class="cls-3" d="M62.15,28a.32.32,0,0,1,.13.62c-.66.21-1.31.4-2,.59a110,110,0,0,1-5.09,13.48,71.94,71.94,0,0,1-5.57,10l.92-.23a.31.31,0,0,1,.39.3c.62-.14,1.24-.29,1.85-.45L54,52a.31.31,0,0,1,.17-.48,19.47,19.47,0,0,0,3-1,21.47,21.47,0,0,0,2.63-1.42c.22-.44.44-.88.65-1.32a78.13,78.13,0,0,0,3.29-8.37c1-3.08,2-6.18,2.9-9.31.14-.51.28-1,.42-1.56a15.52,15.52,0,0,0-.88-1.9.32.32,0,0,1,.21-.46L66.27,26c-.09-.15-.19-.29-.29-.43a8.86,8.86,0,0,1-1.66,1.17A16.48,16.48,0,0,1,62.15,28Z"/><path class="cls-3" d="M10.6,51.54l0,0-.3-.13c-.38-.18-.05-.73.32-.55L11,51l0,0a65.87,65.87,0,0,0,5.68-8.34C18.61,39.5,20.35,36.27,22,33l-1.13-.09q-2.88-.27-5.75-.72c-1.74,3-3.61,6-5.64,8.83a63.17,63.17,0,0,1-5,6.17,9.41,9.41,0,0,0,.92.75c.34.23,0,.79-.32.55l-.24-.18c.25.22.52.43.78.63a18.51,18.51,0,0,0,2,1.25A21.55,21.55,0,0,0,10.6,51.54Z"/><path class="cls-4" d="M7.89,30.55c-.44-.16-.88-.33-1.3-.52a93.7,93.7,0,0,1-5.45,8.32,12.34,12.34,0,0,0,.07,2.19c1.46-1.92,2.86-3.89,4.18-5.92C6.25,33.28,7.09,31.92,7.89,30.55Z"/><path class="cls-4" d="M.58,40.67c0,.2.05.39.08.59h0A5.81,5.81,0,0,1,.58,40.67Z"/><path class="cls-4" d="M9.45,41c2-2.84,3.9-5.8,5.64-8.83l-1.47-.24A80.38,80.38,0,0,1,3.65,46l-.15.16a9.83,9.83,0,0,0,.93,1A63.17,63.17,0,0,0,9.45,41Z"/><path class="cls-4" d="M10.6,51.54l.37.13-.35-.15Z"/><path class="cls-4" d="M17.21,44.56c2-3.22,3.78-6.53,5.47-9.9.26-.52.52-1,.77-1.56L22,33c-1.62,3.28-3.36,6.51-5.22,9.65A65.87,65.87,0,0,1,11.07,51l0,0c.44.19.88.37,1.33.53A64.42,64.42,0,0,0,17.21,44.56Z"/><path class="cls-4" d="M24.76,42.63a87.66,87.66,0,0,1-6.1,9.27c-.27.36-.55.72-.83,1.07l1.24.22.29.05a90.17,90.17,0,0,0,5.81-8.57,105.65,105.65,0,0,0,5.24-10L31,33.29H29.52C28.08,36.48,26.5,39.61,24.76,42.63Z"/><path class="cls-4" d="M34.45,41.49a84.31,84.31,0,0,1-5.19,8.73c-.91,1.34-1.86,2.66-2.86,3.93l1.63.14c.56-.74,1.1-1.48,1.63-2.23A83.16,83.16,0,0,0,35,43.33a101.49,101.49,0,0,0,4.4-9.39c.17-.4.33-.8.49-1.21l-1.54.16C37.21,35.81,35.9,38.69,34.45,41.49Z"/><path class="cls-4" d="M44.21,43a75.25,75.25,0,0,1-5.66,9.08c-.6.81-1.22,1.6-1.87,2.38l1.84-.09.22-.28a69.56,69.56,0,0,0,5.9-9A102.82,102.82,0,0,0,49.58,35c.52-1.2,1-2.42,1.49-3.64l-1.57.25c-.19.49-.39,1-.59,1.46A108,108,0,0,1,44.21,43Z"/><path class="cls-4" d="M58.73,29.66c-.24.75-.48,1.49-.73,2.23a88.48,88.48,0,0,1-7.8,17.4q-1.19,2-2.52,3.88c.66-.14,1.31-.29,2-.45a71.94,71.94,0,0,0,5.57-10,110,110,0,0,0,5.09-13.48l-1.47.41Z"/><path class="cls-4" d="M64.65,40.88q1.59-4.59,2.95-9.26l.16-.58A16.93,16.93,0,0,0,67,28.52c-.14.52-.28,1.05-.42,1.56-.87,3.13-1.86,6.23-2.9,9.31a78.13,78.13,0,0,1-3.29,8.37c-.21.44-.43.88-.65,1.32a20.73,20.73,0,0,0,2.37-1.79C63.07,45.2,63.89,43,64.65,40.88Z"/><path class="cls-1" d="M.68,25.2l0,.05h0Z"/><path class="cls-1" d="M58,6l.6.3Z"/><path class="cls-1" d="M45.55,4.43A43.69,43.69,0,0,0,37,3.22a78.65,78.65,0,0,0-8.55,0A30.08,30.08,0,0,0,21.1,4.38l-.25.08h-.06a30.59,30.59,0,0,0-7,3.05,25.08,25.08,0,0,0-5.91,4.75,13.75,13.75,0,0,0-3.16,6,7.73,7.73,0,0,0-.12,3.35A6.36,6.36,0,0,0,6,24.28a13.32,13.32,0,0,0,5.25,3.51,42.26,42.26,0,0,0,6.66,2.12,62.65,62.65,0,0,0,17.69,1.52A90,90,0,0,0,51.18,29c3.36-.81,6.88-1.82,9.74-3.85a9.21,9.21,0,0,0,3.16-3.62,7.12,7.12,0,0,0,.26-5.27c-.82-2.16-2.67-3.74-4.41-5.16A29.47,29.47,0,0,0,53.21,7,50.39,50.39,0,0,0,45.55,4.43ZM35.09,22.9Zm-7.48,4.19a1.72,1.72,0,0,1-.89,1.26A4.28,4.28,0,0,1,22.19,28a1.41,1.41,0,0,1-.44-1.14,1.7,1.7,0,0,1,1.13-1.2,5.51,5.51,0,0,1,3.61,0A1.43,1.43,0,0,1,27.61,27.09Zm-.74-2.8a2.8,2.8,0,0,1-2.72,0c-1.78-1-2-3.24-2.38-5a.7.7,0,0,1,.48-.85.69.69,0,0,1,.85.48A13.34,13.34,0,0,0,23.85,22a2,2,0,0,0,1.74,1.33,2.19,2.19,0,0,0,1.69-1.52,12.33,12.33,0,0,0,.48-3.2.71.71,0,0,1,.69-.69.69.69,0,0,1,.69.69A15.53,15.53,0,0,1,28.65,22,4,4,0,0,1,26.87,24.29Zm9.92-1a2.21,2.21,0,0,1-1.59,1,1.78,1.78,0,0,1-1.54-.61A3.52,3.52,0,0,1,33,22.22a.69.69,0,0,1,1.33-.37,2.17,2.17,0,0,0,.27.75.61.61,0,0,0,.56.31l0,0c.26.06.67-.38.68-.61l0,.06c.2-.53,0-1.39.84-1.43a.7.7,0,0,1,.69.69A3.14,3.14,0,0,1,36.79,23.29Zm5-4a.7.7,0,0,1,.48-.85.69.69,0,0,1,.85.48A13.34,13.34,0,0,0,43.87,22a2,2,0,0,0,1.74,1.33,2.18,2.18,0,0,0,1.69-1.52,12.33,12.33,0,0,0,.48-3.2.71.71,0,0,1,.69-.69.69.69,0,0,1,.69.69A15.53,15.53,0,0,1,48.67,22a3.9,3.9,0,0,1-1.78,2.26,2.8,2.8,0,0,1-2.72,0C42.39,23.31,42.15,21.06,41.79,19.27Zm8.45,7.44A1.72,1.72,0,0,1,49.36,28a4.32,4.32,0,0,1-4.54-.36,1.4,1.4,0,0,1-.43-1.14,1.64,1.64,0,0,1,1.13-1.2,5.48,5.48,0,0,1,3.6,0A1.45,1.45,0,0,1,50.24,26.71Z"/><path class="cls-1" d="M56.37,5.25l-.91-.4-1-.41,1,.41Z"/><path class="cls-1" d="M56.37,5.25l1.05.49Z"/><path class="cls-1" d="M.68,25.2q-.17-.39-.3-.78Q.51,24.81.68,25.2Z"/><path class="cls-1" d="M54.51,4.44l-.95-.39h0Z"/><path class="cls-1" d="M18.56,3.15h0c-.7.23-1.39.49-2.08.76h0C17.17,3.64,17.86,3.38,18.56,3.15Z"/><path class="cls-1" d="M6.38,29.77A15.52,15.52,0,0,1,3.6,28.42h0c.26.16.52.32.79.46a17.74,17.74,0,0,0,2,.89Z"/><path class="cls-1" d="M64.32,26.78h0A16.48,16.48,0,0,1,62.15,28h0A16.48,16.48,0,0,0,64.32,26.78Z"/><path class="cls-1" d="M46.32,31.75h0l-2,.26h0Z"/><path class="cls-2" d="M53.19,4.11a32.25,32.25,0,0,0-3.34-1.39c-.73-.24-1.45-.45-2.19-.65-1.46-.4-2.95-.72-4.44-1A45.54,45.54,0,0,0,32.85.81,74,74,0,0,0,19,3.49a.3.3,0,0,1-.39-.34c-.7.23-1.39.49-2.08.76a.34.34,0,0,1-.21.37A33.18,33.18,0,0,0,10.14,7.5a23.26,23.26,0,0,0-8.2,9.1A11.54,11.54,0,0,0,.75,23,7.63,7.63,0,0,0,3.5,28a.34.34,0,0,1,.1.42,15.52,15.52,0,0,0,2.78,1.35.36.36,0,0,1,.49-.31,31.16,31.16,0,0,0,7.71,2,93.41,93.41,0,0,0,14.65,1.21,93.55,93.55,0,0,0,14.67-1.1.35.35,0,0,1,.38.44l2-.26a.35.35,0,0,1,.3-.42c1.16-.14,2.31-.3,3.46-.48a88.63,88.63,0,0,0,12-2.82h0a16.48,16.48,0,0,0,2.17-1.24,7.55,7.55,0,0,1-.81.39c-.38.16-.55-.46-.17-.61a8.19,8.19,0,0,0,3.74-3.22A9,9,0,0,0,67,14a20.75,20.75,0,0,0-3.28-4,13.56,13.56,0,0,0-4-2.77.31.31,0,0,1-.13-.4l-.93-.51L58,6l-.61-.29-1.05-.49-.91-.4-1-.41-.95-.39A.31.31,0,0,1,53.19,4.11Zm6.74,7c1.74,1.42,3.59,3,4.41,5.16a7.12,7.12,0,0,1-.26,5.27,9.21,9.21,0,0,1-3.16,3.62c-2.86,2-6.38,3-9.74,3.85a90,90,0,0,1-15.55,2.4,62.65,62.65,0,0,1-17.69-1.52,42.26,42.26,0,0,1-6.66-2.12A13.32,13.32,0,0,1,6,24.28a6.36,6.36,0,0,1-1.39-2.69,7.73,7.73,0,0,1,.12-3.35,13.75,13.75,0,0,1,3.16-6,25.08,25.08,0,0,1,5.91-4.75,30.59,30.59,0,0,1,7-3h.06l.25-.08a30.08,30.08,0,0,1,7.31-1.11,78.65,78.65,0,0,1,8.55,0,43.69,43.69,0,0,1,8.59,1.21A50.39,50.39,0,0,1,53.21,7,29.47,29.47,0,0,1,59.93,11.13Z"/><path class="cls-2" d="M.07,22.57a10.41,10.41,0,0,1,.27-3.34A11.29,11.29,0,0,0,0,21.53c0,.14,0,.28,0,.42s0,.56,0,.84a8.14,8.14,0,0,0,.34,1.63q.13.39.3.78l0,.05A9.45,9.45,0,0,1,.07,22.57Z"/><path class="cls-5" d="M29.14,18.56a.69.69,0,0,0-.69-.69.71.71,0,0,0-.69.69,12.33,12.33,0,0,1-.48,3.2,2.19,2.19,0,0,1-1.69,1.52A2,2,0,0,1,23.85,22a13.34,13.34,0,0,1-.75-3.05.69.69,0,0,0-.85-.48.7.7,0,0,0-.48.85c.36,1.79.6,4,2.38,5a2.8,2.8,0,0,0,2.72,0A4,4,0,0,0,28.65,22,15.53,15.53,0,0,0,29.14,18.56Z"/><path class="cls-5" d="M46.89,24.29A3.9,3.9,0,0,0,48.67,22a15.53,15.53,0,0,0,.49-3.47.69.69,0,0,0-.69-.69.71.71,0,0,0-.69.69,12.33,12.33,0,0,1-.48,3.2,2.18,2.18,0,0,1-1.69,1.52A2,2,0,0,1,43.87,22a13.34,13.34,0,0,1-.75-3.05.69.69,0,0,0-.85-.48.7.7,0,0,0-.48.85c.36,1.79.6,4,2.38,5A2.8,2.8,0,0,0,46.89,24.29Z"/><path class="cls-5" d="M36.59,20.91c-.79,0-.64.9-.84,1.43l0-.06c0,.23-.42.67-.68.61l0,0a.61.61,0,0,1-.56-.31,2.17,2.17,0,0,1-.27-.75.69.69,0,0,0-1.33.37,3.52,3.52,0,0,0,.67,1.44,1.78,1.78,0,0,0,1.54.61,2.21,2.21,0,0,0,1.59-1,3.14,3.14,0,0,0,.49-1.69A.7.7,0,0,0,36.59,20.91Z"/><path class="cls-5" d="M35.09,22.9Z"/><path class="cls-6" d="M26.49,25.65a5.51,5.51,0,0,0-3.61,0,1.7,1.7,0,0,0-1.13,1.2A1.41,1.41,0,0,0,22.19,28a4.28,4.28,0,0,0,4.53.36,1.72,1.72,0,0,0,.89-1.26A1.43,1.43,0,0,0,26.49,25.65Z"/><path class="cls-6" d="M49.12,25.26a5.48,5.48,0,0,0-3.6,0,1.64,1.64,0,0,0-1.13,1.2,1.4,1.4,0,0,0,.43,1.14,4.32,4.32,0,0,0,4.54.36,1.72,1.72,0,0,0,.88-1.26A1.45,1.45,0,0,0,49.12,25.26Z"/><path class="cls-7" d="M3.5,28A7.63,7.63,0,0,1,.75,23,11.54,11.54,0,0,1,1.94,16.6a23.26,23.26,0,0,1,8.2-9.1,33.18,33.18,0,0,1,6.13-3.22.34.34,0,0,0,.21-.37h0a.27.27,0,0,0-.38-.25A30.71,30.71,0,0,0,5.43,10.58,21.6,21.6,0,0,0,1.6,15.86,14.86,14.86,0,0,0,.34,19.23a10.41,10.41,0,0,0-.27,3.34,9.45,9.45,0,0,0,.64,2.68h0a7.73,7.73,0,0,0,2.47,3.3.26.26,0,0,0,.42-.13h0A.34.34,0,0,0,3.5,28Z"/><path class="cls-7" d="M19,3.49A74,74,0,0,1,32.85.81a45.54,45.54,0,0,1,10.37.28c1,.15,2,.33,3,.56a33.32,33.32,0,0,1,3.66,1.07,32.25,32.25,0,0,1,3.34,1.39.31.31,0,0,0,.37-.06h0a.29.29,0,0,0-.05-.49A36.18,36.18,0,0,0,40.64.15a52.81,52.81,0,0,0-14,.86C24,1.5,21.38,2.14,18.78,2.88a.3.3,0,0,0-.22.27h0A.3.3,0,0,0,19,3.49Z"/><path class="cls-7" d="M59.69,7.24a13.56,13.56,0,0,1,4,2.77A20.75,20.75,0,0,1,67,14a9,9,0,0,1,.09,9.37,8.19,8.19,0,0,1-3.74,3.22c-.38.15-.21.77.17.61a7.55,7.55,0,0,0,.81-.39h0A8.86,8.86,0,0,0,66,25.61a9.13,9.13,0,0,0,3-5.9,9.91,9.91,0,0,0-.95-5.2,17.65,17.65,0,0,0-3.29-4.39A14.51,14.51,0,0,0,60,6.69a.33.33,0,0,0-.44.11v0A.31.31,0,0,0,59.69,7.24Z"/><path class="cls-7" d="M13.45,31.91l.17,0,1.47.24q2.86.45,5.75.72L22,33l1.48.11q3,.19,6.07.2H31c1.57,0,3.13-.08,4.7-.19.89-.05,1.77-.13,2.66-.21l1.54-.16c1.38-.15,2.76-.34,4.13-.55a.24.24,0,0,0,.22-.17h0a.35.35,0,0,0-.38-.44,93.55,93.55,0,0,1-14.67,1.1,93.41,93.41,0,0,1-14.65-1.21,31.16,31.16,0,0,1-7.71-2,.36.36,0,0,0-.49.31h0a.27.27,0,0,0,.17.25h0c.42.19.86.36,1.3.52A33.68,33.68,0,0,0,13.45,31.91Z"/><path class="cls-7" d="M46.62,32q1.44-.16,2.88-.39l1.57-.25q3.87-.66,7.66-1.66l.11,0,1.47-.41c.66-.19,1.31-.38,2-.59a.32.32,0,0,0-.13-.62h0a88.63,88.63,0,0,1-12,2.82c-1.15.18-2.3.34-3.46.48a.35.35,0,0,0-.3.42h0A.26.26,0,0,0,46.62,32Z"/><path class="cls-7" d="M4.79,48.3l.24.18c.34.24.66-.32.32-.55a9.41,9.41,0,0,1-.92-.75,9.83,9.83,0,0,1-.93-1,10.83,10.83,0,0,1-2-4,11.52,11.52,0,0,1-.3-1.62,12.34,12.34,0,0,1-.07-2.19,16,16,0,0,1,.73-3.94,21.46,21.46,0,0,1,1.92-4.26.32.32,0,0,0-.55-.33A19.53,19.53,0,0,0,.51,38a13.71,13.71,0,0,0,.07,2.64,5.81,5.81,0,0,0,.09.58A12.22,12.22,0,0,0,1.48,44a9.86,9.86,0,0,0,.72,1.41,10.29,10.29,0,0,0,1.67,2.1h0A9.73,9.73,0,0,0,4.79,48.3Z"/><path class="cls-7" d="M38.52,54.38l-1.84.09-1.84,0c-2.27,0-4.55-.06-6.81-.22l-1.63-.14c-2.36-.21-4.71-.52-7-.91l-.29-.05L17.83,53a34.23,34.23,0,0,1-5.46-1.42c-.45-.16-.89-.34-1.33-.53l-.4-.18c-.37-.18-.7.37-.32.55l.3.13.35.15a32,32,0,0,0,6.86,1.95c2.63.49,5.29.85,8,1.11a77.26,77.26,0,0,0,16.09,0,62,62,0,0,0,8.87-1.62.29.29,0,0,0,.22-.32.31.31,0,0,0-.39-.3l-.92.23c-.66.16-1.31.31-2,.45A64.16,64.16,0,0,1,38.52,54.38Z"/><path class="cls-7" d="M66.14,26.62a15.52,15.52,0,0,1,.88,1.9A16.93,16.93,0,0,1,67.76,31a16.72,16.72,0,0,1-.16,7.61,15.56,15.56,0,0,1-1.24,3.29.32.32,0,0,0,.55.32,17.33,17.33,0,0,0,1.17-12.59,16.5,16.5,0,0,0-1.39-3.37.27.27,0,0,0-.34-.14A.32.32,0,0,0,66.14,26.62Z"/><path class="cls-7" d="M7.5,64.37a19.47,19.47,0,0,1-4.73-5.73,10.4,10.4,0,0,1-1-6.83,7.55,7.55,0,0,1,1.66-3.39.32.32,0,0,0,0-.44h0A.29.29,0,0,0,3,48a8.32,8.32,0,0,0-1.84,3.81A9.93,9.93,0,0,0,1,54.7a11.14,11.14,0,0,0,.64,2.81h0a15.07,15.07,0,0,0,2.34,4.1,23.58,23.58,0,0,0,3.11,3.21.33.33,0,0,0,.46,0h0A.28.28,0,0,0,7.5,64.37Z"/><path class="cls-7" d="M47.9,70.65a48,48,0,0,1-14.31,1.83,53,53,0,0,1-14.24-2.29,54.18,54.18,0,0,1-7.59-3,.33.33,0,0,0-.45.16.27.27,0,0,0,.13.39,54.62,54.62,0,0,0,13.94,4.5,51.05,51.05,0,0,0,14.6.55,46.47,46.47,0,0,0,8.09-1.58.29.29,0,0,0,.21-.37h0A.3.3,0,0,0,47.9,70.65Z"/><path class="cls-7" d="M70.05,49.6a6.86,6.86,0,0,0-4.41-5.22c.14-.19.28-.39.41-.59a.3.3,0,0,0-.23-.46.31.31,0,0,0-.32.14,19.48,19.48,0,0,1-3.37,3.82,20.73,20.73,0,0,1-2.37,1.79,21.47,21.47,0,0,1-2.63,1.42,19.47,19.47,0,0,1-3,1A.31.31,0,0,0,54,52a.3.3,0,0,0,.34.14A20.46,20.46,0,0,0,64,46.33q.63-.67,1.2-1.41h0a5.56,5.56,0,0,1,1.77.89,6.43,6.43,0,0,1,2.28,3.41,9.43,9.43,0,0,1-1.18,7,21.78,21.78,0,0,1-4.42,5.88,27.2,27.2,0,0,1-2.92,2.2c-1,.69-2.05,1.35-3.11,2a37.78,37.78,0,0,1-7.5,3.4.33.33,0,0,0,0,.62h0a.28.28,0,0,0,.18,0,34.71,34.71,0,0,0,3.6-1.38h0c1.17-.52,2.32-1.1,3.43-1.73s2.19-1.29,3.25-2c.7-.46,1.4-.94,2.07-1.44h0c.37-.28.74-.57,1.1-.87a22.12,22.12,0,0,0,4.72-6A10.58,10.58,0,0,0,70.05,49.6Z"/></g></g></svg>