<svg xmlns="http://www.w3.org/2000/svg" viewBox="0 0 81.62 65.99"><defs><style>.cls-1{fill:#d9ab82;}.cls-2{fill:#d19767;}.cls-3{fill:#995625;}.cls-4{fill:#703c1b;}.cls-5{fill:#db959c;}</style></defs><g id="Capa_2" data-name="Capa 2"><g id="Capa_3" data-name="Capa 3"><path class="cls-1" d="M76.77,11a25.5,25.5,0,0,0-11.37-9A27.4,27.4,0,0,0,49.71.56C44.29,1.66,39,4.26,35.52,8.66a17.61,17.61,0,0,0-1.13,1.59.45.45,0,0,0,0,.56c-.18.31-.36.62-.52.95l-.06,0a48.38,48.38,0,0,0-12.27-1.37,21.08,21.08,0,0,0-10.33,3.41,23.27,23.27,0,0,0-4.65,4,19.83,19.83,0,0,0-1.45,1.71A23.1,23.1,0,0,0,1.88,25.6,28.4,28.4,0,0,0,.31,31.69,31.71,31.71,0,0,0,0,37.2a24.2,24.2,0,0,0,.86,6,15.1,15.1,0,0,0,.52,1.52.42.42,0,0,0,.3.27c.15.47.31.94.47,1.4a.58.58,0,0,0,0,.32,26.81,26.81,0,0,0,4.25,7.83,27.6,27.6,0,0,0,6.51,6A27,27,0,0,0,17.43,63a.43.43,0,0,0,.58-.25l.74.29a.44.44,0,0,0,.3.42,38.8,38.8,0,0,0,12.84,2.5,70.09,70.09,0,0,0,13.57-.87A56.6,56.6,0,0,0,59,61.26a41.69,41.69,0,0,0,10.49-6.47,33.78,33.78,0,0,0,7.61-9.1c.25-.45.49-.89.72-1.35a.48.48,0,0,0-.28-.61.38.38,0,0,0-.18,0c.21-.45.4-.9.59-1.36a.47.47,0,0,0,.48-.29,37.34,37.34,0,0,0,3.2-15.86A28.43,28.43,0,0,0,76.77,11ZM36,38.57a.49.49,0,0,1-.62.28h0a7.68,7.68,0,0,0-.86.48.5.5,0,0,1-.09.63,5.5,5.5,0,0,0-.87.71l-.09.09s0,0,0,.05-.11.14-.17.2l-.32.43a4.34,4.34,0,0,0-.28.46l-.11.19a2.72,2.72,0,0,1-.11.25c-.07.16-.13.33-.19.5s-.05.17-.07.26a.57.57,0,0,0,0,.14v.07a.49.49,0,0,1-.52.43l-.08,0c-.05.25-.07.47-.09.64a.48.48,0,0,1,.13,1,14.28,14.28,0,0,1-8.34-.94.49.49,0,0,1-.22-.71c-.19-.13-.36-.26-.53-.4a.41.41,0,0,1-.05.09.48.48,0,0,1-.67.11A9.27,9.27,0,0,1,19,38.79a10.13,10.13,0,0,1,2.23-8.86,13.36,13.36,0,0,1,4.1-3.13,21.72,21.72,0,0,1,2.43-1.05,9.31,9.31,0,0,1,2.83-.69.48.48,0,0,1,.55.39.48.48,0,0,1-.39.55l-.24,0,0,.18.06,0a.47.47,0,0,1,.28.62,7.5,7.5,0,0,0-.77,2.83,8,8,0,0,0,.21,2.44,9,9,0,0,0,.8,2,4.66,4.66,0,0,0,.3.47A11.44,11.44,0,0,0,35.76,38,.5.5,0,0,1,36,38.57Zm26-14.13a.46.46,0,0,1-.68.37,15.56,15.56,0,0,1-1.35,5,.49.49,0,0,1-.51.8,10.64,10.64,0,0,0-7.59.43.46.46,0,0,1-.62-.24,13.38,13.38,0,0,0-1.34.78c0,.1-.05.2-.08.3a.48.48,0,0,1-.9-.33,7.42,7.42,0,0,0,.24-2.77,10.29,10.29,0,0,0-5.41-7.62.49.49,0,0,1-.11-.67.47.47,0,0,1,.42-.19c.19-.32.45-.74.78-1.2a.56.56,0,0,1,0-.47,9.16,9.16,0,0,1,3.68-3.41,9,9,0,0,1,4.33-1,12.06,12.06,0,0,1,2.68.41,7.67,7.67,0,0,1,2.38,1,9.08,9.08,0,0,1,3.13,3.83A10.43,10.43,0,0,1,62.05,24.44Z"/><path class="cls-1" d="M70.87,11.49A20.42,20.42,0,0,0,55.71,3c-7.15-.33-14.1,3.26-18.66,8.64a24,24,0,0,0-1.52,2,7.25,7.25,0,0,0-.89,1.49L34.33,15h0a24.61,24.61,0,0,0-20.68,2.37A20.14,20.14,0,0,0,7,24a22.44,22.44,0,0,0-3,8.89,26.72,26.72,0,0,0,4.58,18.3,27.24,27.24,0,0,0,16.25,11A38.88,38.88,0,0,0,36.27,63a66.83,66.83,0,0,0,12.11-1.82,38.65,38.65,0,0,0,5.86-2,40.13,40.13,0,0,0,5-2.76,43.08,43.08,0,0,0,8.71-7,31.07,31.07,0,0,0,8.27-19.25A28.48,28.48,0,0,0,70.87,11.49Zm-32.18,46a5.06,5.06,0,0,1-1.95,1,2.85,2.85,0,0,1-2-.38,6.37,6.37,0,0,1-2.47-3,12.86,12.86,0,0,1-.4-7.81,15.77,15.77,0,0,1,.5-1.75,8.56,8.56,0,0,1-2.23.6,12.38,12.38,0,0,1-2.79.12,11.08,11.08,0,0,1-4.84-1.55,10.11,10.11,0,0,1-4.66-9.42,13.77,13.77,0,0,1,1.54-5.11.19.19,0,0,0,.14-.1,9.4,9.4,0,0,1,4.25-3.68,17,17,0,0,1,2.59-1c.92-.27,1.83-.57,2.77-.79a7.09,7.09,0,0,1,3-.17,9.91,9.91,0,0,0-.39,6.23,14,14,0,0,0,3.17,6.29c.47.53,1,1,1.48,1.5a8.3,8.3,0,0,0,.94.84c-2.06.53-4.11,2-4.53,4.19a3.56,3.56,0,0,0,0,1.08,16.49,16.49,0,0,1,2.64-4.34.49.49,0,0,1,.67-.11.48.48,0,0,1,.12.66,15.7,15.7,0,0,0-3.52,7.45,11,11,0,0,0,.81,7.14,6.12,6.12,0,0,0,1.07,1.4,2.67,2.67,0,0,0,1.47.82A2.7,2.7,0,0,0,37.77,57a11.9,11.9,0,0,0,1.42-1.15c3.51-3.29,5-8.13,6.43-12.59.19-.59,1.08-.25.9.34a47.64,47.64,0,0,1-3.11,8.08A17.06,17.06,0,0,1,38.69,57.5Zm-3.31-27a15.24,15.24,0,0,0,10.7-2.3.51.51,0,0,1,.68.06.5.5,0,0,1-.06.68,15.67,15.67,0,0,1-3,1.57,16.38,16.38,0,0,1-11.7.08.48.48,0,0,1,.34-.9A14.6,14.6,0,0,0,35.38,30.53ZM47.75,52.27a5.45,5.45,0,0,0-.56-1.45.32.32,0,1,1,.58-.27,5.9,5.9,0,0,1,.62,1.67,1.92,1.92,0,0,1-.13,1.45,1,1,0,0,1-1.26.41,2.57,2.57,0,0,1-1.11-.82A3.46,3.46,0,0,1,45.23,52a.32.32,0,0,1,.63-.1,2.72,2.72,0,0,0,.7,1.13c.22.22.69.62,1,.42S47.82,52.62,47.75,52.27ZM49.62,56a3.09,3.09,0,0,1-3.08,1,1,1,0,0,1-.61-.63,1.22,1.22,0,0,1,.4-1.11,4,4,0,0,1,2.37-1,1,1,0,0,1,1.15.64A1.26,1.26,0,0,1,49.62,56Zm4-5.18a.9.9,0,0,1-.72.79.83.83,0,0,1-.91-.43.32.32,0,0,1,.15-.42.29.29,0,0,1,.27,0c.09,0,.11.12.18.18a.22.22,0,0,0,.22,0,.24.24,0,0,0,.14-.12h0a.52.52,0,0,0,0-.25c0-.07,0-.13-.06-.2a.32.32,0,0,1,.18-.33.32.32,0,0,1,.42.15A1.12,1.12,0,0,1,53.57,50.86Zm3.36-1.74a2.11,2.11,0,0,1-1.21-.7,6.85,6.85,0,0,1-.85-1.08.32.32,0,1,1,.48-.41,7.09,7.09,0,0,0,.9,1.13c.27.24.68.57,1,.34a1.1,1.1,0,0,0,.34-1.14,4.54,4.54,0,0,0-.57-1.47.31.31,0,0,1,.15-.42.31.31,0,0,1,.42.15,4.85,4.85,0,0,1,.62,1.61,1.87,1.87,0,0,1-.21,1.39A1.24,1.24,0,0,1,56.93,49.12Zm4.78.29a3.06,3.06,0,0,1-3,1.19,1,1,0,0,1-.64-.59,1.18,1.18,0,0,1,.34-1.13,4,4,0,0,1,2.32-1.14,1,1,0,0,1,1.17.58A1.23,1.23,0,0,1,61.71,49.41Zm3.58-8.57c-2.53,1.58-5.74,1.64-8.63,1.76a79.09,79.09,0,0,1-18.55-1.44.49.49,0,0,1-.43-.52.48.48,0,0,1,.52-.43A79.55,79.55,0,0,0,48,41.52a77.39,77.39,0,0,0,8.88.12,37.5,37.5,0,0,0,4.24-.37,9.65,9.65,0,0,0,3.8-1.33c1.78-1.18,3.08-3.63,2-5.67s-3.55-2.5-5.48-2.92a.61.61,0,0,1-.37-.24,7.78,7.78,0,0,0-.46,1.08,2.87,2.87,0,0,0-1.34-.75,9.35,9.35,0,0,0-2.79-.22,18.16,18.16,0,0,0-5.65,1.44c-.92.37-1.83.75-2.76,1.1a24.26,24.26,0,0,0,.33-2.94A10.68,10.68,0,0,0,48,27.69a12.24,12.24,0,0,0-3.18-4.87,6.11,6.11,0,0,0-2.42-1.63h0a2.11,2.11,0,0,1,.22-.93,18.62,18.62,0,0,0-14.23,3.27c-.49.36-1.11-.37-.61-.74a19.63,19.63,0,0,1,3-1.81,19.87,19.87,0,0,1,12.17-1.63l.09,0a10.33,10.33,0,0,1,.85-1.52,9.92,9.92,0,0,1,2.82-2.62,10.12,10.12,0,0,1,6.52-1.5,10.61,10.61,0,0,1,9.25,9.32,14,14,0,0,1-.34,5.12,13.94,13.94,0,0,1-.69,2.22h.12c2.44.53,5.57,1.36,6.49,4C68.9,36.89,67.39,39.53,65.29,40.84Z"/><path class="cls-2" d="M32.77,43.46c.42-2.16,2.47-3.66,4.53-4.19a8.3,8.3,0,0,1-.94-.84c-.49-.5-1-1-1.48-1.5a14,14,0,0,1-3.17-6.29,9.91,9.91,0,0,1,.39-6.23,7.09,7.09,0,0,0-3,.17c-.94.22-1.85.52-2.77.79a17,17,0,0,0-2.59,1,9.4,9.4,0,0,0-4.25,3.68.19.19,0,0,1-.14.1,13.77,13.77,0,0,0-1.54,5.11,10.11,10.11,0,0,0,4.66,9.42,11.08,11.08,0,0,0,4.84,1.55,12.38,12.38,0,0,0,2.79-.12,8.56,8.56,0,0,0,2.23-.6c.11-.33.23-.65.37-1A3.56,3.56,0,0,1,32.77,43.46Zm-.6-.22v.07a.49.49,0,0,1-.52.43l-.08,0c-.05.25-.07.47-.09.64a.48.48,0,0,1,.13,1,14.28,14.28,0,0,1-8.34-.94.49.49,0,0,1-.22-.71c-.19-.13-.36-.26-.53-.4a.41.41,0,0,1-.05.09.48.48,0,0,1-.67.11A9.27,9.27,0,0,1,19,38.79a10.13,10.13,0,0,1,2.23-8.86,13.36,13.36,0,0,1,4.1-3.13,21.72,21.72,0,0,1,2.43-1.05,9.31,9.31,0,0,1,2.83-.69.48.48,0,0,1,.55.39.48.48,0,0,1-.39.55l-.24,0,0,.18.06,0a.47.47,0,0,1,.28.62,7.5,7.5,0,0,0-.77,2.83,8,8,0,0,0,.21,2.44,9,9,0,0,0,.8,2,4.66,4.66,0,0,0,.3.47A11.44,11.44,0,0,0,35.76,38a.5.5,0,0,1,.28.62.49.49,0,0,1-.62.28h0a7.68,7.68,0,0,0-.86.48.5.5,0,0,1-.09.63,5.5,5.5,0,0,0-.87.71l-.09.09s0,0,0,.05-.11.14-.17.2l-.32.43a4.34,4.34,0,0,0-.28.46l-.11.19a2.72,2.72,0,0,1-.11.25c-.07.16-.13.33-.19.5s-.05.17-.07.26A.57.57,0,0,0,32.17,43.24Z"/><path class="cls-2" d="M61,30.82a.52.52,0,0,1,.4-.43,13.94,13.94,0,0,0,.69-2.22,14,14,0,0,0,.34-5.12,10.61,10.61,0,0,0-9.25-9.32,10.12,10.12,0,0,0-6.52,1.5,9.92,9.92,0,0,0-2.82,2.62A10.33,10.33,0,0,0,43,19.37a.47.47,0,0,1,.33.5.48.48,0,0,1-.52.43l-.25,0a2.11,2.11,0,0,0-.22.93h0a6.11,6.11,0,0,1,2.42,1.63A12.24,12.24,0,0,1,48,27.69a10.68,10.68,0,0,1,.46,3.13,24.26,24.26,0,0,1-.33,2.94c.93-.35,1.84-.73,2.76-1.1a18.16,18.16,0,0,1,5.65-1.44,9.35,9.35,0,0,1,2.79.22,2.87,2.87,0,0,1,1.34.75,7.78,7.78,0,0,1,.46-1.08A.45.45,0,0,1,61,30.82Zm-1.51-.22a10.64,10.64,0,0,0-7.59.43.46.46,0,0,1-.62-.24,13.38,13.38,0,0,0-1.34.78c0,.1-.05.2-.08.3a.48.48,0,0,1-.9-.33,7.42,7.42,0,0,0,.24-2.77,10.29,10.29,0,0,0-5.41-7.62.49.49,0,0,1-.11-.67.47.47,0,0,1,.42-.19c.19-.32.45-.74.78-1.2a.56.56,0,0,1,0-.47,9.16,9.16,0,0,1,3.68-3.41,9,9,0,0,1,4.33-1,12.06,12.06,0,0,1,2.68.41,7.67,7.67,0,0,1,2.38,1,9.08,9.08,0,0,1,3.13,3.83,10.43,10.43,0,0,1,.91,5,.46.46,0,0,1-.68.37,15.56,15.56,0,0,1-1.35,5A.49.49,0,0,1,59.51,30.6Z"/><path class="cls-2" d="M6.59,17.77a19.83,19.83,0,0,0-1.45,1.71A23.1,23.1,0,0,0,1.88,25.6,26.1,26.1,0,0,1,4,21.31,23.7,23.7,0,0,1,6.59,17.77Z"/><path class="cls-2" d="M77.5,41.72c.26-.61.51-1.21.74-1.83a35,35,0,0,0,2.3-15.43A26.67,26.67,0,0,0,75,10.12,24.85,24.85,0,0,0,63.58,2.28a26.9,26.9,0,0,0-15.52-.35,25.46,25.46,0,0,0-7.35,3.25,19.15,19.15,0,0,0-5.54,5.62.45.45,0,0,1-.75,0c-.18.31-.36.62-.52.95a.47.47,0,0,1,.37.5.48.48,0,0,1-.52.43l-1.47-.29c-3.91-.76-7.93-1.44-11.92-1a20.16,20.16,0,0,0-9.51,3.78,23.12,23.12,0,0,0-6.71,7.7,27.18,27.18,0,0,0-3,10.16A30.72,30.72,0,0,0,1,38.41a20.23,20.23,0,0,0,1.23,6A.5.5,0,0,1,1.7,45c.15.47.31.94.47,1.4a.44.44,0,0,1,.26-.31.47.47,0,0,1,.63.23,25.9,25.9,0,0,0,2,4.46,26.37,26.37,0,0,0,5.4,6.67,26.06,26.06,0,0,0,7.29,4.6.47.47,0,0,1,.25.65l.74.29a.46.46,0,0,1,.63-.47q.75.29,1.5.54A40.8,40.8,0,0,0,33.53,65a70.82,70.82,0,0,0,13.4-1.19A52.71,52.71,0,0,0,60,59.73a39.44,39.44,0,0,0,9.84-6.57,32.14,32.14,0,0,0,7-9.15.51.51,0,0,1,.44-.31c.21-.45.4-.9.59-1.36A.44.44,0,0,1,77.5,41.72ZM68,49.3a43.08,43.08,0,0,1-8.71,7,40.13,40.13,0,0,1-5,2.76,38.65,38.65,0,0,1-5.86,2A66.83,66.83,0,0,1,36.27,63a38.88,38.88,0,0,1-11.39-.78,27.24,27.24,0,0,1-16.25-11,26.72,26.72,0,0,1-4.58-18.3A22.44,22.44,0,0,1,7,24a20.14,20.14,0,0,1,6.63-6.64A24.61,24.61,0,0,1,34.32,15h0l.31.12a7.25,7.25,0,0,1,.89-1.49,24,24,0,0,1,1.52-2c4.56-5.38,11.51-9,18.66-8.64a20.42,20.42,0,0,1,15.16,8.52,28.48,28.48,0,0,1,5.37,18.56A31.07,31.07,0,0,1,68,49.3Z"/><path class="cls-3" d="M2.26,44.36a20.23,20.23,0,0,1-1.23-6,30.72,30.72,0,0,1,.08-5.34,27.18,27.18,0,0,1,3-10.16,23.12,23.12,0,0,1,6.71-7.7,20.16,20.16,0,0,1,9.51-3.78c4-.47,8,.21,11.92,1l1.47.29a.48.48,0,0,0,.52-.43.47.47,0,0,0-.37-.5l-.06,0a48.38,48.38,0,0,0-12.27-1.37,21.08,21.08,0,0,0-10.33,3.41,23.27,23.27,0,0,0-4.65,4A23.7,23.7,0,0,0,4,21.31,26.1,26.1,0,0,0,1.88,25.6,28.4,28.4,0,0,0,.31,31.69,31.71,31.71,0,0,0,0,37.2a24.2,24.2,0,0,0,.86,6,15.1,15.1,0,0,0,.52,1.52.42.42,0,0,0,.3.27A.5.5,0,0,0,2.26,44.36Z"/><path class="cls-3" d="M76.77,11a25.5,25.5,0,0,0-11.37-9A27.4,27.4,0,0,0,49.71.56C44.29,1.66,39,4.26,35.52,8.66a17.61,17.61,0,0,0-1.13,1.59.45.45,0,0,0,0,.56.45.45,0,0,0,.75,0,19.15,19.15,0,0,1,5.54-5.62,25.46,25.46,0,0,1,7.35-3.25,26.9,26.9,0,0,1,15.52.35A24.85,24.85,0,0,1,75,10.12a26.67,26.67,0,0,1,5.59,14.34,35,35,0,0,1-2.3,15.43c-.23.62-.48,1.22-.74,1.83a.44.44,0,0,0,.42.62.47.47,0,0,0,.48-.29,37.34,37.34,0,0,0,3.2-15.86A28.43,28.43,0,0,0,76.77,11Z"/><path class="cls-3" d="M76.89,44a32.14,32.14,0,0,1-7,9.15A39.44,39.44,0,0,1,60,59.73a52.71,52.71,0,0,1-13.09,4.11A70.82,70.82,0,0,1,33.53,65a40.8,40.8,0,0,1-12.65-1.94q-.75-.26-1.5-.54a.46.46,0,0,0-.63.47.44.44,0,0,0,.3.42,38.8,38.8,0,0,0,12.84,2.5,70.09,70.09,0,0,0,13.57-.87A56.6,56.6,0,0,0,59,61.26a41.69,41.69,0,0,0,10.49-6.47,33.78,33.78,0,0,0,7.61-9.1c.25-.45.49-.89.72-1.35a.48.48,0,0,0-.28-.61.38.38,0,0,0-.18,0A.51.51,0,0,0,76.89,44Z"/><path class="cls-3" d="M17.76,62.08a26.06,26.06,0,0,1-7.29-4.6,26.37,26.37,0,0,1-5.4-6.67,25.9,25.9,0,0,1-2-4.46.47.47,0,0,0-.63-.23.44.44,0,0,0-.26.31.58.58,0,0,0,0,.32,26.81,26.81,0,0,0,4.25,7.83,27.6,27.6,0,0,0,6.51,6A27,27,0,0,0,17.43,63a.43.43,0,0,0,.58-.25A.47.47,0,0,0,17.76,62.08Z"/><path class="cls-3" d="M22.33,42.68a8.47,8.47,0,0,1-2.44-8,9.66,9.66,0,0,1,1.84-3.83,11.36,11.36,0,0,1,3.59-2.95,21.66,21.66,0,0,1,2.5-1.15A10.11,10.11,0,0,1,30.51,26l.24,0a.48.48,0,0,0,.39-.55.48.48,0,0,0-.55-.39,9.31,9.31,0,0,0-2.83.69,21.72,21.72,0,0,0-2.43,1.05,13.36,13.36,0,0,0-4.1,3.13A10.13,10.13,0,0,0,19,38.79a9.27,9.27,0,0,0,2.78,4.67.48.48,0,0,0,.67-.11.41.41,0,0,0,.05-.09A.51.51,0,0,0,22.33,42.68Z"/><path class="cls-3" d="M29.93,26.5a8.46,8.46,0,0,0-.64,5.62A8.6,8.6,0,0,0,32.42,37a16.76,16.76,0,0,0,3,1.84h0a.49.49,0,0,0,.62-.28.5.5,0,0,0-.28-.62,11.44,11.44,0,0,1-4.4-3.41,4.66,4.66,0,0,1-.3-.47,7.62,7.62,0,0,1-.8-2,8,8,0,0,1-.21-2.44,7.5,7.5,0,0,1,.77-2.83.47.47,0,0,0-.28-.62l-.06,0A.5.5,0,0,0,29.93,26.5Z"/><path class="cls-3" d="M23.58,43.48a.41.41,0,0,0-.55.18.49.49,0,0,0,.22.71,14.28,14.28,0,0,0,8.34.94.48.48,0,0,0-.13-1h0A13.47,13.47,0,0,1,23.58,43.48Z"/><path class="cls-3" d="M32.47,42.34a2.72,2.72,0,0,0,.11-.25l.11-.19a4.34,4.34,0,0,1,.28-.46l.32-.43c.06-.06.11-.13.17-.2s0,0,0-.05l.09-.09a5.5,5.5,0,0,1,.87-.71.5.5,0,0,0,.09-.63l0,0a.48.48,0,0,0-.67-.06,6.45,6.45,0,0,0-2.65,4,.48.48,0,0,0,.35.51l.08,0a.49.49,0,0,0,.52-.43v-.07a.57.57,0,0,1,0-.14c0-.09,0-.18.07-.26S32.4,42.5,32.47,42.34Z"/><path class="cls-3" d="M46.76,22.13a13.76,13.76,0,0,0-2.39-1.76.61.61,0,0,0-.25-.08.47.47,0,0,0-.42.19.49.49,0,0,0,.11.67,10.29,10.29,0,0,1,5.41,7.62A7.42,7.42,0,0,1,49,31.54a.48.48,0,0,0,.9.33c0-.1,0-.2.08-.3A9.88,9.88,0,0,0,46.76,22.13Z"/><path class="cls-3" d="M45.72,19.18a8.29,8.29,0,0,1,6.62-4,9.5,9.5,0,0,1,2.32.21,8.78,8.78,0,0,1,2.34.76,7.42,7.42,0,0,1,3,3.16,9.43,9.43,0,0,1,1.11,5.05.48.48,0,0,0,.95.09,10.43,10.43,0,0,0-.91-5A9.08,9.08,0,0,0,58,15.63a7.67,7.67,0,0,0-2.38-1A12.06,12.06,0,0,0,53,14.22a9,9,0,0,0-4.33,1,9.16,9.16,0,0,0-3.68,3.41.56.56,0,0,0,0,.47.39.39,0,0,0,.16.2A.48.48,0,0,0,45.72,19.18Z"/><path class="cls-3" d="M59.85,29.7a11.77,11.77,0,0,0-8.34.46.45.45,0,0,0-.21.63.46.46,0,0,0,.62.24,10.64,10.64,0,0,1,7.59-.43.49.49,0,0,0,.51-.8A.48.48,0,0,0,59.85,29.7Z"/><path class="cls-3" d="M61.54,30.39h-.12a.52.52,0,0,0-.4.43.45.45,0,0,0,.06.29.61.61,0,0,0,.37.24c1.93.42,4.46,1,5.48,2.92s-.21,4.49-2,5.67a9.65,9.65,0,0,1-3.8,1.33,37.5,37.5,0,0,1-4.24.37A77.39,77.39,0,0,1,48,41.52a79.55,79.55,0,0,1-9.82-1.31.48.48,0,0,0-.52.43.49.49,0,0,0,.43.52A79.09,79.09,0,0,0,56.66,42.6c2.89-.12,6.1-.18,8.63-1.76,2.1-1.31,3.61-4,2.74-6.43C67.11,31.75,64,30.92,61.54,30.39Z"/><path class="cls-3" d="M45.62,43.24c-1.4,4.46-2.92,9.3-6.43,12.59A11.9,11.9,0,0,1,37.77,57a2.7,2.7,0,0,1-1.78.58,2.67,2.67,0,0,1-1.47-.82,6.12,6.12,0,0,1-1.07-1.4,11,11,0,0,1-.81-7.14,15.7,15.7,0,0,1,3.52-7.45.48.48,0,0,0-.12-.66.49.49,0,0,0-.67.11,16.49,16.49,0,0,0-2.64,4.34c-.14.33-.26.65-.37,1a15.77,15.77,0,0,0-.5,1.75,12.86,12.86,0,0,0,.4,7.81,6.37,6.37,0,0,0,2.47,3,2.85,2.85,0,0,0,2,.38,5.06,5.06,0,0,0,1.95-1,17.06,17.06,0,0,0,4.72-5.84,47.64,47.64,0,0,0,3.11-8.08C46.7,43,45.81,42.65,45.62,43.24Z"/><path class="cls-3" d="M32,30.62a16.38,16.38,0,0,0,11.7-.08,15.67,15.67,0,0,0,3-1.57.5.5,0,0,0,.06-.68.51.51,0,0,0-.68-.06,15.24,15.24,0,0,1-10.7,2.3,14.6,14.6,0,0,1-3.05-.81A.48.48,0,0,0,32,30.62Z"/><path class="cls-3" d="M43.34,19.87a.47.47,0,0,0-.33-.5l-.09,0A19.87,19.87,0,0,0,30.75,21a19.63,19.63,0,0,0-3,1.81c-.5.37.12,1.1.61.74a18.62,18.62,0,0,1,14.23-3.27l.25,0A.48.48,0,0,0,43.34,19.87Z"/><path class="cls-4" d="M47.59,53.47c-.34.2-.81-.2-1-.42a2.72,2.72,0,0,1-.7-1.13.32.32,0,0,0-.63.1,3.46,3.46,0,0,0,.66,1.24,2.57,2.57,0,0,0,1.11.82,1,1,0,0,0,1.26-.41,1.92,1.92,0,0,0,.13-1.45,5.9,5.9,0,0,0-.62-1.67.32.32,0,1,0-.58.27,5.45,5.45,0,0,1,.56,1.45C47.82,52.62,48,53.24,47.59,53.47Z"/><path class="cls-4" d="M58.26,47.13a4.85,4.85,0,0,0-.62-1.61.31.31,0,0,0-.42-.15.31.31,0,0,0-.15.42,4.54,4.54,0,0,1,.57,1.47,1.1,1.1,0,0,1-.34,1.14c-.37.23-.78-.1-1-.34a7.09,7.09,0,0,1-.9-1.13.32.32,0,1,0-.48.41,6.85,6.85,0,0,0,.85,1.08,2.11,2.11,0,0,0,1.21.7,1.24,1.24,0,0,0,1.12-.6A1.87,1.87,0,0,0,58.26,47.13Z"/><path class="cls-4" d="M53.05,50.11a.32.32,0,0,0-.18.33c0,.07.05.13.06.2a.52.52,0,0,1,0,.25h0a.24.24,0,0,1-.14.12.22.22,0,0,1-.22,0c-.07-.06-.09-.14-.18-.18a.29.29,0,0,0-.27,0,.32.32,0,0,0-.15.42.83.83,0,0,0,.91.43.9.9,0,0,0,.72-.79,1.12,1.12,0,0,0-.1-.6A.32.32,0,0,0,53.05,50.11Z"/><path class="cls-5" d="M48.7,54.32a4,4,0,0,0-2.37,1,1.22,1.22,0,0,0-.4,1.11,1,1,0,0,0,.61.63,3.09,3.09,0,0,0,3.08-1A1.26,1.26,0,0,0,49.85,55,1,1,0,0,0,48.7,54.32Z"/><path class="cls-5" d="M60.71,47.74a4,4,0,0,0-2.32,1.14A1.18,1.18,0,0,0,58.05,50a1,1,0,0,0,.64.59,3.06,3.06,0,0,0,3-1.19,1.23,1.23,0,0,0,.17-1.09A1,1,0,0,0,60.71,47.74Z"/></g></g></svg>