<svg xmlns="http://www.w3.org/2000/svg" viewBox="0 0 96.48 105.03"><defs><style>.cls-1{fill:#e3ad9f;}.cls-2{fill:#d06874;}.cls-3{fill:#fbf085;}.cls-4{fill:#c3d8a8;}.cls-5{fill:#db9180;}.cls-6{fill:#ecebd1;}.cls-7{fill:#ebe8a1;}.cls-8{fill:#c8775a;}.cls-9{fill:#c66543;}.cls-10{fill:#f0d5d0;}.cls-11{fill:#dce4a7;}.cls-12{fill:#ab6b4f;}.cls-13{fill:#9b4838;}.cls-14{fill:#db95a1;}.cls-15{fill:#8e2f1e;}</style></defs><g id="Capa_2" data-name="Capa 2"><g id="Capa_3" data-name="Capa 3"><path class="cls-1" d="M96.18,61A47.31,47.31,0,0,0,86.05,37.82a66.67,66.67,0,0,0-9.81-10c-.39-.33-.94.14-.73.51l-.91-.6h0c-.36-.23-.71-.45-1.07-.66l0,0-.16-.1c.37-.08.58-.61.16-.79l-6.41-2.83a.48.48,0,0,0-.63.24l-1.08-.42a10.58,10.58,0,0,0-.65-4.5,15.55,15.55,0,0,0-3-5.24.37.37,0,0,0-.48-.1l-.45-.8a.93.93,0,0,0-1.29-.28.44.44,0,0,0-.64.26,4.42,4.42,0,0,1-1.4,2,27.41,27.41,0,0,0,1.41-3.26A4.75,4.75,0,0,0,58.5,7a.46.46,0,0,0-.6-.14l-.25-.31h.15c.32,0,.75-.09.84-.47s-.28-.69-.61-.86a1,1,0,0,0,.25-.15c.57-.45,0-1-.41-1.21a4.16,4.16,0,0,0-1.45-.42c.26-.12.52-.25.78-.4a.38.38,0,0,0-.09-.69,6.21,6.21,0,0,0-3.06.05c.53-.91,1-2.06.09-2.15A2.14,2.14,0,0,0,52.68,1a3.31,3.31,0,0,0-.66.92A20.13,20.13,0,0,0,50.52.11a.38.38,0,0,0-.65.27A5.83,5.83,0,0,0,50.13,2c-.82-.49-1.77-.81-2,.09a.85.85,0,0,0,0,.42h-.52a.36.36,0,0,0-.39-.25A7.67,7.67,0,0,0,41.4,5.64a10.53,10.53,0,0,0-1.51,7.45,3.53,3.53,0,0,0-2.24-1.5,1,1,0,0,0-1,.39.36.36,0,0,0-.16.2C35.36,15,33.09,17,31.7,19.65a9,9,0,0,0-1.14,4.22c-1.08.48-2.14,1-3.19,1.54a.45.45,0,0,0-.66-.33,47.33,47.33,0,0,0-9,6.47,50,50,0,0,0-7.29,8.35,50.62,50.62,0,0,0-5.29,9.76,48,48,0,0,0-2.7,9c-.08.26-.15.53-.22.79l-.06.2h0q-.31,1.15-.6,2.34c0,.16-.08.33-.11.5A18.64,18.64,0,0,0,1,64.61,48.24,48.24,0,0,0,.28,79.34Q.4,80.72.61,82.1A28.16,28.16,0,0,0,8.87,98.56a19.94,19.94,0,0,0,8.48,4.77.43.43,0,0,0,.55-.42l.78.27.15,0,.43.14a.39.39,0,0,0,.31.42c5,1.1,10.32,2.11,15.21,0a.46.46,0,0,0,.16-.61l0,0,.82-.28a.35.35,0,0,0,.48-.18c.56-.21,1.12-.44,1.66-.7a.41.41,0,0,0,.52.27A13.34,13.34,0,0,0,43.6,99.4c.27.14.56.29.84.42s.75.36,1.12.52a.44.44,0,0,0-.11.8c5.86,2.92,12.61,3.16,19,2.21s12.89-3,18-7.07a23.37,23.37,0,0,0,6.4-7.65.44.44,0,0,0,0-.37c.31-.45.62-.91.91-1.37a.41.41,0,0,0,.43-.21,67,67,0,0,0,3.21-6.25A37.58,37.58,0,0,0,96.18,61Z"/><polygon class="cls-2" points="50.66 7.33 50.65 7.33 50.66 7.33 50.66 7.33"/><polygon class="cls-2" points="54.85 7.11 54.84 7.12 54.85 7.12 54.85 7.11"/><polygon class="cls-2" points="55.25 14.74 55.25 14.74 55.25 14.74 55.25 14.74"/><path class="cls-2" d="M47.25,3.15a6.72,6.72,0,0,0-5.15,3,9.63,9.63,0,0,0-1.35,6.69.5.5,0,0,1-.58.55.17.17,0,0,0,0,.07c.11.18.21.37.3.55a.4.4,0,0,1,.62.26,17.46,17.46,0,0,0,1.67,4.13,30.53,30.53,0,0,1,3.4-3.52v-.06a.22.22,0,0,1,0-.14l0-.05a.62.62,0,0,1,.14-.23.2.2,0,0,1,.21,0s0,0,0,0A10.78,10.78,0,0,0,48,12.71a.88.88,0,0,1,1-.39.42.42,0,0,1,.63-.28,3.14,3.14,0,0,1,.48.39l.06,0a.18.18,0,0,1,.08.09.06.06,0,0,1,0,0,4.39,4.39,0,0,1,.94,1.77A13.48,13.48,0,0,1,51.54,16l.09.34a9.14,9.14,0,0,0,.74,2l0,.05c.15.25.31.5.47.74a6.84,6.84,0,0,1,2.59-3.13l.49-.35a.28.28,0,0,1,0-.15c.65-1.41,1.4-2.81,1.93-4.27a4.08,4.08,0,0,0-.17-3.84.38.38,0,0,1,.16-.59l-.25-.31a8.54,8.54,0,0,1-1.43,0,10.07,10.07,0,0,1-5.4-2.16L49,3.35a1.74,1.74,0,0,1-.88-.85h-.52A.45.45,0,0,1,47.25,3.15ZM42.09,14.79a.2.2,0,0,1-.3,0,.77.77,0,0,1-.21-.57.25.25,0,0,1,.06-.14h0s0,0,0,0a.25.25,0,0,1,.16-.08.18.18,0,0,1,.17.06l.06.07.06.11A.65.65,0,0,1,42.09,14.79Zm.33-5v0a.47.47,0,0,1-.07.12l-.05,0s0,0,0,0a.19.19,0,0,1-.3,0,.42.42,0,0,1,0-.29A.53.53,0,0,1,42,9.53v0a.14.14,0,0,1,.09-.11.18.18,0,0,1,.14,0,.15.15,0,0,1,.07,0l0,.06,0,.08v0l0,.06v0a.15.15,0,0,1,0,.07A.17.17,0,0,1,42.42,9.79ZM43.74,5.9a1,1,0,0,1,0-.6A.2.2,0,0,1,44,5.17a.21.21,0,0,1,.12.11.11.11,0,0,1,.07,0,.08.08,0,0,1,0,.05l0,0a.53.53,0,0,1,0,.12.42.42,0,0,1,0,.22.83.83,0,0,1-.07.13A.58.58,0,0,1,44,6a.17.17,0,0,1-.17,0A.19.19,0,0,1,43.74,5.9Zm.61,6.15-.05.12a.27.27,0,0,1-.1.08h-.09l-.07,0,0,0a.2.2,0,0,1,0-.09h0l0,0a.13.13,0,0,1,0-.06l-.06-.18a.18.18,0,0,1,0-.14.19.19,0,0,1,.11-.09h.08a.17.17,0,0,1,.15,0,.22.22,0,0,1,.14.14s0,.08,0,.13v.08A.59.59,0,0,1,44.35,12.05Zm3.13-3.79a1.87,1.87,0,0,0-.07.22.22.22,0,0,1-.19.14h0a.2.2,0,0,1-.13,0,.17.17,0,0,1-.11-.09.17.17,0,0,1,0-.14L47,8.13a.4.4,0,0,1,.16-.24.25.25,0,0,1,.35.08A.41.41,0,0,1,47.48,8.26ZM57,9.44l0-.07v0l0-.05v0h0l0,0a.14.14,0,0,1,.08-.05h.1a.16.16,0,0,1,.09.05.22.22,0,0,1,0,.08v0h0a.16.16,0,0,1,0,.07s0,0,0,.05h0v0s0,0,0,.05a.26.26,0,0,1-.13.1l-.08.07-.1,0h-.07l-.06,0A.16.16,0,0,1,57,9.64a.34.34,0,0,1,0-.1S57,9.47,57,9.44Zm-1.91,5h0l.06-.09,0,0,.09-.06a.08.08,0,0,1,.07,0h.07a.26.26,0,0,1,.09.05l0,.06a.07.07,0,0,1,0,.05h0a.11.11,0,0,1,0,.08l0,.06,0,0h0l-.11.14,0,.06a.19.19,0,0,1-.1,0,.18.18,0,0,1-.16,0,.16.16,0,0,1-.09-.12.07.07,0,0,1,0-.05h0v-.05a.2.2,0,0,1,.05-.09l0,0ZM54.5,7a.29.29,0,0,1,.07-.12l.07-.06v0l0-.08a.23.23,0,0,1,.07-.07s.05,0,.07,0h.1a.14.14,0,0,1,.08,0,.16.16,0,0,1,.05.18,1.22,1.22,0,0,1-.1.24,1.13,1.13,0,0,1-.15.21.19.19,0,0,1-.19,0,.21.21,0,0,1-.13-.13A.27.27,0,0,1,54.5,7Zm-1.07,3.48a.39.39,0,0,1,.1-.19l.06,0a.44.44,0,0,1,.11-.09h.07A.18.18,0,0,1,54,10a.22.22,0,0,1,.12.09.25.25,0,0,1,0,.15.79.79,0,0,1-.24.36.61.61,0,0,1-.12.16.2.2,0,0,1-.18,0,.15.15,0,0,1-.09,0,.41.41,0,0,1-.05-.09A.54.54,0,0,1,53.43,10.46Zm-1.7,5.4,0-.12.06-.06a.19.19,0,0,1,.14-.16.2.2,0,0,1,.24.13.76.76,0,0,1,0,.15.19.19,0,0,1,0,.08.4.4,0,0,1-.07.24.52.52,0,0,1-.17.19.19.19,0,0,1-.28-.12v-.08h0a.25.25,0,0,1,0-.12A.51.51,0,0,1,51.73,15.86ZM50.31,7.22h0s0,0,0,0l.08-.08.07,0a.25.25,0,0,1,.19,0,.15.15,0,0,1,.11.08.16.16,0,0,1,0,.15,2.44,2.44,0,0,1-.1.24,1.37,1.37,0,0,1-.15.21.15.15,0,0,1-.13,0,.19.19,0,0,1-.14,0,.41.41,0,0,1-.13-.33A.18.18,0,0,1,50.31,7.22Zm-2-2.11.07-.24a.27.27,0,0,1,.09-.12l.09,0,.07,0a.17.17,0,0,1,.1,0l.09,0a.15.15,0,0,1,0,.09.17.17,0,0,1,0,.1.62.62,0,0,1-.1.2l0,0s0,.06,0,.09a.17.17,0,0,1-.09.11.19.19,0,0,1-.15,0l-.07,0h0a.17.17,0,0,1-.08-.09.24.24,0,0,1,0-.08Z"/><path class="cls-2" d="M55.13,14.73l-.06,0,0,0Z"/><path class="cls-2" d="M55,6.87v0s0,0,0,.06h0Z"/><path class="cls-2" d="M55.18,14.75h0Z"/><path class="cls-3" d="M44,6a.58.58,0,0,0,.14-.13.83.83,0,0,0,.07-.13.42.42,0,0,0,0-.22.53.53,0,0,0,0-.12l0,0a.08.08,0,0,0,0-.05.11.11,0,0,0-.07,0A.21.21,0,0,0,44,5.17a.2.2,0,0,0-.24.13,1,1,0,0,0,0,.6.19.19,0,0,0,.11.12A.17.17,0,0,0,44,6Z"/><path class="cls-3" d="M48.41,5.33h0l.07,0a.19.19,0,0,0,.15,0,.17.17,0,0,0,.09-.11s0-.06,0-.09l0,0a.62.62,0,0,0,.1-.2.17.17,0,0,0,0-.1.15.15,0,0,0,0-.09l-.09,0a.17.17,0,0,0-.1,0l-.07,0-.09,0a.27.27,0,0,0-.09.12l-.07.24v0a.24.24,0,0,0,0,.08A.17.17,0,0,0,48.41,5.33Z"/><path class="cls-3" d="M50.42,7.78a.15.15,0,0,0,.13,0,1.37,1.37,0,0,0,.15-.21,2.44,2.44,0,0,0,.1-.24.16.16,0,0,0,0-.15.15.15,0,0,0-.11-.08.25.25,0,0,0-.19,0l-.07,0-.08.08s0,0,0,0h0a.18.18,0,0,0-.16.18.41.41,0,0,0,.13.33A.19.19,0,0,0,50.42,7.78Zm.24-.45Z"/><path class="cls-3" d="M54.62,7.31a.19.19,0,0,0,.19,0A1.13,1.13,0,0,0,55,7.05a1.22,1.22,0,0,0,.1-.24A.16.16,0,0,0,55,6.63a.14.14,0,0,0-.08,0h-.1s0,0-.07,0a.23.23,0,0,0-.07.07l0,.08v0l-.07.06A.29.29,0,0,0,54.5,7a.27.27,0,0,0,0,.2A.21.21,0,0,0,54.62,7.31ZM55,6.84V6.9h0S55,6.86,55,6.84Zm-.16.27h0Z"/><path class="cls-3" d="M57.06,9.73l.06,0h.07l.1,0,.08-.07a.26.26,0,0,0,.13-.1s0,0,0-.05v0h0s0,0,0-.05a.16.16,0,0,0,0-.07h0v0a.22.22,0,0,0,0-.08.16.16,0,0,0-.09-.05h-.1a.14.14,0,0,0-.08.05l0,0h0v0l0,.05v0l0,.07s0,.07,0,.1a.34.34,0,0,0,0,.1A.16.16,0,0,0,57.06,9.73Z"/><path class="cls-3" d="M53.49,10.77a.15.15,0,0,0,.09,0,.2.2,0,0,0,.18,0,.61.61,0,0,0,.12-.16.79.79,0,0,0,.24-.36.25.25,0,0,0,0-.15A.22.22,0,0,0,54,10a.18.18,0,0,0-.21.12H53.7a.44.44,0,0,0-.11.09l-.06,0a.39.39,0,0,0-.1.19.54.54,0,0,0,0,.22A.41.41,0,0,0,53.49,10.77Z"/><path class="cls-3" d="M47.13,7.89a.4.4,0,0,0-.16.24l-.06.26a.17.17,0,0,0,0,.14.17.17,0,0,0,.11.09.2.2,0,0,0,.13,0h0a.22.22,0,0,0,.19-.14,1.87,1.87,0,0,1,.07-.22.41.41,0,0,0,0-.29A.25.25,0,0,0,47.13,7.89Z"/><path class="cls-3" d="M42.42,9.62l0-.06v0l0-.08,0-.06a.15.15,0,0,0-.07,0,.18.18,0,0,0-.14,0A.14.14,0,0,0,42,9.5v0a.53.53,0,0,0-.08.15A.42.42,0,0,0,42,10a.19.19,0,0,0,.3,0s0,0,0,0l.05,0a.47.47,0,0,0,.07-.12v0a.17.17,0,0,0,0-.07.15.15,0,0,0,0-.07Z"/><path class="cls-3" d="M44.35,11.71a.22.22,0,0,0-.14-.14.17.17,0,0,0-.15,0H44a.19.19,0,0,0-.11.09.18.18,0,0,0,0,.14l.06.18a.13.13,0,0,0,0,.06l0,0h0a.2.2,0,0,0,0,.09l0,0,.07,0h.09a.27.27,0,0,0,.1-.08l.05-.12a.59.59,0,0,0,0-.13v-.08C44.36,11.79,44.36,11.75,44.35,11.71Z"/><path class="cls-3" d="M50.18,12.45l-.06,0,.15.15a.06.06,0,0,0,0,0A.18.18,0,0,0,50.18,12.45Z"/><path class="cls-3" d="M55,14.52v.05h0a.07.07,0,0,0,0,.05.16.16,0,0,0,.09.12.18.18,0,0,0,.16,0,.19.19,0,0,0,.1,0l0-.06.11-.14h0l0,0,0-.06a.11.11,0,0,0,0-.08h0a.07.07,0,0,0,0-.05l0-.06a.26.26,0,0,0-.09-.05h-.07a.08.08,0,0,0-.07,0l-.09.06,0,0-.06.09h0l0,0A.2.2,0,0,0,55,14.52Zm.24.22Zm-.07,0h0Zm0,0h0l0,0Z"/><path class="cls-3" d="M51.72,16.11h0v.08a.19.19,0,0,0,.28.12.52.52,0,0,0,.17-.19.4.4,0,0,0,.07-.24.19.19,0,0,0,0-.08.76.76,0,0,0,0-.15.2.2,0,0,0-.24-.13.19.19,0,0,0-.14.16l-.06.06,0,.12a.51.51,0,0,0,0,.13.25.25,0,0,0,0,.12Z"/><path class="cls-3" d="M46.57,14.39a.2.2,0,0,0-.21,0,.62.62,0,0,0-.14.23l0,.05a.22.22,0,0,0,0,.14v.06l.46-.48S46.59,14.4,46.57,14.39Z"/><path class="cls-3" d="M42.05,14.15,42,14.08a.18.18,0,0,0-.17-.06.25.25,0,0,0-.16.08s0,0,0,0h0a.25.25,0,0,0-.06.14.77.77,0,0,0,.21.57.2.2,0,0,0,.3,0,.65.65,0,0,0,0-.53Z"/><path class="cls-4" d="M49,3.35l1.78,1a10.07,10.07,0,0,0,5.4,2.16,8.54,8.54,0,0,0,1.43,0h.15c.32,0,.75-.09.84-.47s-.28-.69-.61-.86a1,1,0,0,0,.25-.15c.57-.45,0-1-.41-1.21a4.16,4.16,0,0,0-1.45-.42c.26-.12.52-.25.78-.4a.38.38,0,0,0-.09-.69,6.21,6.21,0,0,0-3.06.05c.53-.91,1-2.06.09-2.15A2.14,2.14,0,0,0,52.68,1a3.31,3.31,0,0,0-.66.92A20.13,20.13,0,0,0,50.52.11a.38.38,0,0,0-.65.27A5.83,5.83,0,0,0,50.13,2c-.82-.49-1.77-.81-2,.09a.85.85,0,0,0,0,.42A1.74,1.74,0,0,0,49,3.35Z"/><path class="cls-1" d="M61.38,40.37h0C61.43,40.44,61.4,40.39,61.38,40.37Z"/><path class="cls-1" d="M38.55,80.56a44.23,44.23,0,0,1,4.9-18A31.28,31.28,0,0,1,55.94,49.5a23.3,23.3,0,0,1,17.68-2.2,20.63,20.63,0,0,1,7.56,4.13,18,18,0,0,1,5,7.29c2.23,5.92,1.27,12.6-1.7,18.07A27.19,27.19,0,0,1,71.08,89.05a16.58,16.58,0,0,1-8.95,1,16.1,16.1,0,0,1-7.7-3.73,16.62,16.62,0,0,1-5-16.65,17.75,17.75,0,0,1,11.42-12,1.34,1.34,0,0,1,1.64.93,1.35,1.35,0,0,1-.93,1.63l-.87.33-.25.11-.41.19a15.58,15.58,0,0,0-1.64.92c-.28.18-.55.36-.82.56l-.22.16-.09.07-.08.06-.22.18A16.48,16.48,0,0,0,55.64,64c-.23.24-.46.49-.67.74s-.22.25-.32.38l-.1.13-.06.09a14.49,14.49,0,0,0-1,1.56c-.18.31-.34.62-.5.93-.06.13-.13.27-.18.4l-.11.23h0a15.42,15.42,0,0,0-.65,2c-.09.35-.17.71-.23,1.07,0,.14,0,.3-.07.45a3,3,0,0,0,0,.33,15,15,0,0,0-.08,2.12c0,.36,0,.72.07,1.08l0,.24a.61.61,0,0,1,0,.15l.06.4a18,18,0,0,0,.5,2c.11.35.24.69.37,1,0,0,.06.13.07.16l.06.14c.06.14.13.29.2.43a15,15,0,0,0,1,1.78l.33.46h0l.16.2c.19.24.39.46.59.68a16.55,16.55,0,0,0,1.43,1.35l.27.21.4.3c.24.17.5.34.75.5a15.12,15.12,0,0,0,1.78.94l.18.08.08,0,.47.18c.28.1.57.19.85.27s.65.18,1,.25l.5.09.35.06a12.89,12.89,0,0,0,1.86.1c.38,0,.77,0,1.14-.06l.48,0h.06l.24,0A15.9,15.9,0,0,0,69,87c.34-.11.68-.22,1-.35l.51-.19.08,0,.15-.06a22.61,22.61,0,0,0,3.71-2.11l.5-.36.25-.19c.26-.21.52-.41.77-.63.55-.45,1.07-.94,1.57-1.43s1-1,1.46-1.56c.26-.29.51-.59.75-.89l.26-.33.2-.27A26,26,0,0,0,82.45,75c.17-.32.33-.65.48-1,.08-.17.15-.34.22-.5v0h0c0-.09.08-.19.11-.28a19.57,19.57,0,0,0,.68-2c.21-.7.38-1.42.52-2.14,0-.2.07-.41.1-.61a.59.59,0,0,0,0-.13v0h0v0h0v0s0,0,0,0v0c0-.33.07-.66.1-1a20.88,20.88,0,0,0,0-2.24c0-.37,0-.74-.07-1.11,0-.16,0-.33-.05-.49a.2.2,0,0,1,0-.07l0-.19A20.61,20.61,0,0,0,84.13,61c-.1-.35-.21-.71-.33-1.06-.06-.15-.11-.3-.17-.46l-.09-.23L83.47,59c0-.05-.07-.18-.08-.19s-.07-.15-.1-.23l-.24-.5c-.16-.31-.33-.62-.5-.92s-.37-.6-.57-.9l-.25-.36-.17-.23-.07-.09-.1-.13-.18-.21c-.09-.12-.19-.23-.29-.34s-.43-.47-.65-.7a18,18,0,0,0-1.45-1.31l-.19-.15-.07-.05-.41-.3-.75-.5a19.31,19.31,0,0,0-1.72-1c-.3-.15-.6-.29-.91-.42l-.26-.11-.42-.17a19.7,19.7,0,0,0-1.94-.6c-.62-.16-1.25-.29-1.88-.39l-.26,0H70l-.45,0-1-.07a18,18,0,0,0-2.08,0l-1.16.09-.24,0h0l-.54.09a23,23,0,0,0-4.16,1.1l-1,.4-.06,0L59,51l-.51.23c-.65.31-1.29.65-1.91,1s-1.24.75-1.83,1.17c-.31.21-.6.43-.9.65l0,0s0,0,0,0l-.2.15-.38.31a30.66,30.66,0,0,0-3.06,3c-.24.28-.48.55-.71.83l-.35.43-.15.19-.08.1c0,.06-.14.18-.15.21l-.15.19c-.11.15-.21.3-.32.44l-.55.8a34,34,0,0,0-2.16,3.68c-.34.65-.65,1.31-1,2l-.12.29s0,0,0,.09a1.61,1.61,0,0,1-.09.21l-.09.22c-.12.3-.24.61-.35.91a42.68,42.68,0,0,0-2.27,8.61c0,.18,0,.37-.08.56,0,0,0,.18,0,.24a.46.46,0,0,0,0,.1c0,.36-.09.72-.13,1.07-.07.74-.13,1.49-.17,2.23a44,44,0,0,0,0,4.45c0,.74.08,1.48.16,2.22,0,.38.08.76.12,1.14l0,.25a.15.15,0,0,1,0,.06v0c0,.17,0,.34.08.5A44.52,44.52,0,0,0,42.49,94c.31,1.19.66,2.36,1.06,3.52a20.45,20.45,0,0,1,5.3-.2,50,50,0,0,1,6.42,1.17,52.64,52.64,0,0,0,6.36,1.15,27.53,27.53,0,0,0,5.88-.09,28.87,28.87,0,0,0,10.36-3.24,27.45,27.45,0,0,0,8.36-7,28,28,0,0,0,5-9.8,41.68,41.68,0,0,0,1.52-11.38,58.25,58.25,0,0,0-1.06-11.18,33.71,33.71,0,0,0-3.63-10,34.31,34.31,0,0,0-6.59-8.52,27.79,27.79,0,0,0-8.9-5.71,28.68,28.68,0,0,0-10-1.76,42.78,42.78,0,0,0-10.7,1.12,27.28,27.28,0,0,0-9.55,4.08A13,13,0,0,0,40,38.28l-.09.06a90.1,90.1,0,0,0-7.4,9.57,62,62,0,0,0-5.64,10.53,48.36,48.36,0,0,0-3.13,11.19,43.07,43.07,0,0,0-.37,9.89,31,31,0,0,0,2.31,9.71A19.82,19.82,0,0,0,31.46,97,8.46,8.46,0,0,0,34,98.44a8.08,8.08,0,0,0,2.72.35A21.42,21.42,0,0,0,40.93,98,45.93,45.93,0,0,1,38.55,80.56Zm25.6-24.37a11.35,11.35,0,0,1,6.91.82,16.54,16.54,0,0,1,5.25,3,9.36,9.36,0,0,1,2.07,10.47,13.92,13.92,0,0,1-7.91,7.78c-3.43,1.22-7.75.31-9.71-3A6.5,6.5,0,0,1,60,70.25a6.43,6.43,0,0,1,3.58-4,1.37,1.37,0,0,1,1.82.48,1.35,1.35,0,0,1-.47,1.83,7.25,7.25,0,0,0-1.09.61l-.05,0,0,0a3.82,3.82,0,0,0-1.06,4c1.61,4.82,8.25,2.43,10.76-.13a10.06,10.06,0,0,0,3-5.66c.47-3.86-2.21-6.14-5.31-7.76a9.25,9.25,0,0,0-6.24-1,1.37,1.37,0,0,1-1.64-.93A1.35,1.35,0,0,1,64.15,56.19Zm0,19L64,75.08h0ZM62.8,73.49h0Zm13-30.77c.9,1.25-.37,2.34-1.41,2.7A5.37,5.37,0,0,1,70,45a1.69,1.69,0,0,1-.7-1.84c.48-1.56,3.57-1.86,4.92-1.49A3,3,0,0,1,75.75,42.72Zm-8-7a.46.46,0,0,1,.55.31,18,18,0,0,0,.62,2.8c.2.66.6,1.52,1.4,1.59s1.35-.82,1.59-1.49a9.36,9.36,0,0,0,.57-2.77c0-.57.92-.57.89,0a10.36,10.36,0,0,1-.58,3,3.44,3.44,0,0,1-1.4,1.9,1.94,1.94,0,0,1-2.16-.12A3.63,3.63,0,0,1,68,38.83a19.14,19.14,0,0,1-.56-2.58A.47.47,0,0,1,67.78,35.7Zm-7,3.41a.46.46,0,0,1,.45.44,2.32,2.32,0,0,0,0,.59.61.61,0,0,0,.19.33.19.19,0,0,0,.13,0c.08,0,.13-.09.17-.15a1.94,1.94,0,0,0,.14-.51c0-.1,0-.2,0-.29a.45.45,0,0,1,.44-.45.46.46,0,0,1,.45.45,2.72,2.72,0,0,1-.2,1.05,1.27,1.27,0,0,1-.71.76,1,1,0,0,1-.89-.14,1.41,1.41,0,0,1-.58-.76,3.1,3.1,0,0,1-.1-.91A.44.44,0,0,1,60.79,39.11ZM49.33,36.44a10.71,10.71,0,0,0,.39,2.77c.2.63.62,1.56,1.44,1.42s1.22-1,1.44-1.72a11.2,11.2,0,0,0,.49-3c0-.57.91-.57.89,0a11.88,11.88,0,0,1-.51,3.19,3.66,3.66,0,0,1-1.31,2,1.91,1.91,0,0,1-2.19,0,3.66,3.66,0,0,1-1.22-2.12,13.68,13.68,0,0,1-.3-2.63C48.42,35.87,49.31,35.88,49.33,36.44Zm-2.18,7.32c.48-1.56,3.57-1.86,4.92-1.49a3,3,0,0,1,1.58,1c.9,1.25-.37,2.34-1.41,2.71a5.41,5.41,0,0,1-4.39-.39A1.69,1.69,0,0,1,47.15,43.76Z"/><path class="cls-5" d="M18.83,103.23l.43.14h0Z"/><path class="cls-5" d="M89.48,86.23a59,59,0,0,0,3.45-6.83,36.73,36.73,0,0,0,2-7.05c.15-.78.27-1.57.36-2.36,0-.52.09-1,.12-1.55a43.38,43.38,0,0,0-.54-9.72,43.72,43.72,0,0,0-3.77-11.25,59.67,59.67,0,0,0-15.54-19,.26.26,0,0,1-.1-.11c-.66-.44-1.32-.87-2-1.27l1.09.67q-.84-.12-1.71-.21a.37.37,0,0,1-.41.45,49.3,49.3,0,0,0-8.5-.23,51.23,51.23,0,0,0-14.69,3.06A50.33,50.33,0,0,0,36.13,38a.41.41,0,0,1-.19.09c-.37.31-.73.64-1.08,1a41.09,41.09,0,0,0-4.79,5.41,47.1,47.1,0,0,1,3.6-3.87c.42-.39,1,.24.63.63A42.81,42.81,0,0,0,28.55,48,45.74,45.74,0,0,0,22,62.2a44.33,44.33,0,0,0-1.34,15.55c0,.47-.53.55-.78.27.05.59.12,1.17.2,1.76s.18,1.22.29,1.83c0-.07,0-.13,0-.19,0-.58.86-.57.89,0a22.83,22.83,0,0,0,1.07,5.72A24.11,24.11,0,0,0,36,102a.49.49,0,0,1,.24.68c.56-.21,1.12-.44,1.66-.7a.42.42,0,0,1,.29-.58,12.84,12.84,0,0,0,3.44-1.6c-.1-.24-.19-.48-.28-.73s-.26-.7-.38-1.06a21.42,21.42,0,0,1-4.19.75A8.08,8.08,0,0,1,34,98.44,8.46,8.46,0,0,1,31.46,97a19.82,19.82,0,0,1-5.8-7.75,31,31,0,0,1-2.31-9.71,43.07,43.07,0,0,1,.37-9.89,48.36,48.36,0,0,1,3.13-11.19,62,62,0,0,1,5.64-10.53,90.1,90.1,0,0,1,7.4-9.57l.09-.06a13,13,0,0,1,2.36-2.14,27.28,27.28,0,0,1,9.55-4.08,42.78,42.78,0,0,1,10.7-1.12,28.68,28.68,0,0,1,10,1.76,27.79,27.79,0,0,1,8.9,5.71,34.31,34.31,0,0,1,6.59,8.52,33.71,33.71,0,0,1,3.63,10,58.25,58.25,0,0,1,1.06,11.18,41.68,41.68,0,0,1-1.52,11.38,28,28,0,0,1-5,9.8,27.45,27.45,0,0,1-8.36,7,28.87,28.87,0,0,1-10.36,3.24,27.53,27.53,0,0,1-5.88.09,52.64,52.64,0,0,1-6.36-1.15,50,50,0,0,0-6.42-1.17,20.45,20.45,0,0,0-5.3.2c.09.24.17.49.26.73s.27.72.41,1.07c.06.16.13.32.19.47l0,.07c.37.18.75.36,1.12.52a.45.45,0,0,1,.34,0,26,26,0,0,0,10.17,2.55,41.7,41.7,0,0,0,9.46-.64,44.39,44.39,0,0,0,9.34-2.62c5.51-2.27,10.5-6.1,13.25-11.48a.43.43,0,0,1,.79.08c.31-.45.62-.91.91-1.37A.46.46,0,0,1,89.48,86.23Z"/><path class="cls-5" d="M2.43,58.68c-.08.26-.15.53-.22.79.07-.26.14-.53.22-.79Z"/><path class="cls-5" d="M30.56,23.88h0c-1.08.48-2.14,1-3.19,1.54h0C28.42,24.86,29.48,24.35,30.56,23.88Z"/><path class="cls-5" d="M35.72,102.89l-.82.28h0l.82-.28Z"/><path class="cls-5" d="M66.44,23.57h0l-1.08-.42h0Z"/><path class="cls-5" d="M17.9,102.91l.78.27-.78-.28Z"/><path class="cls-5" d="M13.93,101.06c-.54-.31-1.07-.63-1.58-1,.51.34,1,.66,1.57,1Z"/><path class="cls-5" d="M73.48,27.05l-.16-.1h0Z"/><path class="cls-5" d="M9.83,98.21,9.58,98h0Z"/><path class="cls-6" d="M9.55,66.85a.49.49,0,0,0,0-.12c0-.24-.07-.47-.12-.71a6.05,6.05,0,0,0-.63-1.64,2,2,0,0,0-.8-.83c-.63-.29-1.14.27-1.44.76a10.12,10.12,0,0,0-.92,2.26c-.1.32-.19.64-.29,1A3.75,3.75,0,0,1,4.47,69a8.31,8.31,0,0,0-2,2.46,7.8,7.8,0,0,0,0,3.75.26.26,0,0,0,.09.18A34.47,34.47,0,0,0,5.57,87.7a28.47,28.47,0,0,0,4.19,6.47A20.91,20.91,0,0,0,16,99.35a35.38,35.38,0,0,0,8,2.59c.81.2,1.63.38,2.45.57a11.79,11.79,0,0,0,2.7.43,1.16,1.16,0,0,0,.79-.21.8.8,0,0,0,.19-.82,5.45,5.45,0,0,0-1.47-2.12c-.6-.65-1.24-1.26-1.8-2-.89-1.08-1.74-2.2-2.53-3.35a33.17,33.17,0,0,1-5.9-14.72,28.81,28.81,0,0,1,.22-8.24c.24-1.43.64-2.81,1-4.22A12,12,0,0,0,20,62.93c-.13-.9-.47-2.41-1.53-2.67s-1.52.81-1.75,1.54A9.54,9.54,0,0,0,16.36,64a23.83,23.83,0,0,0-.05,2.39c0,1.6.17,3.2.13,4.8-.06,2.44-.5,5.21-2.47,6.86a3.31,3.31,0,0,1-2.1.86,2.19,2.19,0,0,1-1.81-1.2,7.08,7.08,0,0,1-.76-3.59c0-1.38.16-2.74.27-4.11C9.54,69,9.53,67.9,9.55,66.85Z"/><path class="cls-7" d="M4.17,66.65a.77.77,0,0,0,.06-.15,7.32,7.32,0,0,0,.21-.9c0,.14-.06.27-.1.4S4.24,66.43,4.17,66.65Z"/><path class="cls-7" d="M15.25,62.4a22.33,22.33,0,0,0-.19,2.84,17.8,17.8,0,0,1,.15-1.78,23.91,23.91,0,0,1,.63-3.25,8.3,8.3,0,0,1,1-2.57,3.9,3.9,0,0,0-.46.63A10.54,10.54,0,0,0,15.25,62.4Z"/><path class="cls-7" d="M.26,71.1c.12-1.81.33-3.62.58-5.42.05-.36.1-.72.16-1.07A48.24,48.24,0,0,0,.28,79.34,51.52,51.52,0,0,1,.26,71.1Z"/><path class="cls-7" d="M21.83,55.8a12.06,12.06,0,0,1,.92-1.56A3.55,3.55,0,0,0,22,55.37Z"/><path class="cls-7" d="M2.41,58.78a.36.36,0,0,1,0-.1c-.08.26-.15.53-.22.79l-.06.2C2.23,59.37,2.32,59.08,2.41,58.78Z"/><path class="cls-7" d="M1.92,61.1c.07-.48.14-1,.23-1.43q-.31,1.15-.6,2.34c0,.16-.08.33-.11.5A11.7,11.7,0,0,1,1.92,61.1Z"/><path class="cls-7" d="M19.81,102.93c4.72,1,9.88,2.09,14.52.13a.46.46,0,0,1,.57.11l.82-.28a23.24,23.24,0,0,1-5.33-3,25.42,25.42,0,0,1-7.1-8.16,24.13,24.13,0,0,1-3-10.14c-.11-.61-.21-1.22-.29-1.83s-.15-1.17-.2-1.76a.47.47,0,0,1-.11-.27,43.67,43.67,0,0,1,.09-9A46.89,46.89,0,0,1,24.05,54c-.18.23-.36.45-.52.69a11.55,11.55,0,0,0-1.39,2.65,14.59,14.59,0,0,0-.42,1.43A2.84,2.84,0,0,1,21.13,60a1.29,1.29,0,0,1-2.05-.09,1.52,1.52,0,0,1,0-1.25c.11-.31.32-.71,0-1-.66-.58-1.42.13-1.73.71a12,12,0,0,0-.95,3.06A24.29,24.29,0,0,0,16,68.32c.15,2.15.37,4.43-.48,6.47a3.87,3.87,0,0,1-1.73,2,2.46,2.46,0,0,1-2.55-.29A4,4,0,0,1,9.84,74a23.7,23.7,0,0,1-.26-3.46c0-.18,0-.36,0-.54-.11,1.37-.28,2.73-.27,4.11a7.08,7.08,0,0,0,.76,3.59,2.19,2.19,0,0,0,1.81,1.2A3.31,3.31,0,0,0,14,78c2-1.65,2.41-4.42,2.47-6.86,0-1.6-.09-3.2-.13-4.8A23.83,23.83,0,0,1,16.36,64a9.54,9.54,0,0,1,.36-2.19c.23-.73.82-1.77,1.75-1.54S19.87,62,20,62.93a12,12,0,0,1-.37,4.38c-.33,1.41-.73,2.79-1,4.22a28.81,28.81,0,0,0-.22,8.24,33.17,33.17,0,0,0,5.9,14.72c.79,1.15,1.64,2.27,2.53,3.35.56.69,1.2,1.3,1.8,2a5.45,5.45,0,0,1,1.47,2.12.8.8,0,0,1-.19.82,1.16,1.16,0,0,1-.79.21,11.79,11.79,0,0,1-2.7-.43c-.82-.19-1.64-.37-2.45-.57a35.38,35.38,0,0,1-8-2.59,20.91,20.91,0,0,1-6.28-5.18A28.47,28.47,0,0,1,5.57,87.7,34.47,34.47,0,0,1,2.51,75.35a.26.26,0,0,1-.09-.18,7.8,7.8,0,0,1,0-3.75,8.31,8.31,0,0,1,2-2.46,3.75,3.75,0,0,0,.89-1.43c.1-.32.19-.64.29-1a10.12,10.12,0,0,1,.92-2.26c.3-.49.81-1.05,1.44-.76a2,2,0,0,1,.8.83A6.05,6.05,0,0,1,9.44,66c.05.24.09.47.12.71a11,11,0,0,0-.13-3.3,2.16,2.16,0,0,0-1.8-1.71,2,2,0,0,0-1.72,1.39c-.77,1.67-.28,4-1.8,5.27A1.35,1.35,0,0,1,2,68.16a2.78,2.78,0,0,1-.44-1.46c-.25,2-.44,3.93-.53,5.91-.31,6.63.48,13.53,3.8,19.4a24.2,24.2,0,0,0,4.72,6l.25.22a24.25,24.25,0,0,0,2.52,1.88c.51.34,1,.66,1.58,1a18,18,0,0,0,3.66,1.42.39.39,0,0,1,.31.42l.78.28.15,0,.43.13A.45.45,0,0,1,19.81,102.93Z"/><path class="cls-8" d="M40.64,33.33a5.83,5.83,0,0,0,2.74-2,3.26,3.26,0,0,0,.5-2.53c-.51-1.43-2.77-.7-3.77-.39s-1.71.58-2.57.89a7.34,7.34,0,0,1-1.93.51,9.7,9.7,0,0,1-4.4-.68c-1.19-.53-1.87-1.83-3.13-2.22a2.57,2.57,0,0,0-1.77.07,3.16,3.16,0,0,0-1.37,1.29.24.24,0,0,0,0,.18A30.55,30.55,0,0,0,19.86,33c-2.28,2.45-4.61,4.88-6.66,7.52a51.19,51.19,0,0,0-3,4.2c-1,1.55-1.85,3.18-2.71,4.8-.43.83-.86,1.66-1.28,2.49s-.84,1.63-1.2,2.48a15.64,15.64,0,0,0-1.54,4.78c0,.37-.08.93.24,1.2a.77.77,0,0,0,.88,0c.9-.48,1.57-1.3,2.49-1.77a2.32,2.32,0,0,1,2.6.1,4.86,4.86,0,0,1,1.4,2.47,11.14,11.14,0,0,1,.43,3.09c0,.75-.08,1.51-.1,2.26a9.66,9.66,0,0,0,.21,2.89c.17.61.63,1.32,1.37,1s.78-1.26.84-1.9a15.67,15.67,0,0,0,0-2.74,20.13,20.13,0,0,1,.19-4,20.33,20.33,0,0,1,1.4-5.49c.51-1.14,1.44-2.71,2.93-2.38a2.31,2.31,0,0,1,1.09.55c.2.2.32.63.62.7a.57.57,0,0,0,.46-.16,3.67,3.67,0,0,0,.72-.64,3.73,3.73,0,0,0,.4-.83,1.82,1.82,0,0,1,.63-.82c.27-.2.59-.32.87-.52a3.23,3.23,0,0,0,.72-.71,8.53,8.53,0,0,0,1.06-1.86c.29-.67.53-1.35.8-2a17,17,0,0,1,1-2.15c.44-.79.9-1.55,1.38-2.31a24.78,24.78,0,0,1,1.52-2.26,19.83,19.83,0,0,1,3.53-3.38,39,39,0,0,1,4.06-2.68A29.43,29.43,0,0,1,40.64,33.33ZM25.89,27.85a1.93,1.93,0,0,1,1-.54h0C26.57,27.47,26.23,27.66,25.89,27.85Z"/><path class="cls-9" d="M25.89,27.85c.34-.19.68-.38,1-.55h0A1.93,1.93,0,0,0,25.89,27.85Z"/><path class="cls-9" d="M47.41,27.42c.23,0,.45,0,.68,0l-.39-.07Z"/><path class="cls-9" d="M1.92,61.1l.15-.34.06-.43c.08-.52.18-1,.28-1.55-.09.3-.18.59-.26.89h0C2.06,60.14,2,60.62,1.92,61.1Z"/><path class="cls-9" d="M73,26.92l-6.41-2.83a.35.35,0,0,1-.18-.52l-1.08-.42a4.87,4.87,0,0,1-.2.92A5.07,5.07,0,0,1,62.7,27a50,50,0,0,1,9.78.14.47.47,0,0,1,.41.44q.87.09,1.71.21l-1.09-.67,0,0L73.32,27A.5.5,0,0,1,73,26.92Z"/><path class="cls-9" d="M35.68,37.26A49,49,0,0,1,43,32.64a51.9,51.9,0,0,1,13.35-4.77,5.5,5.5,0,0,1-.72-.23l-.09,0-.12-.05-.17-.08a5,5,0,0,1-1.81-1.39,3.41,3.41,0,0,1-.47.46l-.24.24a6.85,6.85,0,0,1-5.13,1.54,12,12,0,0,1-5.18-1.91,11.21,11.21,0,0,1-3.82,2,8.3,8.3,0,0,1-4.15.53,4.47,4.47,0,0,1-3-2,5.7,5.7,0,0,1-.88-3.06c-1.08.47-2.14,1-3.19,1.53a.4.4,0,0,1-.21.44c-.78.43-1.54.88-2.3,1.35A49,49,0,0,0,3,60.54a.44.44,0,0,1,0,.37.37.37,0,0,1-.05.11c-.08.58-.16,1.16-.22,1.74-.1.88-.16,1.77-.21,2.66a3.74,3.74,0,0,0,.26,2.22c.52.79,1.19-.41,1.42-1,.07-.22.12-.45.17-.65s.07-.26.1-.4c.11-.6.17-1.22.31-1.82.36-1.54,1.54-3.3,3.35-2.89A3,3,0,0,1,10,62.48a6.43,6.43,0,0,1,.47,3.16c-.07,2.34-.07,4.68.09,7a4.49,4.49,0,0,0,.93,2.91,1.6,1.6,0,0,0,2.23.24A4.14,4.14,0,0,0,15,73.34a12,12,0,0,0,.19-3.22c-.05-1.07-.16-2.14-.19-3.21,0-.55,0-1.11,0-1.67a22.33,22.33,0,0,1,.19-2.84,10.54,10.54,0,0,1,1.12-4.13,3.9,3.9,0,0,1,.46-.63l.06-.1A2,2,0,0,1,19,56.67a1.42,1.42,0,0,1,1.13,1.62,4.6,4.6,0,0,1-.22.72c0,.12-.16.38-.06.51s.54,0,.67-.18A4.32,4.32,0,0,0,21,57.92a13.67,13.67,0,0,1,.47-1.36c.11-.26.23-.51.35-.76l.15-.43a3.55,3.55,0,0,1,.77-1.13,12.08,12.08,0,0,1,2.13-2.39.4.4,0,0,1,.3-.11,45.6,45.6,0,0,1,4.89-7.25,41.09,41.09,0,0,1,4.79-5.41c.35-.33.71-.66,1.08-1C35.57,38.16,35.3,37.55,35.68,37.26Zm-2.48.29a19.83,19.83,0,0,0-3.53,3.38,24.78,24.78,0,0,0-1.52,2.26c-.48.76-.94,1.52-1.38,2.31a17,17,0,0,0-1,2.15c-.27.68-.51,1.36-.8,2a8.53,8.53,0,0,1-1.06,1.86,3.23,3.23,0,0,1-.72.71c-.28.2-.6.32-.87.52a1.82,1.82,0,0,0-.63.82,3.73,3.73,0,0,1-.4.83,3.67,3.67,0,0,1-.72.64.57.57,0,0,1-.46.16c-.3-.07-.42-.5-.62-.7A2.31,2.31,0,0,0,18.36,54c-1.49-.33-2.42,1.24-2.93,2.38A20.33,20.33,0,0,0,14,61.84a20.13,20.13,0,0,0-.19,4,15.67,15.67,0,0,1,0,2.74c-.06.64-.17,1.6-.84,1.9s-1.2-.38-1.37-1a9.66,9.66,0,0,1-.21-2.89c0-.75.11-1.51.1-2.26a11.14,11.14,0,0,0-.43-3.09,4.86,4.86,0,0,0-1.4-2.47,2.32,2.32,0,0,0-2.6-.1c-.92.47-1.59,1.29-2.49,1.77a.77.77,0,0,1-.88,0c-.32-.27-.27-.83-.24-1.2a15.64,15.64,0,0,1,1.54-4.78c.36-.85.79-1.66,1.2-2.48s.85-1.66,1.28-2.49c.86-1.62,1.73-3.25,2.71-4.8a51.19,51.19,0,0,1,3-4.2c2.05-2.64,4.38-5.07,6.66-7.52a30.55,30.55,0,0,1,5.06-4.58.24.24,0,0,1,0-.18A3.16,3.16,0,0,1,26.31,27a2.57,2.57,0,0,1,1.77-.07c1.26.39,1.94,1.69,3.13,2.22a9.7,9.7,0,0,0,4.4.68,7.34,7.34,0,0,0,1.93-.51c.86-.31,1.7-.63,2.57-.89s3.26-1,3.77.39a3.26,3.26,0,0,1-.5,2.53,5.83,5.83,0,0,1-2.74,2,29.43,29.43,0,0,0-3.38,1.54A39,39,0,0,0,33.2,37.55Z"/><path class="cls-10" d="M44.22,99.28c-.14-.35-.28-.71-.41-1.07s-.17-.49-.26-.73c-.4-1.16-.75-2.33-1.06-3.52a44.52,44.52,0,0,1-.89-4.43c0-.16-.05-.33-.08-.5v0a.15.15,0,0,0,0-.06l0-.25c0-.38-.09-.76-.12-1.14-.08-.74-.13-1.48-.16-2.22a44,44,0,0,1,0-4.45c0-.74.1-1.49.17-2.23,0-.35.08-.71.13-1.07a.46.46,0,0,1,0-.1c0-.06,0-.23,0-.24,0-.19.05-.38.08-.56a42.68,42.68,0,0,1,2.27-8.61c.11-.3.23-.61.35-.91l.09-.22a1.61,1.61,0,0,0,.09-.21s0-.08,0-.09l.12-.29c.3-.67.61-1.33,1-2a34,34,0,0,1,2.16-3.68l.55-.8c.11-.14.21-.29.32-.44l.15-.19s.11-.15.15-.21l.08-.1.15-.19.35-.43c.23-.28.47-.55.71-.83a30.66,30.66,0,0,1,3.06-3l.38-.31.2-.15s0,0,0,0l0,0c.3-.22.59-.44.9-.65q.89-.63,1.83-1.17c.62-.36,1.26-.7,1.91-1L59,51l.22-.1.06,0,1-.4a23,23,0,0,1,4.16-1.1l.54-.09h0l.24,0,1.16-.09a18,18,0,0,1,2.08,0l1,.07.45,0H70l.26,0c.63.1,1.26.23,1.88.39a19.7,19.7,0,0,1,1.94.6l.42.17.26.11c.31.13.61.27.91.42a19.31,19.31,0,0,1,1.72,1l.75.5.41.3.07.05.19.15a18,18,0,0,1,1.45,1.31c.22.23.44.46.65.7s.2.22.29.34l.18.21.1.13.07.09.17.23.25.36q.3.45.57.9c.17.3.34.61.5.92l.24.5c0,.08.07.15.1.23s.06.14.08.19l.07.17.09.23c.06.16.11.31.17.46.12.35.23.71.33,1.06a20.61,20.61,0,0,1,.46,2.18l0,.19a.2.2,0,0,0,0,.07c0,.16,0,.33.05.49,0,.37.06.74.07,1.11a20.88,20.88,0,0,1,0,2.24c0,.33-.06.66-.1,1v0s0,0,0,0v0h0v0h0v0a.59.59,0,0,1,0,.13c0,.2-.06.41-.1.61-.14.72-.31,1.44-.52,2.14a19.57,19.57,0,0,1-.68,2c0,.09-.07.19-.11.28h0v0c-.07.16-.14.33-.22.5-.15.33-.31.66-.48,1a26,26,0,0,1-2.26,3.61l-.2.27-.26.33c-.24.3-.49.6-.75.89-.46.54-1,1.06-1.46,1.56s-1,1-1.57,1.43c-.25.22-.51.42-.77.63l-.25.19-.5.36a22.61,22.61,0,0,1-3.71,2.11l-.15.06-.08,0-.51.19c-.34.13-.68.24-1,.35a15.9,15.9,0,0,1-2,.48l-.24,0h-.06l-.48,0c-.37,0-.76.06-1.14.06a12.89,12.89,0,0,1-1.86-.1l-.35-.06-.5-.09c-.33-.07-.65-.15-1-.25s-.57-.17-.85-.27L60,86.67l-.08,0-.18-.08A15.12,15.12,0,0,1,58,85.62c-.25-.16-.51-.33-.75-.5l-.4-.3-.27-.21a16.55,16.55,0,0,1-1.43-1.35c-.2-.22-.4-.44-.59-.68l-.16-.2h0L54,81.91a15,15,0,0,1-1-1.78c-.07-.14-.14-.29-.2-.43l-.06-.14s-.06-.12-.07-.16c-.13-.33-.26-.67-.37-1a18,18,0,0,1-.5-2l-.06-.4a.61.61,0,0,0,0-.15l0-.24c0-.36-.06-.72-.07-1.08a15,15,0,0,1,.08-2.12,3,3,0,0,1,0-.33c0-.15,0-.31.07-.45.06-.36.14-.72.23-1.07a15.42,15.42,0,0,1,.65-2h0l.11-.23c0-.13.12-.27.18-.4.16-.31.32-.62.5-.93a14.49,14.49,0,0,1,1-1.56l.06-.09.1-.13c.1-.13.21-.25.32-.38s.44-.5.67-.74A16.48,16.48,0,0,1,57,62.76l.22-.18.08-.06.09-.07.22-.16c.27-.2.54-.38.82-.56a15.58,15.58,0,0,1,1.64-.92l.41-.19.25-.11.87-.33a1.35,1.35,0,0,0,.93-1.63,1.34,1.34,0,0,0-1.64-.93,17.75,17.75,0,0,0-11.42,12,16.62,16.62,0,0,0,5,16.65A16.1,16.1,0,0,0,62.13,90a16.58,16.58,0,0,0,8.95-1A27.19,27.19,0,0,0,84.5,76.79c3-5.47,3.93-12.15,1.7-18.07a18,18,0,0,0-5-7.29,20.63,20.63,0,0,0-7.56-4.13,23.3,23.3,0,0,0-17.68,2.2A31.28,31.28,0,0,0,43.45,62.59a44.23,44.23,0,0,0-4.9,18A45.93,45.93,0,0,0,40.93,98c.12.36.25.71.38,1.06s.18.49.28.73a13.75,13.75,0,0,0,1.49-1.15c.42-.39,1.05.24.63.62l-.11.1c.27.14.56.29.84.42l0-.07C44.35,99.6,44.28,99.44,44.22,99.28Z"/><path class="cls-11" d="M64.13,75.14,64,75.08h0Z"/><polygon class="cls-11" points="62.8 73.49 62.8 73.48 62.8 73.48 62.8 73.49"/><path class="cls-10" d="M64.86,58.76a9.25,9.25,0,0,1,6.24,1c3.1,1.62,5.78,3.9,5.31,7.76a10.06,10.06,0,0,1-3,5.66c-2.51,2.56-9.15,5-10.76.13a3.82,3.82,0,0,1,1.06-4l0,0,.05,0a7.25,7.25,0,0,1,1.09-.61,1.35,1.35,0,0,0,.47-1.83,1.37,1.37,0,0,0-1.82-.48,6.43,6.43,0,0,0-3.58,4,6.5,6.5,0,0,0,.75,5.07c2,3.26,6.28,4.17,9.71,3a13.92,13.92,0,0,0,7.91-7.78A9.36,9.36,0,0,0,76.31,60a16.54,16.54,0,0,0-5.25-3,11.35,11.35,0,0,0-6.91-.82,1.35,1.35,0,0,0-.93,1.64A1.37,1.37,0,0,0,64.86,58.76Z"/><path class="cls-12" d="M37.35,12.42c-1.18,2.87-3.49,5-4.92,7.73-1.06,2-1.52,4.62,0,6.59,1.65,2.2,4.63,1.38,6.79.53a8.34,8.34,0,0,0,2.76-1.62.47.47,0,0,1,.23-.23,4,4,0,0,0,.94-3.32c-.35-2.73-2.35-4.88-2.87-7.56a.45.45,0,0,1,.23-.5c-.09-.18-.19-.37-.3-.55l-.06-.09a.35.35,0,0,1-.21-.29v0a3.53,3.53,0,0,0-2.24-1.5,1,1,0,0,0-1,.39C37,11.75,37.53,12,37.35,12.42Z"/><path class="cls-12" d="M51.63,16.37,51.54,16A7.07,7.07,0,0,0,52,17.65a8.62,8.62,0,0,0,.41.8l0-.05A9.14,9.14,0,0,1,51.63,16.37Z"/><path class="cls-12" d="M48,12.71a10.78,10.78,0,0,1-1.37,1.72l-.46.48a30.53,30.53,0,0,0-3.4,3.52A8.77,8.77,0,0,1,44,23.58a4.43,4.43,0,0,1-1,2.18,11,11,0,0,0,4.39,1.66l.29,0,.39.07h0a5.59,5.59,0,0,0,4.39-1.75,3.93,3.93,0,0,0,.72-4.21c-.65-1.48-1.85-2.64-2.31-4.22s-.27-3.55-1.71-4.48a.41.41,0,0,1-.19-.49A.88.88,0,0,0,48,12.71Z"/><path class="cls-12" d="M53.41,26.09l0,0a5.24,5.24,0,0,1-.44.5A3.41,3.41,0,0,0,53.41,26.09Z"/><path class="cls-12" d="M59.71,12.73c-.48,1.63-1.86,2.69-3.18,3.64s-2.89,2.09-3,3.83a.17.17,0,0,1,0,.07,5.65,5.65,0,0,1,.81,1.92,4.78,4.78,0,0,1-.51,3.1.32.32,0,0,1,.12.11,5.12,5.12,0,0,0,4,1.8c2.68.09,6.2-1.13,6.54-4.19a10.49,10.49,0,0,0-.89-4.83A14.25,14.25,0,0,0,61.08,14a.47.47,0,0,1,.15-.73l-.45-.8a.93.93,0,0,0-1.29-.28A.4.4,0,0,1,59.71,12.73Z"/><path class="cls-12" d="M55.22,27.48l.17.08Z"/><path class="cls-12" d="M55.51,27.61l.09,0Z"/><path class="cls-13" d="M50,41.19a1.91,1.91,0,0,0,2.19,0,3.66,3.66,0,0,0,1.31-2A11.88,11.88,0,0,0,54,35.92c0-.57-.87-.57-.89,0a11.2,11.2,0,0,1-.49,3c-.22.72-.61,1.57-1.44,1.72s-1.24-.79-1.44-1.42a10.71,10.71,0,0,1-.39-2.77c0-.56-.91-.57-.88,0a13.68,13.68,0,0,0,.3,2.63A3.66,3.66,0,0,0,50,41.19Z"/><path class="cls-13" d="M68,38.83a3.63,3.63,0,0,0,1.23,2.06,1.94,1.94,0,0,0,2.16.12,3.44,3.44,0,0,0,1.4-1.9,10.36,10.36,0,0,0,.58-3c0-.57-.86-.57-.89,0a9.36,9.36,0,0,1-.57,2.77c-.24.67-.76,1.56-1.59,1.49s-1.2-.93-1.4-1.59a18,18,0,0,1-.62-2.8.46.46,0,0,0-.55-.31.47.47,0,0,0-.31.55A19.14,19.14,0,0,0,68,38.83Z"/><path class="cls-13" d="M61,41.22a1,1,0,0,0,.89.14,1.27,1.27,0,0,0,.71-.76,2.72,2.72,0,0,0,.2-1.05.46.46,0,0,0-.45-.45.45.45,0,0,0-.44.45c0,.09,0,.19,0,.29a1.94,1.94,0,0,1-.14.51c0,.06-.09.14-.17.15a.19.19,0,0,1-.13,0,.61.61,0,0,1-.19-.33,2.32,2.32,0,0,1,0-.59.46.46,0,0,0-.45-.44.44.44,0,0,0-.44.44,3.1,3.1,0,0,0,.1.91A1.41,1.41,0,0,0,61,41.22Zm.36-.85h0S61.43,40.44,61.39,40.37Z"/><path class="cls-14" d="M47.85,45.6a5.41,5.41,0,0,0,4.39.39c1-.37,2.31-1.46,1.41-2.71a3,3,0,0,0-1.58-1c-1.35-.37-4.44-.07-4.92,1.49A1.69,1.69,0,0,0,47.85,45.6Z"/><path class="cls-14" d="M69.25,43.2A1.69,1.69,0,0,0,70,45a5.37,5.37,0,0,0,4.39.38c1-.36,2.31-1.45,1.41-2.7a3,3,0,0,0-1.58-1C72.82,41.34,69.73,41.64,69.25,43.2Z"/><path class="cls-15" d="M17.59,102.48a18,18,0,0,1-3.66-1.42h0A19.57,19.57,0,0,1,9.58,98h0a24.2,24.2,0,0,1-4.72-6C1.54,86.14.75,79.24,1.06,72.61c.09-2,.28-4,.53-5.91A2.78,2.78,0,0,0,2,68.16a1.35,1.35,0,0,0,2.08.22c1.52-1.32,1-3.6,1.8-5.27a2,2,0,0,1,1.72-1.39,2.16,2.16,0,0,1,1.8,1.71,11,11,0,0,1,.13,3.3.49.49,0,0,1,0,.12c0,1.05,0,2.1,0,3.15,0,.18,0,.36,0,.54A23.7,23.7,0,0,0,9.84,74a4,4,0,0,0,1.4,2.52,2.46,2.46,0,0,0,2.55.29,3.87,3.87,0,0,0,1.73-2c.85-2,.63-4.32.48-6.47a24.29,24.29,0,0,1,.45-6.86,12,12,0,0,1,.95-3.06c.31-.58,1.07-1.29,1.73-.71.3.27.09.67,0,1a1.52,1.52,0,0,0,0,1.25,1.29,1.29,0,0,0,2.05.09,2.84,2.84,0,0,0,.59-1.28,14.59,14.59,0,0,1,.42-1.43,11.55,11.55,0,0,1,1.39-2.65c.16-.24.34-.46.52-.69a46.89,46.89,0,0,0-4.23,14.79,43.67,43.67,0,0,0-.09,9,.47.47,0,0,0,.11.27c.25.28.82.2.78-.27A44.33,44.33,0,0,1,22,62.2,45.74,45.74,0,0,1,28.55,48a42.81,42.81,0,0,1,5.75-6.71c.42-.39-.21-1-.63-.63a47.1,47.1,0,0,0-3.6,3.87,45.6,45.6,0,0,0-4.89,7.25.4.4,0,0,0-.3.11,12.87,12.87,0,0,0-3.05,3.95c-.12.25-.24.5-.35.76A13.67,13.67,0,0,0,21,57.92a4.32,4.32,0,0,1-.47,1.42c-.13.16-.49.39-.67.18s0-.39.06-.51a4.6,4.6,0,0,0,.22-.72A1.42,1.42,0,0,0,19,56.67a2,2,0,0,0-2.13.87l-.06.1a8.3,8.3,0,0,0-1,2.57,23.91,23.91,0,0,0-.63,3.25,17.8,17.8,0,0,0-.15,1.78c0,.56,0,1.12,0,1.67,0,1.07.14,2.14.19,3.21A12,12,0,0,1,15,73.34a4.14,4.14,0,0,1-1.31,2.46,1.6,1.6,0,0,1-2.23-.24,4.49,4.49,0,0,1-.93-2.91c-.16-2.33-.16-4.67-.09-7A6.43,6.43,0,0,0,10,62.48,3,3,0,0,0,8.1,60.89c-1.81-.41-3,1.35-3.35,2.89-.14.6-.2,1.22-.31,1.82a7.32,7.32,0,0,1-.21.9.77.77,0,0,1-.06.15c-.23.58-.9,1.78-1.42,1a3.74,3.74,0,0,1-.26-2.22c0-.89.11-1.78.21-2.66.06-.58.14-1.16.22-1.74A.37.37,0,0,0,3,60.91a.44.44,0,0,0,0-.37A49,49,0,0,1,24.86,27.2c.76-.47,1.52-.92,2.3-1.35a.4.4,0,0,0,.21-.44h0a.45.45,0,0,0-.66-.33,47.33,47.33,0,0,0-9,6.47,50,50,0,0,0-7.29,8.35,50.62,50.62,0,0,0-5.29,9.76,48,48,0,0,0-2.7,9h0a.36.36,0,0,0,0,.1c-.1.51-.2,1-.28,1.55l-.06.43-.15.34a11.7,11.7,0,0,0-.48,1.41A18.64,18.64,0,0,0,1,64.61c-.06.35-.11.71-.16,1.07C.59,67.48.38,69.29.26,71.1a51.52,51.52,0,0,0,0,8.24Q.4,80.72.61,82.1A28.16,28.16,0,0,0,8.87,98.56a19.94,19.94,0,0,0,8.48,4.77.43.43,0,0,0,.55-.42h0A.39.39,0,0,0,17.59,102.48Z"/><path class="cls-15" d="M36,102A24.11,24.11,0,0,1,22.27,87.14a22.83,22.83,0,0,1-1.07-5.72c0-.57-.92-.58-.89,0,0,.06,0,.12,0,.19a24.13,24.13,0,0,0,3,10.14,25.42,25.42,0,0,0,7.1,8.16,23.24,23.24,0,0,0,5.33,3h0a.35.35,0,0,0,.48-.18A.49.49,0,0,0,36,102Z"/><path class="cls-15" d="M31.44,26.94a4.47,4.47,0,0,0,3,2,8.3,8.3,0,0,0,4.15-.53,11.21,11.21,0,0,0,3.82-2,12,12,0,0,0,5.18,1.91,6.85,6.85,0,0,0,5.13-1.54l.24-.24a5.24,5.24,0,0,0,.44-.5l0,0a5,5,0,0,0,1.81,1.39l.17.08.12.05.09,0a5.5,5.5,0,0,0,.72.23A51.9,51.9,0,0,0,43,32.64a49,49,0,0,0-7.29,4.62c-.38.29-.11.9.26.85a.41.41,0,0,0,.19-.09,50.33,50.33,0,0,1,13.16-7.21A51.23,51.23,0,0,1,64,27.75a49.3,49.3,0,0,1,8.5.23.37.37,0,0,0,.41-.45.47.47,0,0,0-.41-.44A50,50,0,0,0,62.7,27a5.07,5.07,0,0,0,2.46-2.88,4.87,4.87,0,0,0,.2-.92h0a10.58,10.58,0,0,0-.65-4.5,15.55,15.55,0,0,0-3-5.24.37.37,0,0,0-.48-.1.47.47,0,0,0-.15.73,14.25,14.25,0,0,1,2.51,4.14A10.49,10.49,0,0,1,64.48,23c-.34,3.06-3.86,4.28-6.54,4.19a5.12,5.12,0,0,1-4-1.8.32.32,0,0,0-.12-.11,4.78,4.78,0,0,0,.51-3.1,5.65,5.65,0,0,0-.81-1.92.17.17,0,0,0,0-.07c.07-1.74,1.68-2.9,3-3.83s2.7-2,3.18-3.64a.4.4,0,0,0-.22-.5.44.44,0,0,0-.64.26,4.42,4.42,0,0,1-1.4,2,27.41,27.41,0,0,0,1.41-3.26A4.75,4.75,0,0,0,58.5,7a.46.46,0,0,0-.6-.14.38.38,0,0,0-.16.59,4.08,4.08,0,0,1,.17,3.84c-.53,1.46-1.28,2.86-1.93,4.27a.28.28,0,0,0,0,.15l-.49.35a6.84,6.84,0,0,0-2.59,3.13c-.16-.24-.32-.49-.47-.74a8.62,8.62,0,0,1-.41-.8A7.07,7.07,0,0,1,51.54,16a13.48,13.48,0,0,0-.33-1.68,4.39,4.39,0,0,0-.94-1.77l-.15-.15a3.14,3.14,0,0,0-.48-.39.44.44,0,0,0-.44.77c1.44.93,1.29,3,1.71,4.48s1.66,2.74,2.31,4.22a3.93,3.93,0,0,1-.72,4.21,5.59,5.59,0,0,1-4.39,1.75h0c-.23,0-.45,0-.68,0A11,11,0,0,1,43,25.76a4.43,4.43,0,0,0,1-2.18,8.77,8.77,0,0,0-1.23-5.15,17.46,17.46,0,0,1-1.67-4.13.4.4,0,0,0-.62-.26.45.45,0,0,0-.23.5c.52,2.68,2.52,4.83,2.87,7.56a4,4,0,0,1-.94,3.32.47.47,0,0,0-.23.23,8.34,8.34,0,0,1-2.76,1.62c-2.16.85-5.14,1.67-6.79-.53-1.47-2-1-4.56,0-6.59,1.43-2.72,3.74-4.86,4.92-7.73.18-.44-.37-.67-.69-.44a.36.36,0,0,0-.16.2C35.36,15,33.09,17,31.7,19.65a9,9,0,0,0-1.14,4.22h0A5.7,5.7,0,0,0,31.44,26.94Z"/><path class="cls-15" d="M34.33,103.06c-4.64,2-9.8.91-14.52-.13a.45.45,0,0,0-.55.43h0a.39.39,0,0,0,.31.42c5,1.1,10.32,2.11,15.21,0a.46.46,0,0,0,.16-.61l0,0h0A.46.46,0,0,0,34.33,103.06Z"/><path class="cls-15" d="M43.08,98.68a13.75,13.75,0,0,1-1.49,1.15,12.84,12.84,0,0,1-3.44,1.6.42.42,0,0,0-.29.58.41.41,0,0,0,.52.27A13.34,13.34,0,0,0,43.6,99.4l.11-.1C44.13,98.92,43.5,98.29,43.08,98.68Z"/><path class="cls-15" d="M88.12,88.18c-2.75,5.38-7.74,9.21-13.25,11.48a44.39,44.39,0,0,1-9.34,2.62,41.7,41.7,0,0,1-9.46.64,26,26,0,0,1-10.17-2.55.45.45,0,0,0-.34,0,.44.44,0,0,0-.11.8c5.86,2.92,12.61,3.16,19,2.21s12.89-3,18-7.07a23.37,23.37,0,0,0,6.4-7.65.44.44,0,0,0,0-.37A.43.43,0,0,0,88.12,88.18Z"/><path class="cls-15" d="M96.18,61A47.31,47.31,0,0,0,86.05,37.82a66.67,66.67,0,0,0-9.81-10c-.39-.33-.94.14-.73.51a.26.26,0,0,0,.1.11,59.67,59.67,0,0,1,15.54,19,43.72,43.72,0,0,1,3.77,11.25A37.67,37.67,0,0,1,95.34,70c-.09.79-.21,1.58-.36,2.36a36.73,36.73,0,0,1-2,7.05,59,59,0,0,1-3.45,6.83.46.46,0,0,0,.34.66.41.41,0,0,0,.43-.21,67,67,0,0,0,3.21-6.25A37.58,37.58,0,0,0,96.18,61Z"/><path class="cls-15" d="M66.62,24.09,73,26.92a.5.5,0,0,0,.29,0h0c.37-.08.58-.61.16-.79l-6.41-2.83a.48.48,0,0,0-.63.24h0A.35.35,0,0,0,66.62,24.09Z"/><path class="cls-15" d="M40.1,13.4l.07,0a.5.5,0,0,0,.58-.55A9.63,9.63,0,0,1,42.1,6.18a6.72,6.72,0,0,1,5.15-3,.45.45,0,0,0,.39-.64.36.36,0,0,0-.39-.25A7.67,7.67,0,0,0,41.4,5.64a10.53,10.53,0,0,0-1.51,7.45v0A.35.35,0,0,0,40.1,13.4Z"/></g></g></svg>