<svg xmlns="http://www.w3.org/2000/svg" viewBox="0 0 77.97 66.72"><defs><style>.cls-1{fill:#e7e9f6;}.cls-2{fill:#d0d5ec;}.cls-3{fill:#f7e2a8;}.cls-4{fill:#f0cd7a;}.cls-5{fill:#f4f3f3;}.cls-6{fill:#d69726;}.cls-7{fill:#5e70b0;}.cls-8{fill:#e9c2da;}.cls-9{fill:#dfa5c6;}.cls-10{fill:#d06968;}.cls-11{fill:#9aabd7;}.cls-12{fill:#e3afb1;}</style></defs><g id="Capa_2" data-name="Capa 2"><g id="Capa_3" data-name="Capa 3"><path class="cls-1" d="M77.89,34.23a.46.46,0,0,0-.47-.7v-.06a.63.63,0,0,0,0-.19v-.05l0-.06a.22.22,0,0,0,0-.08s0,0,0,0L77.18,33h0c-.11-.1-.22-.2-.32-.31a.49.49,0,0,0,.29-.81q-3.75-3.92-7.63-7.72t-7.83-7.44q-4-3.68-8.1-7.22T45.29,2.55C44,1.49,42.63.35,40.9.1A13.22,13.22,0,0,0,38.16,0c-.95,0-1.88.15-2.82.29Q34.65.44,34,.57a.41.41,0,0,0-.33.54l-1.82.39a.49.49,0,0,0-.58-.29A49.86,49.86,0,0,0,17.61,5.85,50.37,50.37,0,0,0,5.84,14.14C4.86,15.07,3.9,16,3,17.05A12.3,12.3,0,0,0,.73,20.72a.45.45,0,0,0,0,.28.67.67,0,0,0-.1.19c-.05.19-.09.38-.13.58a.47.47,0,0,0-.48.46,20,20,0,0,0,.69,6.58c0,.09,0,.17,0,.25h0c0,.27,0,.53,0,.79l.12,2h0a.48.48,0,0,0-.48.48q.66,6.57,1.36,13.14c.31,3,.64,6,1,9,.06.52.11,1,.16,1.56L3,57.12H3c.16,1.49.33,3,.5,4.47a.52.52,0,0,0,.08.69l.06.53L4,66a.49.49,0,0,0,.48.48h0a.52.52,0,0,0,.46.2l3.3-.06a.46.46,0,0,0,.32.11q9.28,0,18.57-.12t18.57-.35c3.47-.1,6.93-.22,10.4-.38a.45.45,0,0,0,.42-.3l1.13,0a.39.39,0,0,0,.43.28c4.57-.28,9.13-.51,13.7-.66q1.94-.07,3.87-.12a.49.49,0,0,0,.36-.8,1.13,1.13,0,0,0,0-.18c0-.83,0-1.65,0-2.48h0v-.12a.87.87,0,0,0,0-.19q.59-9.48,1-19c.09-1.81.17-3.61.26-5.41a.41.41,0,0,0-.25-.42c0-.51,0-1,.07-1.53C77.54,34.71,77.72,34.47,77.89,34.23Z"/><path class="cls-1" d="M30.57,10.32c-.06,0,0,0,0,0Z"/><path class="cls-1" d="M12.66,13.48a18.1,18.1,0,0,0-2.33,1.86,3.07,3.07,0,0,0-1.08,2.19c.08.73.86,1,1.47,1.14A66.33,66.33,0,0,0,18,19.87c2.59.31,5.18.56,7.77.87s5.26.75,7.89,1.19,5.3.9,7.94,1.39q7.92,1.45,15.77,3.18a35.29,35.29,0,0,1,3.69.86c1.09.35,2.12.84,3.18,1.25a8.83,8.83,0,0,0,3.24.72c.62,0,1.67-.06,1.9-.8s-.29-1.21-.62-1.65a20.59,20.59,0,0,0-1.53-1.7c-1.75-1.74-3.77-3.19-5.65-4.79s-3.9-3.45-5.87-5.15-4-3.41-6-5.08-4-3.37-6.11-4.95c-1.46-1.1-2.88-2.46-4.71-2.89a11,11,0,0,0-3.34-.08C30.73,2.65,26,4.75,21.79,7.06,18.46,8.89,15.7,11.26,12.66,13.48ZM38.8,6.07a1.41,1.41,0,0,1,1.69.68,1.7,1.7,0,0,1-.12,1.53,4.28,4.28,0,0,1-4.09,2,1.39,1.39,0,0,1-1-.76,1.66,1.66,0,0,1,.37-1.61A5.51,5.51,0,0,1,38.8,6.07ZM31,5.16a8.42,8.42,0,0,0,1.65,1.56,2.35,2.35,0,0,0,1.89.63c1.6-.44,0-2.82-.62-3.49-.27-.3.18-.75.46-.45a6.49,6.49,0,0,1,1.25,2,2,2,0,0,1-.06,2A1.74,1.74,0,0,1,33.94,8a4,4,0,0,1-1.88-.93,8.82,8.82,0,0,1-1.52-1.47C30.28,5.29,30.73,4.84,31,5.16Zm-1.45,4.92c.19-.12.37,0,.47.18l0,0a.41.41,0,0,0,.32.17.36.36,0,0,0,.38-.36.51.51,0,0,0-.14-.34l0,0a.5.5,0,0,1-.13-.19.32.32,0,0,1,.22-.39.33.33,0,0,1,.24,0,1.14,1.14,0,0,1,.3.32,1.29,1.29,0,0,1,.12.38,1.06,1.06,0,0,1-.13.68,1,1,0,0,1-.56.44,1.08,1.08,0,0,1-1.21-.47A.33.33,0,0,1,29.54,10.08ZM28.8,14a1.7,1.7,0,0,1-.12,1.53,4.31,4.31,0,0,1-4.09,2,1.45,1.45,0,0,1-1-.77,1.65,1.65,0,0,1,.37-1.6,5.53,5.53,0,0,1,3.11-1.83A1.41,1.41,0,0,1,28.8,14Zm-6.64-2.44a4.49,4.49,0,0,0,1.68,1,2.13,2.13,0,0,0,1.68.05c.55-.3.45-1,.18-1.48a6.28,6.28,0,0,0-1.49-1.51.32.32,0,0,1,.45-.45,6.69,6.69,0,0,1,1.59,1.64,1.91,1.91,0,0,1,.17,1.72,1.58,1.58,0,0,1-1.38.86,3.82,3.82,0,0,1-1.73-.36A5,5,0,0,1,21.71,12C21.41,11.74,21.86,11.29,22.16,11.57Z"/><path class="cls-1" d="M30.66,10.19c0,.06,0,0,0,0Z"/><path class="cls-2" d="M31.49,2.13a49.19,49.19,0,0,0-7.66,2.06,50.09,50.09,0,0,0-12.4,6.55,48.9,48.9,0,0,0-5.35,4.49c-.87.85-1.72,1.72-2.51,2.64a10.76,10.76,0,0,0-1.82,2.89l.59.06a.39.39,0,0,1,.45-.36l1.75.16c4.7.44,9.39.88,14.07,1.41s9.3,1.12,13.92,1.87,9.31,1.72,13.94,2.72,9.22,1.88,13.86,2.66,9.34,1.45,14,2a.49.49,0,0,1,.48.48.48.48,0,0,1-.48.48l-.27,0,2.88.68a.68.68,0,0,1,.21.1h0c-.11-.1-.22-.2-.32-.31a.41.41,0,0,1-.39-.13l-.94-1q-1.15-1.2-2.34-2.4c-3.51-3.41-7-6.84-10.52-10.24l-.41-.39-2-1.86q-3.93-3.6-8-7.06T44.08,2.8a11.32,11.32,0,0,0-2-1.35A5.45,5.45,0,0,0,39.69,1a27.29,27.29,0,0,0-5.48.53.5.5,0,0,1-.58-.38l-1.82.39s0,0,0,0A.48.48,0,0,1,31.49,2.13Zm4.07.11a11,11,0,0,1,3.34.08c1.83.43,3.25,1.79,4.71,2.89,2.09,1.58,4.09,3.28,6.11,5s4,3.36,6,5.08,3.89,3.46,5.87,5.15,3.9,3.05,5.65,4.79a20.59,20.59,0,0,1,1.53,1.7c.33.44.8,1.06.62,1.65s-1.28.79-1.9.8a8.83,8.83,0,0,1-3.24-.72c-1.06-.41-2.09-.9-3.18-1.25a35.29,35.29,0,0,0-3.69-.86q-7.86-1.72-15.77-3.18-4-.74-7.94-1.39c-2.63-.44-5.25-.87-7.89-1.19s-5.18-.56-7.77-.87a66.33,66.33,0,0,1-7.29-1.2c-.61-.15-1.39-.41-1.47-1.14a3.07,3.07,0,0,1,1.08-2.19,18.1,18.1,0,0,1,2.33-1.86c3-2.22,5.8-4.59,9.13-6.42C26,4.75,30.73,2.65,35.56,2.24Z"/><path class="cls-2" d="M24.79,23.73c2.85.46,5.7.93,8.55,1.36l3.16.47c-1.89-.35-3.78-.68-5.68-1S26.8,24,24.79,23.73Z"/><path class="cls-3" d="M10.11,57.09l1.16,0h0l-1.16,0Z"/><path class="cls-3" d="M33.68,57.38c-.2-.72-.7-1.49-1.53-1.5s-1.08.85-1.19,1.51c0,.09,0,.18,0,.28l2.89.07h0A2.37,2.37,0,0,0,33.68,57.38Z"/><path class="cls-3" d="M60.28,62.55a.46.46,0,0,1-.46.5c-4.1,0-8.19,0-12.28,0q-10.89,0-21.78-.2-8.11-.12-16.23-.34a6.68,6.68,0,0,0,2.59,1.12,43.85,43.85,0,0,0,6.67.8c4.6.25,9.19-.06,13.79-.16,4.75-.1,9.49-.15,14.24-.21s9.43-.2,14.15-.23c2.37,0,4.74,0,7.11-.15,1.6-.09,3.37-.12,4.69-1.16a4.31,4.31,0,0,0,.76-.78c-2.34.17-4.68.38-7,.51Q63.4,62.46,60.28,62.55Z"/><path class="cls-3" d="M10.33,34.93a7.49,7.49,0,0,0,.86-.41,7.74,7.74,0,0,1-2.36.75A5,5,0,0,0,10.33,34.93Z"/><path class="cls-3" d="M9.67,36.13a6.53,6.53,0,0,1-5.74-2l-.09-.09c.07,1.18.16,2.36.26,3.54.08,1,.18,2,.29,3.06a27.68,27.68,0,0,0,3,.67c2,.17,3.95.45,5.92.71,6.44.65,12.89,1.29,19.34,1.81,6.78.56,13.56,1,20.35,1.19a.44.44,0,0,1,.34.15l2,0A.43.43,0,0,1,55.8,45c1.34,0,2.67,0,4,0a130.77,130.77,0,0,0,14-1c.25,0,.47.25.47.48a.77.77,0,0,1,0,.15l.27,0c0-.88,0-1.77,0-2.66,0-1.14-.06-2.28-.13-3.42a.24.24,0,0,0-.36-.21,12.28,12.28,0,0,1-6.35,2.22A11.92,11.92,0,0,1,60.6,38.4a18.15,18.15,0,0,1-3.09-2.72.23.23,0,0,0-.29,0,21.86,21.86,0,0,1-8.29,3.12,22.23,22.23,0,0,1-2.6.29,9.34,9.34,0,0,1-.57,1.61A2.57,2.57,0,0,1,44.61,42a1.45,1.45,0,0,1-1.68-.25,3,3,0,0,1-.7-1.45A8.49,8.49,0,0,1,42,38.47,7,7,0,0,1,41,38a16.48,16.48,0,0,1-3.3-2.65.25.25,0,0,0-.38,0,4.94,4.94,0,0,1-3.12,2.31v0a9.23,9.23,0,0,1-.47,2,2.8,2.8,0,0,1-1,1.45,1.5,1.5,0,0,1-1.66.07,2.24,2.24,0,0,1-.9-1.49,9,9,0,0,1-.2-1.38,19.5,19.5,0,0,1-4.65-.3,10.54,10.54,0,0,1-3.5-1.36,22.36,22.36,0,0,1-3.79-3.22c-.85-.83-2.16-.68-3.27-.59a17.79,17.79,0,0,1-2.23,1.83A8.17,8.17,0,0,1,9.67,36.13Zm34.6,6.81a1,1,0,0,1,.7-.76,3.46,3.46,0,0,1,2.27,0,.92.92,0,0,1,.71.91,1.1,1.1,0,0,1-.56.79,2.69,2.69,0,0,1-2.85-.22A.86.86,0,0,1,44.27,42.94ZM37.45,40.6c.35,0,.31.42.39.64a.29.29,0,0,0,.47.09.68.68,0,0,0,.19-.45.31.31,0,0,1,.39-.22.32.32,0,0,1,.22.39,1.46,1.46,0,0,1-.15.49,1,1,0,0,1-1.13.48,1.09,1.09,0,0,1-.69-1.1A.31.31,0,0,1,37.45,40.6Zm-9.34,1.46a1,1,0,0,1,.68-.73,3.33,3.33,0,0,1,2.16,0c.42.16.71.43.67.86a1,1,0,0,1-.53.76,2.57,2.57,0,0,1-2.71-.21A.84.84,0,0,1,28.11,42.06Z"/><path class="cls-3" d="M62.14,57.36a1.31,1.31,0,0,0-.25.32L64,57.61l-.11-.12A1.17,1.17,0,0,0,62.14,57.36Z"/><path class="cls-3" d="M31.51,40.39a.62.62,0,0,0,.29.15.82.82,0,0,0,.67-.33,2.14,2.14,0,0,0,.2-.32,3,3,0,0,0,.14-.33A7.89,7.89,0,0,0,33.22,38c-.38.09-.76.16-1.12.21s-.75.1-1.12.14a5.79,5.79,0,0,0,.24,1.48A1.4,1.4,0,0,0,31.51,40.39Z"/><path class="cls-3" d="M74.92,53.45c0-.49-.06-1-.09-1.49-2.13,0-4.26,0-6.38.07q-8,.15-15.94,0a.45.45,0,0,1-.44.59Q46.9,52.33,41.72,52q-9.24-.55-18.46-1.35-8.93-.77-17.84-1.74c.12.82.24,1.63.37,2.45.3,1.89.6,3.79,1,5.67h.66c.87,0,1.74,0,2.61.06a9.34,9.34,0,0,1,.85-2.22A7.36,7.36,0,0,1,14,51.76a6.52,6.52,0,0,1,4.16-.62,5.68,5.68,0,0,1,3.57,2.49,10.45,10.45,0,0,1,1.48,3.85l4.45.11H27.3a7.41,7.41,0,0,1,1.36-3.23,5.65,5.65,0,0,1,3.7-2.24,4.54,4.54,0,0,1,4,1.49,6.76,6.76,0,0,1,1.32,4.25l.73,0,3.84,0a6.56,6.56,0,0,1,1-2.2,5.73,5.73,0,0,1,6.23-2.26,4.9,4.9,0,0,1,2.6,2.91,9.1,9.1,0,0,1,.55,1.51l5.11-.08a7.5,7.5,0,0,1,1.15-2.14,6,6,0,0,1,2.79-2,5.42,5.42,0,0,1,3.31,0,4.38,4.38,0,0,1,2.57,2.13,6.23,6.23,0,0,1,.6,1.78c2.26-.09,4.52-.18,6.77-.3A27.16,27.16,0,0,0,74.92,53.45Z"/><path class="cls-3" d="M21.62,57.44h.08l1.14,0Z"/><path class="cls-3" d="M47.84,56.79a1.41,1.41,0,0,0-1.55.92,1.54,1.54,0,0,0-.08.19h2.86A2,2,0,0,0,47.84,56.79Z"/><path class="cls-3" d="M16.18,55.62a2.35,2.35,0,0,0-1.29,1.51l4.15.2C18.65,56.15,17.49,55,16.18,55.62Z"/><path class="cls-3" d="M43.63,41.07c.55.49,1.11-.48,1.29-.87a7.28,7.28,0,0,0,.42-1.13,10.64,10.64,0,0,1-2.39-.3,7.33,7.33,0,0,0,.28,1.54A1.51,1.51,0,0,0,43.63,41.07Z"/><path class="cls-4" d="M74.92,53.45a27.16,27.16,0,0,1,0,3.72l.6,0c0-.43,0-.86.07-1.29.08-1.3.15-2.61.23-3.92l-1,0C74.86,52.46,74.9,53,74.92,53.45Z"/><path class="cls-4" d="M6.77,57c-.38-1.88-.68-3.78-1-5.67-.13-.82-.25-1.63-.37-2.45l-.58-.06a.53.53,0,0,1-.44-.3l-1.35-.09c.16,1.46.31,2.93.47,4.4s.31,2.83.47,4.25H4Z"/><path class="cls-4" d="M3,57.13c.16,1.49.33,3,.5,4.47h0C3.35,60.11,3.18,58.62,3,57.13Z"/><path class="cls-4" d="M1.38,32.34l.75,7.39,0,.19a21.91,21.91,0,0,0,2.24.77c-.11-1-.21-2-.29-3.06-.1-1.18-.19-2.36-.26-3.54a11.26,11.26,0,0,1-2.68-4c-.15-.33-.29-.66-.42-1,0,.27,0,.53,0,.79l.12,2A.49.49,0,0,1,1.38,32.34Z"/><path class="cls-4" d="M75.41,61.63l-.56,0-1.32.1a4.31,4.31,0,0,1-.76.78c-1.32,1-3.09,1.07-4.69,1.16-2.37.13-4.74.13-7.11.15-4.72,0-9.44.17-14.15.23s-9.49.11-14.24.21c-4.6.1-9.19.41-13.79.16a43.85,43.85,0,0,1-6.67-.8,6.68,6.68,0,0,1-2.59-1.12l-5-.13c.14,1.2.27,2.39.4,3.59a.47.47,0,0,1-.42.47.52.52,0,0,0,.46.2l3.3-.06a.49.49,0,0,1,.32-.84L19,65.71c6.19,0,12.38-.1,18.57-.22s12.38-.3,18.57-.58a.46.46,0,0,1,.42.66l1.13,0a.51.51,0,0,1,.43-.68L62,64.64q6.85-.37,13.71-.56a.44.44,0,0,1,.36.16,1.13,1.13,0,0,0,0-.18c0-.83,0-1.65,0-2.48h-.09A.53.53,0,0,1,75.41,61.63Z"/><path class="cls-4" d="M39.39,30.36v0a.21.21,0,0,0-.21-.11l.11,0A.52.52,0,0,1,39.39,30.36Z"/><path class="cls-4" d="M74.62,37.33C69.48,40.48,62.73,39,58.53,35a.43.43,0,0,1,0-.6,9.17,9.17,0,0,1-1-1.43.34.34,0,0,1-.13.22,25.55,25.55,0,0,1-4,3c-.71.45-1.42.9-2.15,1.28a4.65,4.65,0,0,1-2.41.61.47.47,0,0,1-.37-.2A7.47,7.47,0,0,1,46,37.56a.47.47,0,0,1-.59.51c-2.59-.74-4.21-3-5.48-5.24a.48.48,0,0,1,.37-.71c-.27-.49-.52-1-.76-1.51a.42.42,0,0,1-.06.31,17.41,17.41,0,0,1-4.28,4,16.59,16.59,0,0,1-4.74,2.18,9.24,9.24,0,0,1-5.81,0c-3.09-1.19-4.93-4.3-5.85-7.33a.42.42,0,0,1,.24-.54c-.16-.59-.29-1.18-.4-1.77a17.49,17.49,0,0,1-3.71,5.34l-.09.09c1.11-.09,2.42-.24,3.27.59a22.36,22.36,0,0,0,3.79,3.22,10.54,10.54,0,0,0,3.5,1.36,19.5,19.5,0,0,0,4.65.3c0-.16,0-.31,0-.47a.49.49,0,0,1,.48-.48.49.49,0,0,1,.48.48c0,.13,0,.27,0,.4.37,0,.75-.08,1.12-.14s.74-.12,1.12-.21a2.23,2.23,0,0,0,0-.23.49.49,0,0,1,.48-.48.5.5,0,0,1,.48.44,4.94,4.94,0,0,0,3.12-2.31.25.25,0,0,1,.38,0A16.48,16.48,0,0,0,41,38a7,7,0,0,0,1,.46s0-.09,0-.14a.48.48,0,0,1,.48-.47.49.49,0,0,1,.48.47c0,.15,0,.3,0,.44a10.64,10.64,0,0,0,2.39.3c.06-.24.12-.48.17-.72A.49.49,0,0,1,46.1,38a.5.5,0,0,1,.33.59,3.63,3.63,0,0,1-.1.45,22.23,22.23,0,0,0,2.6-.29,21.86,21.86,0,0,0,8.29-3.12.23.23,0,0,1,.29,0A18.15,18.15,0,0,0,60.6,38.4a11.92,11.92,0,0,0,7.05,2.17A12.28,12.28,0,0,0,74,38.35a.24.24,0,0,1,.36.21c.07,1.14.11,2.28.13,3.42,0,.89,0,1.78,0,2.66l1.69-.17q.19-3.8.37-7.58a.5.5,0,0,1,.71-.42c0-.51,0-1,.07-1.53A11,11,0,0,1,74.62,37.33Z"/><path class="cls-4" d="M3.6,62.29l.06.53-.06-.53Z"/><path class="cls-4" d="M2.74,54.48c.06.52.11,1,.16,1.56L3,57.12H3C2.93,56.24,2.84,55.36,2.74,54.48Z"/><path class="cls-5" d="M73.79,45c-1.33.16-2.66.31-4,.43a128.28,128.28,0,0,1-14,.52.49.49,0,0,1-.42-.69l-2,0A.47.47,0,0,1,53,46q-5.74-.17-11.5-.53c-6.82-.43-13.62-1-20.42-1.69-3.36-.33-6.72-.65-10.08-1A33.63,33.63,0,0,1,2.26,41c.26,2.49.53,5,.79,7.48l1.35.09a.47.47,0,0,1,.44-.66c3.44.38,6.87.73,10.31,1.06q9.21.9,18.44,1.55t18.48,1.11a.45.45,0,0,1,.44.37q8,.19,15.94,0c2.12,0,4.25,0,6.38-.07l1,0c.13-2.49.27-5,.39-7.47l-1.69.17-.27,0A.53.53,0,0,1,73.79,45Z"/><path class="cls-5" d="M12.38,42l1,.09c-2-.26-3.95-.54-5.92-.71C9.06,41.64,10.73,41.81,12.38,42Z"/><path class="cls-5" d="M37.7,57.85l-3.89-.11-2.89-.07h0l-3-.07h-.25l-4.45-.11h-.35l-1.14,0,4,.14q6.37.21,12.77.29l-.73,0Z"/><path class="cls-5" d="M10,57.09h0c-.87,0-1.74-.07-2.61-.06H6.77L4,57.12H4l.48,4.33q5.84.16,11.69.3,10.89.22,21.77.32t21.89,0a.44.44,0,0,1,.46.45q3.12-.09,6.23-.27c2.34-.13,4.68-.34,7-.51l1.32-.1.56,0a.39.39,0,0,1-.15-.36c.06-1.05.13-2.11.19-3.16q-6.93.35-13.86.53-12.5.34-25,.16t-25-.88a.51.51,0,0,1-.38-.78l-1.16,0Z"/><path class="cls-5" d="M3.53,61.59c-.12-1-.23-2-.34-3,0-.5-.1-1-.16-1.5H3c.16,1.49.33,3,.5,4.47Z"/><path class="cls-5" d="M76.07,61.59h.09v-.12A.64.64,0,0,1,76.07,61.59Z"/><path class="cls-5" d="M1,22.23a17.73,17.73,0,0,0,.9,7.09c1.05,2.86,3.71,6.14,6.94,6a7.74,7.74,0,0,0,2.36-.75,13,13,0,0,0,1.61-1.09,18.15,18.15,0,0,0,2.08-1.93,16.87,16.87,0,0,0,3-4.74.49.49,0,0,1,.65-.17.5.5,0,0,1,.17.66c0,.09-.08.17-.12.26.11.59.24,1.18.4,1.77a.48.48,0,0,1,.68.28A13,13,0,0,0,22,34a7.12,7.12,0,0,0,3.48,2.38A9.37,9.37,0,0,0,30.87,36a16.26,16.26,0,0,0,7.75-5.56.5.5,0,0,1,.55-.21.21.21,0,0,1,.21.11v0a.58.58,0,0,1,.12.25c.24.51.49,1,.76,1.51a.44.44,0,0,1,.45.23c1.15,2,2.58,4.13,4.92,4.79a.45.45,0,0,1,.33.42,7.47,7.47,0,0,0,2.44.31.46.46,0,0,1,.37-.76A3.88,3.88,0,0,0,51,36.49c.67-.37,1.33-.78,2-1.19a23.91,23.91,0,0,0,3.72-2.84.48.48,0,0,1,.8.46,9.17,9.17,0,0,0,1,1.43.47.47,0,0,1,.72-.07,13.93,13.93,0,0,0,3.71,2.55,12.43,12.43,0,0,0,8.18.93,10.05,10.05,0,0,0,6-4,.47.47,0,0,1,.36-.21v-.06a.63.63,0,0,0,0-.19v-.05l0-.06a.22.22,0,0,0,0-.08s0,0,0,0L77.18,33a.68.68,0,0,0-.21-.1l-2.88-.68L72.61,32q-7-.87-14-2.08c-4.64-.8-9.25-1.73-13.85-2.72q-4.12-.9-8.26-1.67l-3.16-.47c-2.85-.43-5.7-.9-8.55-1.36q-4-.51-7.93-.94c-4.68-.5-9.37-.94-14.07-1.37a.52.52,0,0,1-.45-.6l-.59-.06a1.45,1.45,0,0,0-.09.22.48.48,0,0,1-.92,0,.67.67,0,0,0-.1.19c-.05.19-.09.38-.13.58A.44.44,0,0,1,1,22.23Z"/><path class="cls-5" d="M.72,28.81c0,.09,0,.17,0,.25h0c.13.34.27.67.42,1A12.28,12.28,0,0,1,.72,28.81Z"/><path class="cls-6" d="M31.12,41.28a1.5,1.5,0,0,0,1.66-.07,2.8,2.8,0,0,0,1-1.45,9.23,9.23,0,0,0,.47-2v0a.5.5,0,0,0-.48-.44.49.49,0,0,0-.48.48,2.23,2.23,0,0,1,0,.23,7.89,7.89,0,0,1-.41,1.57,3,3,0,0,1-.14.33,2.14,2.14,0,0,1-.2.32.82.82,0,0,1-.67.33.62.62,0,0,1-.29-.15,1.4,1.4,0,0,1-.29-.57A5.79,5.79,0,0,1,31,38.34c0-.13,0-.27,0-.4a.49.49,0,0,0-.48-.48.49.49,0,0,0-.48.48c0,.16,0,.31,0,.47a9,9,0,0,0,.2,1.38A2.24,2.24,0,0,0,31.12,41.28Z"/><path class="cls-6" d="M42.93,41.73a1.45,1.45,0,0,0,1.68.25,2.57,2.57,0,0,0,1.15-1.32,9.34,9.34,0,0,0,.57-1.61,3.63,3.63,0,0,0,.1-.45A.5.5,0,0,0,46.1,38a.49.49,0,0,0-.59.34c0,.24-.11.48-.17.72a7.28,7.28,0,0,1-.42,1.13c-.18.39-.74,1.36-1.29.87a1.51,1.51,0,0,1-.4-.76A7.33,7.33,0,0,1,43,38.77c0-.14,0-.29,0-.44a.49.49,0,0,0-.48-.47.48.48,0,0,0-.48.47c0,.05,0,.09,0,.14a8.49,8.49,0,0,0,.25,1.81A3,3,0,0,0,42.93,41.73Z"/><path class="cls-6" d="M37.83,42A1,1,0,0,0,39,41.54a1.46,1.46,0,0,0,.15-.49.32.32,0,0,0-.22-.39.31.31,0,0,0-.39.22.68.68,0,0,1-.19.45.29.29,0,0,1-.47-.09c-.08-.22,0-.65-.39-.64a.31.31,0,0,0-.31.32A1.09,1.09,0,0,0,37.83,42Z"/><path class="cls-7" d="M21.71,12a5,5,0,0,0,1.6,1.05,3.82,3.82,0,0,0,1.73.36,1.58,1.58,0,0,0,1.38-.86,1.91,1.91,0,0,0-.17-1.72,6.69,6.69,0,0,0-1.59-1.64.32.32,0,0,0-.45.45,6.28,6.28,0,0,1,1.49,1.51c.27.47.37,1.18-.18,1.48a2.13,2.13,0,0,1-1.68-.05,4.49,4.49,0,0,1-1.68-1C21.86,11.29,21.41,11.74,21.71,12Z"/><path class="cls-7" d="M32.06,7.08A4,4,0,0,0,33.94,8a1.74,1.74,0,0,0,1.62-.61,2,2,0,0,0,.06-1.95,6.49,6.49,0,0,0-1.25-2c-.28-.3-.73.15-.46.45.61.67,2.22,3.05.62,3.49a2.35,2.35,0,0,1-1.89-.63A8.42,8.42,0,0,1,31,5.16c-.26-.32-.71.13-.45.45A8.82,8.82,0,0,0,32.06,7.08Z"/><path class="cls-7" d="M30.63,11a1,1,0,0,0,.56-.44,1.06,1.06,0,0,0,.13-.68,1.29,1.29,0,0,0-.12-.38,1.14,1.14,0,0,0-.3-.32.33.33,0,0,0-.24,0,.32.32,0,0,0-.22.39.5.5,0,0,0,.13.19l0,0a.51.51,0,0,1,.14.34.36.36,0,0,1-.38.36.41.41,0,0,1-.32-.17l0,0c-.1-.16-.28-.3-.47-.18a.33.33,0,0,0-.12.44A1.08,1.08,0,0,0,30.63,11Zm0-.8Zm-.09.13h0S30.51,10.35,30.57,10.32Z"/><path class="cls-8" d="M24,15.16a1.65,1.65,0,0,0-.37,1.6,1.45,1.45,0,0,0,1,.77,4.31,4.31,0,0,0,4.09-2A1.7,1.7,0,0,0,28.8,14a1.41,1.41,0,0,0-1.69-.68A5.53,5.53,0,0,0,24,15.16Z"/><path class="cls-8" d="M35.32,9.5a1.39,1.39,0,0,0,1,.76,4.28,4.28,0,0,0,4.09-2,1.7,1.7,0,0,0,.12-1.53,1.41,1.41,0,0,0-1.69-.68,5.51,5.51,0,0,0-3.11,1.82A1.66,1.66,0,0,0,35.32,9.5Z"/><path class="cls-9" d="M47.39,43.87a1.1,1.1,0,0,0,.56-.79.92.92,0,0,0-.71-.91,3.46,3.46,0,0,0-2.27,0,1,1,0,0,0-.7.76.86.86,0,0,0,.27.71A2.69,2.69,0,0,0,47.39,43.87Z"/><path class="cls-9" d="M31.09,43a1,1,0,0,0,.53-.76c0-.43-.25-.7-.67-.86a3.33,3.33,0,0,0-2.16,0,1,1,0,0,0-.68.73.84.84,0,0,0,.27.68A2.57,2.57,0,0,0,31.09,43Z"/><path class="cls-10" d="M18,54.43v0l0,.05Z"/><path class="cls-10" d="M23.19,57.48h0a10.45,10.45,0,0,0-1.48-3.85,5.68,5.68,0,0,0-3.57-2.49,6.52,6.52,0,0,0-4.16.62,7.36,7.36,0,0,0-3.09,3.11A9.34,9.34,0,0,0,10,57.09h.08l1.16,0a.39.39,0,0,1,.37-.17l3.24.17a2.35,2.35,0,0,1,1.29-1.51c1.31-.6,2.47.53,2.86,1.71l2.58.11,1.22,0Zm-10.4-3.26a.11.11,0,0,1,0,.08.13.13,0,0,1-.06.07.12.12,0,0,1-.08,0l-.21.05h-.12l-.06,0a.26.26,0,0,1-.09-.09l0-.05a.17.17,0,0,1,0-.1.29.29,0,0,1,0-.09.23.23,0,0,1,.07-.07l.08,0,.2,0a.28.28,0,0,1,.13,0l.06,0,.08.08,0,.06A.17.17,0,0,1,12.79,54.22ZM14.47,56l0,.06-.06.07-.08,0h-.1l-.09,0-.16-.1a.3.3,0,0,1-.08-.08l0-.06a.29.29,0,0,1,0-.13l0,0a.13.13,0,0,1,.06-.07.12.12,0,0,1,.08,0,.17.17,0,0,1,.1,0l.09,0,.15.1a.2.2,0,0,1,.09.09l0,0A.28.28,0,0,1,14.47,56Zm.65-1.37c0,.07-.06.13-.08.19A.21.21,0,0,1,15,55l-.05,0-.12,0h-.07s-.05,0-.08,0l-.06-.07s0,0,0-.09a.28.28,0,0,1,0-.09l.07-.18a.41.41,0,0,1,.07-.11l0,0a.28.28,0,0,1,.13,0H15l.08,0a.13.13,0,0,1,.06.07.16.16,0,0,1,0,.09A.14.14,0,0,1,15.12,54.66Zm-.18-1.45a.24.24,0,0,1,0-.48A.24.24,0,0,1,14.94,53.21Zm1.37-1.12,0,0a.14.14,0,0,1-.08,0,.21.21,0,0,1-.18,0,.14.14,0,0,1-.08,0l0,0a.39.39,0,0,1-.06-.11v-.06a.28.28,0,0,1,0-.12l0,0,.08-.05.09,0,.1,0a.18.18,0,0,1,.07.05l0,0a.21.21,0,0,1,.06.1V52A.28.28,0,0,1,16.31,52.09ZM18,54.38h0v.07l0,0a.24.24,0,0,1-.08.09l-.06,0a.16.16,0,0,1-.1,0l-.09,0a.12.12,0,0,1-.06-.06.22.22,0,0,1-.05-.08v0s0,0,0-.07v0a.17.17,0,0,0,0-.07v0l0-.07h0l.05-.06a.24.24,0,0,1,.11-.06h.06l.12,0,.05,0a.22.22,0,0,1,.05.08.21.21,0,0,1,0,.18Zm1.82-2,0,0a.13.13,0,0,1,.06-.07.12.12,0,0,1,.08,0h.1a.11.11,0,0,1,.08,0l.16.08a.24.24,0,0,1,.09.08l0,.06a.28.28,0,0,1,0,.13l0,0-.06.07a.15.15,0,0,1-.09,0h-.09l-.09,0-.16-.08a.3.3,0,0,1-.08-.08l0-.06A.28.28,0,0,1,19.82,52.39Zm-.49.81,0,0a.18.18,0,0,1-.07,0l-.1,0-.09,0-.08,0-.2-.21a.24.24,0,0,1-.06-.11v-.06a.27.27,0,0,1,0-.12l0,0,.08-.05.09,0,.09,0,.08.05.2.21a.21.21,0,0,1,.06.1v.07A.27.27,0,0,1,19.33,53.2Zm.93,3.5a.14.14,0,0,1-.05.08.13.13,0,0,1-.06.07L20,57l-.12,0h-.07l-.1-.07,0,0a.16.16,0,0,1,0-.09.34.34,0,0,1,0-.1.12.12,0,0,1,0-.08.13.13,0,0,1,.07-.06l.18-.11a.21.21,0,0,1,.12,0h.06a.24.24,0,0,1,.11.06l0,.05a.16.16,0,0,1,0,.09A.14.14,0,0,1,20.26,56.7Zm.37-1.58,0,.09-.06.07-.09,0-.13,0a.24.24,0,0,1-.12,0l-.06,0a.26.26,0,0,1-.09-.09l0,0a.17.17,0,0,1,0-.1.29.29,0,0,1,0-.09.23.23,0,0,1,.07-.07l.08,0,.13,0h.12l.06,0a.26.26,0,0,1,.09.09l0,.06A.28.28,0,0,1,20.63,55.12ZM22,56.17a.18.18,0,0,1-.05.07l0,0a.21.21,0,0,1-.1.06h-.07l-.12,0,0,0a.14.14,0,0,1-.05-.08.21.21,0,0,1,0-.18.14.14,0,0,1,.05-.08l0,0a.41.41,0,0,1,.11-.07h.06l.12,0,.05,0A.18.18,0,0,1,22,56a.29.29,0,0,1,0,.09A.3.3,0,0,1,22,56.17Z"/><path class="cls-10" d="M30.92,57.67h0c0-.1,0-.19,0-.28.11-.66.38-1.52,1.19-1.51s1.33.78,1.53,1.5a2.37,2.37,0,0,1,.09.36h0l3.89.11h0a6.76,6.76,0,0,0-1.32-4.25,4.54,4.54,0,0,0-4-1.49,5.65,5.65,0,0,0-3.7,2.24,7.41,7.41,0,0,0-1.36,3.23h.59Zm5.64-2.17,0,0a.24.24,0,0,1,.08-.09l.06,0a.16.16,0,0,1,.1,0,.11.11,0,0,1,.08,0,.22.22,0,0,1,.07.06s0,0,0,.08l.09.21a.29.29,0,0,1,0,.13l0,.06A.3.3,0,0,1,37,56l-.06,0a.17.17,0,0,1-.1,0,.11.11,0,0,1-.08,0,.13.13,0,0,1-.07-.06.12.12,0,0,1,0-.08l-.09-.21A.28.28,0,0,1,36.56,55.5Zm-1.44,1.25h.06a.19.19,0,0,1,.14.11.11.11,0,0,1,0,.08.17.17,0,0,1,0,.1.14.14,0,0,1-.05.08.09.09,0,0,1-.06.06.58.58,0,0,1-.22.08h-.28a.24.24,0,0,1-.11-.06l0-.05a.31.31,0,0,1,0-.19.2.2,0,0,1,0-.08s0,0,.07-.06l.09,0h.15l.09,0Zm-.62-3.43a.22.22,0,0,1,0-.08l0,0a.21.21,0,0,1,.1-.06h.07a.19.19,0,0,1,.12,0l.05,0a.22.22,0,0,1,0,.08.29.29,0,0,1,0,.09.24.24,0,0,1,0,.09.22.22,0,0,1,0,.08l0,0a.21.21,0,0,1-.1.06h-.07a.19.19,0,0,1-.12,0l-.05,0a.22.22,0,0,1,0-.08.29.29,0,0,1,0-.09A.24.24,0,0,1,34.5,53.32Zm-.27,1.47s0,0,0-.08l.07-.06a.12.12,0,0,1,.09,0h.09l.11,0,.1.07,0,0a.27.27,0,0,1,0,.12V55a.12.12,0,0,1,0,.08.13.13,0,0,1-.07.06.12.12,0,0,1-.09,0,.14.14,0,0,1-.09,0l-.11,0a.21.21,0,0,1-.1-.06l0-.05a.27.27,0,0,1,0-.12Zm-1.56.05a.16.16,0,0,1,0,.09.13.13,0,0,1-.06.07.2.2,0,0,1-.08,0l-.08,0h-.13l0,0a.24.24,0,0,1-.09-.08l0-.06a.17.17,0,0,1,0-.1.16.16,0,0,1,0-.09s0-.05.06-.06l.08,0,.08,0h.13l.06,0a.24.24,0,0,1,.08.09l0,.05A.17.17,0,0,1,32.67,54.84Zm-.73-2.17a.25.25,0,0,1,0-.09l.07-.06a.32.32,0,0,1,.09,0h.09l.29.08a.26.26,0,0,1,.14.11.23.23,0,0,1,0,.18.36.36,0,0,1,0,.09l-.07.06-.09,0h-.1L32.11,53a.28.28,0,0,1-.15-.11A.22.22,0,0,1,31.94,52.67ZM30,57.3l-.12,0-.05,0a.18.18,0,0,1-.05-.07.3.3,0,0,1,0-.1.29.29,0,0,1,0-.09.35.35,0,0,1,.05-.08l.13-.13a.24.24,0,0,1,.11-.06h.06a.16.16,0,0,1,.12,0l.05,0a.22.22,0,0,1,.05.08.15.15,0,0,1,0,.09s0,.07,0,.09a.22.22,0,0,1-.05.08l-.13.13a.24.24,0,0,1-.11.06ZM30.41,55h.07a.21.21,0,0,1,.1.06l0,0a.16.16,0,0,1,0,.09.28.28,0,0,1,0,.09.12.12,0,0,1,0,.08.23.23,0,0,1-.07.07l-.16.1a.21.21,0,0,1-.12,0h-.06a.24.24,0,0,1-.11-.06l0,0a.29.29,0,0,1,0-.18.14.14,0,0,1,.05-.08.13.13,0,0,1,.06-.07l.16-.1A.27.27,0,0,1,30.41,55Zm-.84-1.13,0,0a.14.14,0,0,1,.08,0,.21.21,0,0,1,.18,0,.14.14,0,0,1,.08,0l.13.15a.24.24,0,0,1,.06.11v.06a.21.21,0,0,1,0,.12l0,.05a.14.14,0,0,1-.08,0,.21.21,0,0,1-.18,0,.14.14,0,0,1-.08,0l-.13-.16a.21.21,0,0,1-.06-.1V54A.27.27,0,0,1,29.57,53.86Zm-1.36,2.53s0,0,0-.08l.07-.06a.11.11,0,0,1,.08,0h.14l.08,0h.06a.21.21,0,0,1,.11.07l0,0a.32.32,0,0,1,0,.09.34.34,0,0,1,0,.1.2.2,0,0,1,0,.08.13.13,0,0,1-.07.06l-.1,0-.11,0a.43.43,0,0,1-.16,0,.21.21,0,0,1-.1-.06l0-.05a.27.27,0,0,1,0-.12Z"/><path class="cls-10" d="M49.46,53.44a5.73,5.73,0,0,0-6.23,2.26,6.56,6.56,0,0,0-1,2.2h3.94a1.54,1.54,0,0,1,.08-.19,1.41,1.41,0,0,1,1.55-.92,2,2,0,0,1,1.23,1.1h1.56l2,0a9.1,9.1,0,0,0-.55-1.51A4.9,4.9,0,0,0,49.46,53.44Zm-5.2,3.14a.3.3,0,0,1,0,.08l-.07.06a.14.14,0,0,1-.09,0H44l-.08,0a.41.41,0,0,1-.11-.07l0,0a.19.19,0,0,1,0-.12v-.07a.2.2,0,0,1,0-.08.13.13,0,0,1,.07-.06.16.16,0,0,1,.09,0H44l.08,0a.21.21,0,0,1,.1.06l0,0a.27.27,0,0,1,0,.12Zm1.79.68a.2.2,0,0,1,0,.08.13.13,0,0,1-.07.06l-.21.11a.27.27,0,0,1-.12,0h-.06a.24.24,0,0,1-.11-.06l0,0,0-.09a.28.28,0,0,1,0-.09.2.2,0,0,1,0-.08.13.13,0,0,1,.07-.06L45.7,57a.27.27,0,0,1,.12,0h.06A.26.26,0,0,1,46,57l0,0a.29.29,0,0,1,0,.09A.17.17,0,0,1,46.05,57.26Zm.05-.82a.24.24,0,0,1-.06.11l0,0a.21.21,0,0,1-.12,0h-.06a.2.2,0,0,1-.08,0,.13.13,0,0,1-.06-.07.16.16,0,0,1,0-.09s0,0,0,0h0V56.3a.09.09,0,0,0,0,0h0a.31.31,0,0,1,0-.19.22.22,0,0,1,.11-.14l.09,0a.14.14,0,0,1,.09,0,.15.15,0,0,1,.09,0L46,56a.37.37,0,0,1,0,.11.25.25,0,0,1,0,.07s0,.09,0,.13A.51.51,0,0,1,46.1,56.44ZM46.68,54a.22.22,0,0,1-.11.14L46,54.4a.27.27,0,0,1-.12,0h-.07a.26.26,0,0,1-.14-.11.25.25,0,0,1,0-.19.22.22,0,0,1,.11-.14l.55-.26.12,0h.07a.19.19,0,0,1,.14.11A.22.22,0,0,1,46.68,54Zm1.43-.52a.24.24,0,0,1,0,.48A.24.24,0,0,1,48.11,53.48Zm.39,1.41a.16.16,0,0,1,0,.09.13.13,0,0,1-.06.07.2.2,0,0,1-.08,0l-.24.08H48l-.06,0-.09-.09,0-.06a.14.14,0,0,1,0-.09.24.24,0,0,1,0-.09l.07-.07a.2.2,0,0,1,.08,0l.23-.08a.28.28,0,0,1,.13,0l.06,0a.24.24,0,0,1,.08.09l0,0A.17.17,0,0,1,48.5,54.89Zm.71,1.37a.16.16,0,0,1,0,.09.12.12,0,0,1-.06.06l-.08.05-.13,0a.29.29,0,0,1-.13,0l-.06,0a.3.3,0,0,1-.08-.08l0-.06a.14.14,0,0,1,0-.09.12.12,0,0,1,0-.09.13.13,0,0,1,.06-.07.12.12,0,0,1,.08,0l.13-.06A.28.28,0,0,1,49,56l.06,0a.3.3,0,0,1,.08.08l0,.06A.17.17,0,0,1,49.21,56.26Zm1.12-1.16-.08-.05a.22.22,0,0,1,0-.08.29.29,0,0,1,0-.09.41.41,0,0,0,0-.11.45.45,0,0,0,0-.11.29.29,0,0,1,0-.09V54.5a.22.22,0,0,1,.11-.14l.09,0h.09l.08.05s.05,0,.07.06a.86.86,0,0,1,.08.44.27.27,0,0,1,0,.12l0,0a.22.22,0,0,1-.17.07Zm.81,2.32a.14.14,0,0,1,0,.08l-.15.13a.24.24,0,0,1-.11.06h-.06a.21.21,0,0,1-.12,0l0,0-.05-.07a.16.16,0,0,1,0-.1.15.15,0,0,1,0-.09.35.35,0,0,1,.05-.08l.16-.13a.21.21,0,0,1,.1-.06h.06a.28.28,0,0,1,.13,0l0,0a.14.14,0,0,1,0,.08.21.21,0,0,1,0,.18Zm.28-1.16a.22.22,0,0,1-.05.08.12.12,0,0,1-.06.06.7.7,0,0,1-.23.08l-.24,0a.28.28,0,0,1-.17-.07.36.36,0,0,1-.07-.17.3.3,0,0,1,0-.1.18.18,0,0,1,.05-.07.23.23,0,0,1,.17-.07h.06l.18-.05.1,0h.07a.26.26,0,0,1,.14.11.16.16,0,0,1,0,.09A.17.17,0,0,1,51.42,56.26Z"/><path class="cls-10" d="M65,53.56a5.42,5.42,0,0,0-3.31,0,6,6,0,0,0-2.79,2,7.5,7.5,0,0,0-1.15,2.14l4.17-.1a1.31,1.31,0,0,1,.25-.32,1.17,1.17,0,0,1,1.73.13l.11.12,4.16-.14a6.23,6.23,0,0,0-.6-1.78A4.38,4.38,0,0,0,65,53.56Zm-3.63,1,0-.06.08-.08.06,0h.09a.12.12,0,0,1,.09,0,.13.13,0,0,1,.07.06.12.12,0,0,1,0,.08l.06.18a.28.28,0,0,1,0,.13l0,.06a.34.34,0,0,1-.08.09l-.06,0h-.1l-.09,0s0,0-.06-.07a.22.22,0,0,1,0-.08l0-.18A.29.29,0,0,1,61.34,54.58Zm-1.42,1.76s0,0,0,.08a.21.21,0,0,1-.06.1l-.05,0-.12,0h-.07s0,0-.08,0l-.06-.07a.11.11,0,0,1,0-.08v-.06a.23.23,0,0,1,0-.11v-.06a.39.39,0,0,1,.06-.11l.05,0a.16.16,0,0,1,.09,0,.17.17,0,0,1,.1,0,.2.2,0,0,1,.08,0,.13.13,0,0,1,.06.07v0h0l0,.06a0,0,0,0,1,0,0s0,.05,0,.07h0v0Zm2,.78a.16.16,0,0,1,0,.09.13.13,0,0,1-.06.07l-.08,0h0l-.07,0,0,0a.24.24,0,0,1-.11.06h-.06a.24.24,0,0,1-.12,0l-.05,0a.22.22,0,0,1,0-.08s0-.05,0-.09a.15.15,0,0,1,0-.09.22.22,0,0,1,0-.08l.05,0,.09-.08.06,0,.11,0h.13l.06,0a.24.24,0,0,1,.08.09l0,.06A.14.14,0,0,1,61.91,57.12ZM62,55.94A.11.11,0,0,1,62,56a.22.22,0,0,1-.06.07s0,0-.08,0l0,0-.08,0,0,0a.24.24,0,0,1-.11.06h-.06a.27.27,0,0,1-.12,0l0,0a.22.22,0,0,1-.05-.08.21.21,0,0,1,0-.18.22.22,0,0,1,.05-.08l.08-.06.08-.06.11,0,.07,0a.28.28,0,0,1,.13,0l0,0a.24.24,0,0,1,.09.08l0,.06A.31.31,0,0,1,62,55.94Zm1.87.31a.24.24,0,0,1,0-.48A.24.24,0,0,1,63.89,56.25Zm.65-2.08a.24.24,0,0,1-.14.1,1,1,0,0,1-.52,0,.19.19,0,0,1-.14-.11.23.23,0,0,1,0-.18.2.2,0,0,1,.11-.14.26.26,0,0,1,.19,0l.07,0h.19a.29.29,0,0,1,.13,0l.06,0a.26.26,0,0,1,.11.14A.32.32,0,0,1,64.54,54.17Zm1.33,1.56a.22.22,0,0,1-.05.08l-.08,0-.09,0-.29,0-.12,0,0,0a.22.22,0,0,1-.07-.17.29.29,0,0,1,0-.09.22.22,0,0,1,0-.08l.08,0,.09,0,.29,0a.27.27,0,0,1,.12,0l0,0a.22.22,0,0,1,.07.17A.29.29,0,0,1,65.87,55.73Zm.52-1.13a.16.16,0,0,1,0,.09l0,.05a.34.34,0,0,1-.08.09l-.06,0h-.13l-.06,0s0,0-.06-.07a.22.22,0,0,1,0-.08.14.14,0,0,1,0-.09.16.16,0,0,1,0-.09l0,0a.24.24,0,0,1,.08-.09l.06,0a.15.15,0,0,1,.13,0l0,0,.07.06s0,0,0,.08A.38.38,0,0,1,66.39,54.6Zm.85,2.11a.35.35,0,0,1,0,.08l-.08.07a.41.41,0,0,0,0,.09.21.21,0,0,1-.06.1l0,0-.12,0h-.06a.2.2,0,0,1-.08,0,.23.23,0,0,1-.07-.07.29.29,0,0,1,0-.09.14.14,0,0,1,0-.09.84.84,0,0,1,.06-.14l0-.07a.57.57,0,0,1,.15-.16.21.21,0,0,1,.1-.06H67a.28.28,0,0,1,.17.07.22.22,0,0,1,0,.08.2.2,0,0,1,0,.09A.29.29,0,0,1,67.24,56.71Z"/><path class="cls-11" d="M1.07,21.31A.49.49,0,0,0,1.66,21a1.45,1.45,0,0,1,.09-.22,10.76,10.76,0,0,1,1.82-2.89c.79-.92,1.64-1.79,2.51-2.64a48.9,48.9,0,0,1,5.35-4.49,50.09,50.09,0,0,1,12.4-6.55,49.19,49.19,0,0,1,7.66-2.06.48.48,0,0,0,.33-.59s0,0,0,0a.49.49,0,0,0-.58-.29A49.86,49.86,0,0,0,17.61,5.85,50.37,50.37,0,0,0,5.84,14.14C4.86,15.07,3.9,16,3,17.05A12.3,12.3,0,0,0,.73,20.72a.45.45,0,0,0,0,.28A.49.49,0,0,0,1.07,21.31Z"/><path class="cls-11" d="M34.21,1.49A27.29,27.29,0,0,1,39.69,1a5.45,5.45,0,0,1,2.39.49,11.32,11.32,0,0,1,2,1.35q4.14,3.33,8.18,6.8t8,7.06l2,1.86C64.19,20.33,66.12,22.15,68,24c1.74,1.7,3.47,3.41,5.17,5.15q1.18,1.2,2.34,2.4l.94,1a.41.41,0,0,0,.39.13.49.49,0,0,0,.29-.81q-3.75-3.92-7.63-7.72t-7.83-7.44q-4-3.68-8.1-7.22T45.29,2.55C44,1.49,42.63.35,40.9.1A13.22,13.22,0,0,0,38.16,0c-.95,0-1.88.15-2.82.29Q34.65.44,34,.57a.41.41,0,0,0-.33.54A.5.5,0,0,0,34.21,1.49Z"/><path class="cls-11" d="M74.84,31.76a.49.49,0,0,0-.48-.48q-7-.83-14-2c-4.64-.78-9.26-1.68-13.86-2.66s-9.26-2-13.94-2.72S23.26,22.55,18.61,22s-9.37-1-14.07-1.41l-1.75-.16a.39.39,0,0,0-.45.36.52.52,0,0,0,.45.6c4.7.43,9.39.87,14.07,1.37q4,.43,7.93.94c2,.27,4,.55,6,.86s3.79.62,5.68,1q4.14.77,8.26,1.67c4.6,1,9.21,1.92,13.85,2.72s9.32,1.5,14,2.08l1.48.17.27,0A.48.48,0,0,0,74.84,31.76Z"/><path class="cls-11" d="M1.16,30.06a11.26,11.26,0,0,0,2.68,4l.09.09a6.53,6.53,0,0,0,5.74,2,8.17,8.17,0,0,0,2.91-1.36,17.79,17.79,0,0,0,2.23-1.83l.09-.09a17.49,17.49,0,0,0,3.71-5.34c0-.09.09-.17.12-.26a.5.5,0,0,0-.17-.66.49.49,0,0,0-.65.17,16.87,16.87,0,0,1-3,4.74,18.15,18.15,0,0,1-2.08,1.93,13,13,0,0,1-1.61,1.09,7.49,7.49,0,0,1-.86.41,5,5,0,0,1-1.5.34c-3.23.19-5.89-3.09-6.94-6A17.73,17.73,0,0,1,1,22.23a.44.44,0,0,0-.48-.46.47.47,0,0,0-.48.46,20,20,0,0,0,.69,6.58A12.28,12.28,0,0,0,1.16,30.06Z"/><path class="cls-11" d="M39.28,30.26l-.11,0a.5.5,0,0,0-.55.21A16.26,16.26,0,0,1,30.87,36a9.37,9.37,0,0,1-5.41.43A7.12,7.12,0,0,1,22,34a13,13,0,0,1-2.29-4.48.48.48,0,0,0-.68-.28.42.42,0,0,0-.24.54c.92,3,2.76,6.14,5.85,7.33a9.24,9.24,0,0,0,5.81,0,16.59,16.59,0,0,0,4.74-2.18,17.41,17.41,0,0,0,4.28-4,.42.42,0,0,0,.06-.31.58.58,0,0,0-.12-.25A.52.52,0,0,0,39.28,30.26Z"/><path class="cls-11" d="M45.64,37.14c-2.34-.66-3.77-2.79-4.92-4.79a.44.44,0,0,0-.45-.23.48.48,0,0,0-.37.71c1.27,2.23,2.89,4.5,5.48,5.24a.47.47,0,0,0,.59-.51A.45.45,0,0,0,45.64,37.14Z"/><path class="cls-11" d="M56.65,32.46a23.91,23.91,0,0,1-3.72,2.84c-.64.41-1.3.82-2,1.19a3.88,3.88,0,0,1-2.18.62.46.46,0,0,0-.37.76.47.47,0,0,0,.37.2,4.65,4.65,0,0,0,2.41-.61c.73-.38,1.44-.83,2.15-1.28a25.55,25.55,0,0,0,4-3,.34.34,0,0,0,.13-.22A.48.48,0,0,0,56.65,32.46Z"/><path class="cls-11" d="M77.06,33.74a10.05,10.05,0,0,1-6,4,12.43,12.43,0,0,1-8.18-.93,13.93,13.93,0,0,1-3.71-2.55.47.47,0,0,0-.72.07.43.43,0,0,0,0,.6c4.2,4,11,5.53,16.09,2.38a11,11,0,0,0,2.73-2.39c.19-.23.37-.47.54-.71a.46.46,0,0,0-.47-.7A.47.47,0,0,0,77.06,33.74Z"/><path class="cls-11" d="M56.17,64.91c-6.19.28-12.38.46-18.57.58s-12.38.18-18.57.22l-10.4.06a.49.49,0,0,0-.32.84.46.46,0,0,0,.32.11q9.28,0,18.57-.12t18.57-.35c3.47-.1,6.93-.22,10.4-.38a.45.45,0,0,0,.42-.3A.46.46,0,0,0,56.17,64.91Z"/><path class="cls-11" d="M75.72,64.08q-6.85.18-13.71.56l-3.86.22a.51.51,0,0,0-.43.68.39.39,0,0,0,.43.28c4.57-.28,9.13-.51,13.7-.66q1.94-.07,3.87-.12a.49.49,0,0,0,.36-.8A.44.44,0,0,0,75.72,64.08Z"/><path class="cls-11" d="M76.57,36.89q-.18,3.78-.37,7.58c-.12,2.49-.26,5-.39,7.47-.08,1.31-.15,2.62-.23,3.92,0,.43,0,.86-.07,1.29l-.6,0c-2.25.12-4.51.21-6.77.3L64,57.61l-2.09.07-4.17.1-5.11.08-2,0H42.27l-3.84,0Q32,57.8,25.66,57.58l-4-.14h-.08L19,57.33l-4.15-.2L11.65,57a.39.39,0,0,0-.37.17h0a.51.51,0,0,0,.38.78q12.48.7,25,.88t25-.16q6.93-.18,13.86-.53c-.06,1-.13,2.11-.19,3.16a.39.39,0,0,0,.15.36.53.53,0,0,0,.66,0,.64.64,0,0,0,.1-.13.87.87,0,0,0,0-.19q.59-9.48,1-19c.09-1.81.17-3.61.26-5.41a.41.41,0,0,0-.25-.42A.5.5,0,0,0,76.57,36.89Z"/><path class="cls-11" d="M55.8,46a128.28,128.28,0,0,0,14-.52c1.33-.12,2.66-.27,4-.43a.53.53,0,0,0,.45-.33.77.77,0,0,0,0-.15c0-.23-.22-.51-.47-.48a130.77,130.77,0,0,1-14,1c-1.34,0-2.67,0-4,0a.43.43,0,0,0-.42.27A.49.49,0,0,0,55.8,46Z"/><path class="cls-11" d="M4.84,48.86l.58.06q8.91,1,17.84,1.74,9.22.78,18.46,1.35,5.18.32,10.35.57a.45.45,0,0,0,.44-.59.45.45,0,0,0-.44-.37q-9.26-.45-18.48-1.11T15.15,49c-3.44-.33-6.87-.68-10.31-1.06a.47.47,0,0,0-.44.66A.53.53,0,0,0,4.84,48.86Z"/><path class="cls-11" d="M5,66c-.13-1.2-.26-2.39-.4-3.59l5,.13q8.12.21,16.23.34,10.89.18,21.78.2c4.09,0,8.18,0,12.28,0a.46.46,0,0,0,.46-.5.44.44,0,0,0-.46-.45q-10.95.06-21.89,0t-21.77-.32q-5.85-.14-11.69-.3L4,57.12c-.16-1.42-.31-2.84-.47-4.25s-.31-2.94-.47-4.4c-.26-2.5-.53-5-.79-7.48A33.63,33.63,0,0,0,11,42.8c3.36.35,6.72.67,10.08,1,6.8.65,13.6,1.26,20.42,1.69q5.74.36,11.5.53a.47.47,0,0,0,.34-.8.44.44,0,0,0-.34-.15c-6.79-.2-13.57-.63-20.35-1.19-6.45-.52-12.9-1.16-19.34-1.81l-1-.09c-1.65-.17-3.32-.34-5-.62a27.68,27.68,0,0,1-3-.67,21.91,21.91,0,0,1-2.24-.77l0-.19-.75-7.39a.49.49,0,0,0-.48-.48h0a.48.48,0,0,0-.48.48q.66,6.57,1.36,13.14c.31,3,.64,6,1,9,.1.88.19,1.76.29,2.64.06.5.11,1,.16,1.5.11,1,.22,2,.34,3h0a.52.52,0,0,0,.08.69h0l.06.53L4,66a.49.49,0,0,0,.48.48h0A.47.47,0,0,0,5,66Z"/><path class="cls-12" d="M14.45,55.85a.2.2,0,0,0-.09-.09l-.15-.1-.09,0a.17.17,0,0,0-.1,0,.12.12,0,0,0-.08,0,.13.13,0,0,0-.06.07l0,0a.29.29,0,0,0,0,.13l0,.06a.3.3,0,0,0,.08.08l.16.1.09,0h.1l.08,0,.06-.07,0-.06a.28.28,0,0,0,0-.13Z"/><path class="cls-12" d="M15.09,54.48a.13.13,0,0,0-.06-.07l-.08,0h-.06a.28.28,0,0,0-.13,0l0,0a.41.41,0,0,0-.07.11l-.07.18a.28.28,0,0,0,0,.09s0,.07,0,.09l.06.07s.05,0,.08,0h.07l.12,0L15,55a.21.21,0,0,0,.06-.1c0-.06.05-.12.08-.19a.14.14,0,0,0,0-.09A.16.16,0,0,0,15.09,54.48Z"/><path class="cls-12" d="M14.94,52.73a.24.24,0,0,0,0,.48A.24.24,0,0,0,14.94,52.73Z"/><path class="cls-12" d="M16.27,51.8l0,0a.18.18,0,0,0-.07-.05l-.1,0-.09,0-.08.05,0,0a.28.28,0,0,0,0,.12V52a.39.39,0,0,0,.06.11l0,0a.14.14,0,0,0,.08,0,.21.21,0,0,0,.18,0,.14.14,0,0,0,.08,0l0,0a.28.28,0,0,0,0-.13V51.9A.21.21,0,0,0,16.27,51.8Z"/><path class="cls-12" d="M12.76,54.06,12.68,54l-.06,0a.28.28,0,0,0-.13,0l-.2,0-.08,0a.23.23,0,0,0-.07.07.29.29,0,0,0,0,.09.17.17,0,0,0,0,.1l0,.05a.26.26,0,0,0,.09.09l.06,0h.12l.21-.05a.12.12,0,0,0,.08,0,.13.13,0,0,0,.06-.07.11.11,0,0,0,0-.08.17.17,0,0,0,0-.1Z"/><path class="cls-12" d="M18,54.12l-.05,0-.12,0h-.06a.24.24,0,0,0-.11.06l-.05.06h0l0,.07v0a.17.17,0,0,1,0,.07v0s0,.05,0,.07v0a.22.22,0,0,0,.05.08.12.12,0,0,0,.06.06l.09,0a.16.16,0,0,0,.1,0l.06,0a.24.24,0,0,0,.08-.09l0,0v-.07h0a.21.21,0,0,0,0-.18A.22.22,0,0,0,18,54.12Zm0,.31,0,0,0-.05Z"/><path class="cls-12" d="M19.29,52.91l-.2-.21L19,52.65l-.09,0-.09,0-.08.05,0,0a.27.27,0,0,0,0,.12v.06a.24.24,0,0,0,.06.11l.2.21.08,0,.09,0,.1,0a.18.18,0,0,0,.07,0l0,0a.27.27,0,0,0,0-.12V53A.21.21,0,0,0,19.29,52.91Z"/><path class="cls-12" d="M19.85,52.58a.3.3,0,0,0,.08.08l.16.08.09,0h.09a.15.15,0,0,0,.09,0l.06-.07,0,0a.28.28,0,0,0,0-.13l0-.06a.24.24,0,0,0-.09-.08l-.16-.08a.11.11,0,0,0-.08,0H20a.12.12,0,0,0-.08,0,.13.13,0,0,0-.06.07l0,0a.28.28,0,0,0,0,.13Z"/><path class="cls-12" d="M20.6,55a.26.26,0,0,0-.09-.09l-.06,0h-.12l-.13,0-.08,0a.23.23,0,0,0-.07.07.29.29,0,0,0,0,.09.17.17,0,0,0,0,.1l0,0a.26.26,0,0,0,.09.09l.06,0a.24.24,0,0,0,.12,0l.13,0,.09,0,.06-.07,0-.09a.28.28,0,0,0,0-.09Z"/><path class="cls-12" d="M20.23,56.52l0-.05a.24.24,0,0,0-.11-.06H20a.21.21,0,0,0-.12,0l-.18.11a.13.13,0,0,0-.07.06.12.12,0,0,0,0,.08.34.34,0,0,0,0,.1.16.16,0,0,0,0,.09l0,0,.1.07h.07L20,57l.18-.1a.13.13,0,0,0,.06-.07.17.17,0,0,0,.05-.17A.16.16,0,0,0,20.23,56.52Z"/><path class="cls-12" d="M21.93,55.91l-.05,0-.12,0H21.7a.41.41,0,0,0-.11.07l0,0a.14.14,0,0,0-.05.08.21.21,0,0,0,0,.18.14.14,0,0,0,.05.08l0,0,.12,0h.07a.21.21,0,0,0,.1-.06l0,0a.18.18,0,0,0,.05-.07.3.3,0,0,0,0-.1A.29.29,0,0,0,22,56,.18.18,0,0,0,21.93,55.91Z"/><path class="cls-12" d="M28.27,56.63a.21.21,0,0,0,.1.06.43.43,0,0,0,.16,0l.11,0,.1,0a.13.13,0,0,0,.07-.06.2.2,0,0,0,0-.08.34.34,0,0,0,0-.1.32.32,0,0,0,0-.09l0,0a.21.21,0,0,0-.11-.07h-.06l-.08,0H28.4a.11.11,0,0,0-.08,0l-.07.06s0,0,0,.08v.07a.27.27,0,0,0,0,.12Z"/><path class="cls-12" d="M29.61,54.15l.13.16a.14.14,0,0,0,.08,0,.21.21,0,0,0,.18,0,.14.14,0,0,0,.08,0l0-.05a.21.21,0,0,0,0-.12v-.06a.24.24,0,0,0-.06-.11L30,53.82a.14.14,0,0,0-.08,0,.21.21,0,0,0-.18,0,.14.14,0,0,0-.08,0l0,0a.27.27,0,0,0,0,.12v.07A.21.21,0,0,0,29.61,54.15Z"/><path class="cls-12" d="M30.07,55.19a.17.17,0,0,0-.05.17.14.14,0,0,0,0,.09l0,0a.24.24,0,0,0,.11.06h.06a.21.21,0,0,0,.12,0l.16-.1a.23.23,0,0,0,.07-.07.12.12,0,0,0,0-.08.28.28,0,0,0,0-.09.16.16,0,0,0,0-.09l0,0a.21.21,0,0,0-.1-.06h-.07a.27.27,0,0,0-.12,0l-.16.1A.13.13,0,0,0,30.07,55.19Z"/><path class="cls-12" d="M30.34,57.1a.22.22,0,0,0,.05-.08s0-.05,0-.09a.15.15,0,0,0,0-.09.22.22,0,0,0-.05-.08l-.05,0a.16.16,0,0,0-.12,0h-.06a.24.24,0,0,0-.11.06l-.13.13a.35.35,0,0,0-.05.08.29.29,0,0,0,0,.09.3.3,0,0,0,0,.1.18.18,0,0,0,.05.07l.05,0,.12,0h.06a.24.24,0,0,0,.11-.06Z"/><path class="cls-12" d="M32.64,54.69a.24.24,0,0,0-.08-.09l-.06,0h-.13l-.08,0-.08,0s0,0-.06.06a.16.16,0,0,0,0,.09.17.17,0,0,0,0,.1l0,.06a.24.24,0,0,0,.09.08l0,0h.13l.08,0a.2.2,0,0,0,.08,0,.13.13,0,0,0,.06-.07.16.16,0,0,0,0-.09.17.17,0,0,0,0-.1Z"/><path class="cls-12" d="M32.11,53l.28.08h.1l.09,0,.07-.06a.36.36,0,0,0,0-.09.23.23,0,0,0,0-.18.26.26,0,0,0-.14-.11l-.29-.08h-.09a.32.32,0,0,0-.09,0l-.07.06a.25.25,0,0,0,0,.09.22.22,0,0,0,0,.18A.28.28,0,0,0,32.11,53Z"/><path class="cls-12" d="M34.55,53.58l.05,0a.19.19,0,0,0,.12,0h.07a.21.21,0,0,0,.1-.06l0,0a.22.22,0,0,0,0-.08.24.24,0,0,0,0-.09.29.29,0,0,0,0-.09.22.22,0,0,0,0-.08l-.05,0a.19.19,0,0,0-.12,0h-.07a.21.21,0,0,0-.1.06l0,0a.22.22,0,0,0,0,.08.24.24,0,0,0,0,.09.29.29,0,0,0,0,.09A.22.22,0,0,0,34.55,53.58Z"/><path class="cls-12" d="M34.29,55a.21.21,0,0,0,.1.06l.11,0a.14.14,0,0,0,.09,0,.12.12,0,0,0,.09,0,.13.13,0,0,0,.07-.06.12.12,0,0,0,0-.08v-.07a.27.27,0,0,0,0-.12l0,0-.1-.07-.11,0h-.09a.12.12,0,0,0-.09,0l-.07.06s0,0,0,.08v.07a.27.27,0,0,0,0,.12Z"/><path class="cls-12" d="M34.83,56.8h-.06l-.09,0s0,0-.07.06a.2.2,0,0,0,0,.08.31.31,0,0,0,0,.19l0,.05a.24.24,0,0,0,.11.06H35a.58.58,0,0,0,.22-.08.09.09,0,0,0,.06-.06.14.14,0,0,0,.05-.08.17.17,0,0,0,0-.1.11.11,0,0,0,0-.08.19.19,0,0,0-.14-.11h-.06l-.11,0-.09,0Z"/><path class="cls-12" d="M36.65,55.84a.12.12,0,0,0,0,.08.13.13,0,0,0,.07.06.11.11,0,0,0,.08,0,.17.17,0,0,0,.1,0L37,56a.3.3,0,0,0,.08-.08l0-.06a.29.29,0,0,0,0-.13L37,55.5s0,0,0-.08a.22.22,0,0,0-.07-.06.11.11,0,0,0-.08,0,.16.16,0,0,0-.1,0l-.06,0a.24.24,0,0,0-.08.09l0,0a.28.28,0,0,0,0,.13Z"/><path class="cls-12" d="M44.2,56.34a.21.21,0,0,0-.1-.06l-.08,0h-.1a.16.16,0,0,0-.09,0,.13.13,0,0,0-.07.06.2.2,0,0,0,0,.08v.07a.19.19,0,0,0,0,.12l0,0a.41.41,0,0,0,.11.07l.08,0h.09a.14.14,0,0,0,.09,0l.07-.06a.3.3,0,0,0,0-.08v-.07a.27.27,0,0,0,0-.12Z"/><path class="cls-12" d="M46.08,56.11A.37.37,0,0,0,46,56L46,55.93a.15.15,0,0,0-.09,0,.14.14,0,0,0-.09,0l-.09,0a.22.22,0,0,0-.11.14.31.31,0,0,0,0,.19h0a.09.09,0,0,1,0,0v.06h0s0,0,0,0a.16.16,0,0,0,0,.09.13.13,0,0,0,.06.07.2.2,0,0,0,.08,0h.06a.21.21,0,0,0,.12,0l0,0a.24.24,0,0,0,.06-.11.51.51,0,0,0,0-.13s0-.08,0-.13A.25.25,0,0,0,46.08,56.11Z"/><path class="cls-12" d="M46,57.07l0,0a.26.26,0,0,0-.11-.07h-.06a.27.27,0,0,0-.12,0l-.21.11a.13.13,0,0,0-.07.06.2.2,0,0,0,0,.08.28.28,0,0,0,0,.09l0,.09,0,0a.24.24,0,0,0,.11.06h.06a.27.27,0,0,0,.12,0l.21-.11a.13.13,0,0,0,.07-.06.2.2,0,0,0,0-.08.17.17,0,0,0,0-.1A.29.29,0,0,0,46,57.07Z"/><path class="cls-12" d="M48.47,54.74a.24.24,0,0,0-.08-.09l-.06,0a.28.28,0,0,0-.13,0l-.23.08a.2.2,0,0,0-.08,0l-.07.07a.24.24,0,0,0,0,.09.14.14,0,0,0,0,.09l0,.06.09.09.06,0h.12l.24-.08a.2.2,0,0,0,.08,0,.13.13,0,0,0,.06-.07.16.16,0,0,0,0-.09.17.17,0,0,0,0-.1Z"/><path class="cls-12" d="M46.52,53.71h-.07l-.12,0-.55.26a.22.22,0,0,0-.11.14.25.25,0,0,0,0,.19.26.26,0,0,0,.14.11h.07a.27.27,0,0,0,.12,0l.55-.26a.22.22,0,0,0,.11-.14.22.22,0,0,0,0-.18A.19.19,0,0,0,46.52,53.71Z"/><path class="cls-12" d="M48.11,54a.24.24,0,0,0,0-.48A.24.24,0,0,0,48.11,54Z"/><path class="cls-12" d="M50.63,55a.27.27,0,0,0,0-.12.86.86,0,0,0-.08-.44s0,0-.07-.06l-.08-.05h-.09l-.09,0a.22.22,0,0,0-.11.14v.07a.29.29,0,0,0,0,.09.45.45,0,0,1,0,.11.41.41,0,0,1,0,.11.29.29,0,0,0,0,.09.22.22,0,0,0,0,.08l.08.05.09,0a.22.22,0,0,0,.17-.07Z"/><path class="cls-12" d="M49.18,56.1A.3.3,0,0,0,49.1,56L49,56a.28.28,0,0,0-.13,0l-.13.06a.12.12,0,0,0-.08,0,.13.13,0,0,0-.06.07.12.12,0,0,0,0,.09.14.14,0,0,0,0,.09l0,.06a.3.3,0,0,0,.08.08l.06,0a.29.29,0,0,0,.13,0l.13,0,.08-.05a.12.12,0,0,0,.06-.06.16.16,0,0,0,0-.09.17.17,0,0,0,0-.1Z"/><path class="cls-12" d="M51.09,57.16l0,0a.28.28,0,0,0-.13,0h-.06a.21.21,0,0,0-.1.06l-.16.13a.35.35,0,0,0-.05.08.15.15,0,0,0,0,.09.16.16,0,0,0,0,.1l.05.07,0,0a.21.21,0,0,0,.12,0h.06a.24.24,0,0,0,.11-.06l.15-.13a.14.14,0,0,0,0-.08.21.21,0,0,0,0-.18A.14.14,0,0,0,51.09,57.16Z"/><path class="cls-12" d="M51.39,56.07a.26.26,0,0,0-.14-.11h-.07l-.1,0L50.9,56h-.06a.23.23,0,0,0-.17.07.18.18,0,0,0-.05.07.3.3,0,0,0,0,.1.36.36,0,0,0,.07.17.28.28,0,0,0,.17.07l.24,0a.7.7,0,0,0,.23-.08.12.12,0,0,0,.06-.06.22.22,0,0,0,.05-.08.17.17,0,0,0,0-.1A.16.16,0,0,0,51.39,56.07Z"/><path class="cls-12" d="M59.92,56.29s0,0,0-.07a0,0,0,0,0,0,0l0-.06h0v0A.13.13,0,0,0,59.8,56a.2.2,0,0,0-.08,0,.17.17,0,0,0-.1,0,.16.16,0,0,0-.09,0l-.05,0a.39.39,0,0,0-.06.11v.06a.23.23,0,0,0,0,.11v.06a.11.11,0,0,0,0,.08l.06.07s0,0,.08,0h.07l.12,0,.05,0a.21.21,0,0,0,.06-.1s0-.06,0-.08v0Z"/><path class="cls-12" d="M61.39,54.89a.22.22,0,0,0,0,.08s0,.05.06.07l.09,0h.1l.06,0a.34.34,0,0,0,.08-.09l0-.06a.28.28,0,0,0,0-.13l-.06-.18a.12.12,0,0,0,0-.08.13.13,0,0,0-.07-.06.12.12,0,0,0-.09,0h-.09l-.06,0-.08.08,0,.06a.29.29,0,0,0,0,.13Z"/><path class="cls-12" d="M62,55.78a.24.24,0,0,0-.09-.08l0,0a.28.28,0,0,0-.13,0l-.07,0-.11,0-.08.06-.08.06a.22.22,0,0,0-.05.08.21.21,0,0,0,0,.18.22.22,0,0,0,.05.08l0,0a.27.27,0,0,0,.12,0h.06a.24.24,0,0,0,.11-.06l0,0,.08,0,0,0s0,0,.08,0A.22.22,0,0,0,62,56a.11.11,0,0,0,0-.08.31.31,0,0,0,0-.1Z"/><path class="cls-12" d="M61.88,57a.24.24,0,0,0-.08-.09l-.06,0h-.13l-.11,0-.06,0-.09.08-.05,0a.22.22,0,0,0,0,.08.15.15,0,0,0,0,.09s0,.07,0,.09a.22.22,0,0,0,0,.08l.05,0a.24.24,0,0,0,.12,0h.06a.24.24,0,0,0,.11-.06l0,0,.07,0h0l.08,0a.13.13,0,0,0,.06-.07.16.16,0,0,0,0-.09.14.14,0,0,0,0-.09Z"/><path class="cls-12" d="M63.89,55.77a.24.24,0,0,0,0,.48A.24.24,0,0,0,63.89,55.77Z"/><path class="cls-12" d="M64.46,53.84l-.06,0a.29.29,0,0,0-.13,0h-.19l-.07,0a.26.26,0,0,0-.19,0,.2.2,0,0,0-.11.14.23.23,0,0,0,0,.18.19.19,0,0,0,.14.11,1,1,0,0,0,.52,0,.24.24,0,0,0,.14-.1.32.32,0,0,0,0-.19A.26.26,0,0,0,64.46,53.84Z"/><path class="cls-12" d="M66.34,54.42l-.07-.06,0,0a.15.15,0,0,0-.13,0l-.06,0a.24.24,0,0,0-.08.09l0,0a.16.16,0,0,0,0,.09.14.14,0,0,0,0,.09.22.22,0,0,0,0,.08s0,.05.06.07l.06,0h.13l.06,0a.34.34,0,0,0,.08-.09l0-.05a.16.16,0,0,0,0-.09.38.38,0,0,0,0-.1S66.36,54.45,66.34,54.42Z"/><path class="cls-12" d="M65.77,55.43a.27.27,0,0,0-.12,0l-.29,0-.09,0-.08,0a.22.22,0,0,0,0,.08.29.29,0,0,0,0,.09.22.22,0,0,0,.07.17l0,0,.12,0,.29,0,.09,0,.08,0a.22.22,0,0,0,.05-.08.29.29,0,0,0,0-.09.22.22,0,0,0-.07-.17Z"/><path class="cls-12" d="M67.19,56.45a.28.28,0,0,0-.17-.07H67a.21.21,0,0,0-.1.06.57.57,0,0,0-.15.16l0,.07a.84.84,0,0,0-.06.14.14.14,0,0,0,0,.09.29.29,0,0,0,0,.09.23.23,0,0,0,.07.07.2.2,0,0,0,.08,0h.06l.12,0,0,0a.21.21,0,0,0,.06-.1.41.41,0,0,1,0-.09l.08-.07a.35.35,0,0,0,0-.08.29.29,0,0,0,0-.09.2.2,0,0,0,0-.09A.22.22,0,0,0,67.19,56.45Z"/></g></g></svg>