<svg xmlns="http://www.w3.org/2000/svg" viewBox="0 0 922.73 922.73"><defs><style>.cls-1{fill:none;}.cls-2{fill:#bf335e;}.cls-3{fill:#74b4cb;}.cls-4{fill:#dbaea5;}</style></defs><g id="Capa_2" data-name="Capa 2"><g id="Capa_2-2" data-name="Capa 2"><path class="cls-1" d="M168.41,0h585.9A168.41,168.41,0,0,1,922.73,168.41V754.32A168.41,168.41,0,0,1,754.32,922.73H168.42A168.42,168.42,0,0,1,0,754.32V168.41A168.41,168.41,0,0,1,168.41,0Z"/><path class="cls-2" d="M502.16,150.36H607.77c10.3,90.29,62.38,137.83,150.56,150.27V404.36c-53.58,2.41-100.87-15.32-147.28-45-.66,7.45-1.56,12.84-1.57,18.24-.09,66,.21,132-.12,198-.55,111.32-80.29,192.63-195.89,200.21-92.39,6.06-185-74.42-199.52-173.42-17.37-118.26,82.53-228.7,201.76-222.91,6.47.31,12.9,1.61,20.35,2.58V487.16c-5.65,0-11.24.26-16.81,0-53.87-2.89-96.93,34.45-98.86,85.85-1.85,49,36.76,91.47,84.85,93.29,54.4,2.06,96.33-36.06,96.62-90.41.69-132,.27-263.94.3-395.91Z"/><path class="cls-3" d="M476.57,125.85H582.19c10.29,90.3,62.37,137.83,150.56,150.27V379.85c-53.58,2.41-100.88-15.31-147.28-45-.67,7.45-1.56,12.85-1.57,18.24-.1,66,.2,132-.12,198-.55,111.31-80.3,192.63-195.89,200.21-92.39,6-185-74.42-199.52-173.42C171,459.56,270.9,349.13,390.13,354.92c6.47.31,12.89,1.6,20.35,2.57V462.66c-5.65,0-11.25.26-16.81,0-53.87-2.9-96.93,34.44-98.87,85.84-1.84,49,36.77,91.47,84.85,93.3,54.4,2.06,96.34-36.06,96.62-90.42.7-132,.27-263.94.3-395.91Z"/><path class="cls-4" d="M642.83,242.37c-28.43-21-47.46-51.4-56.45-92H502.16v29.58c0,132,.39,263.94-.3,395.91-.29,54.35-42.22,92.47-96.62,90.41-28.06-1.06-52.82-16-68.27-38a91,91,0,0,1-42.17-79.83c1.94-51.4,45-88.74,98.87-85.84,5.56.3,11.16,0,16.81,0V379.32C293.59,377,196.84,485.8,214,602.33c5.86,39.89,24.4,76.76,50.49,106.19C300,737.43,344,754.13,387.89,751.25c115.59-7.58,195.34-88.9,195.89-200.21.32-66,0-132,.12-198,0-5.39.9-10.79,1.57-18.24,46.4,29.7,93.7,47.42,147.28,45V276.12C696.51,271,666.48,259.86,642.83,242.37Z"/></g></g></svg>