<svg xmlns="http://www.w3.org/2000/svg" viewBox="0 0 921.68 921.68"><defs><style>.cls-1{fill:none;}.cls-2{fill:#dbaea5;stroke:#562b00;stroke-miterlimit:10;stroke-width:4px;}</style></defs><g id="Capa_2" data-name="Capa 2"><g id="Capa_2-2" data-name="Capa 2"><rect class="cls-1" width="921.68" height="921.68" rx="168.22"/><path class="cls-2" d="M355.9,729.47c261.71,0,404.83-216.83,404.83-404.84,0-6.16-.12-12.3-.41-18.39a289.15,289.15,0,0,0,71-73.68A284.73,284.73,0,0,1,749.6,255a142.88,142.88,0,0,0,62.56-78.71,284.76,284.76,0,0,1-90.34,34.53A142.41,142.41,0,0,0,479.34,340.55C361.09,334.61,256.24,278,186.07,191.9a142.34,142.34,0,0,0,44.05,189.93A141.06,141.06,0,0,1,165.67,364c0,.6,0,1.21,0,1.83a142.38,142.38,0,0,0,114.17,139.5,142.5,142.5,0,0,1-64.27,2.43,142.47,142.47,0,0,0,132.92,98.83,285.51,285.51,0,0,1-176.72,60.9,290.3,290.3,0,0,1-33.93-2A402.88,402.88,0,0,0,355.9,729.47"/></g></g></svg>