<svg xmlns="http://www.w3.org/2000/svg" viewBox="0 0 922.73 922.73"><defs><style>.cls-1{fill:none;}.cls-2{fill:#dbaea5;stroke:#522d13;stroke-miterlimit:10;stroke-width:4px;fill-rule:evenodd;}</style></defs><g id="Capa_2" data-name="Capa 2"><g id="Capa_2-2" data-name="Capa 2"><path class="cls-1" d="M168.41,0h585.9A168.41,168.41,0,0,1,922.73,168.41V754.32A168.41,168.41,0,0,1,754.32,922.73H168.42A168.42,168.42,0,0,1,0,754.32V168.41A168.41,168.41,0,0,1,168.41,0Z"/><path class="cls-2" d="M700.5,220.88c-63.45-63.5-147.82-98.47-237.74-98.51-185.22,0-336,150.69-336.06,335.92a335.37,335.37,0,0,0,44.86,168L123.89,800.37,302,753.63a335.92,335.92,0,0,0,160.6,40.91h.15c185.21,0,336-150.72,336.05-336A333.91,333.91,0,0,0,700.5,220.88M462.79,737.79h-.13A278.84,278.84,0,0,1,320.5,698.88l-10.2-6.07L204.57,720.55l28.22-103.06-6.63-10.55a278.57,278.57,0,0,1-42.72-148.62c.07-154,125.37-279.21,279.45-279.21A279.33,279.33,0,0,1,742.11,458.55c-.07,154-125.37,279.24-279.32,279.24"/><path class="cls-2" d="M616,528.66c-8.4-4.21-49.67-24.5-57.36-27.32s-13.3-4.2-18.9,4.22-21.7,27.31-26.6,32.91-9.8,6.3-18.19,2.09-35.45-13.06-67.53-41.65c-25-22.27-41.81-49.76-46.7-58.18s-.54-12.93,3.67-17.12c3.77-3.75,8.4-9.8,12.6-14.72s5.6-8.39,8.4-14,1.39-10.51-.71-14.72-18.88-45.5-25.89-62.32c-6.81-16.38-13.73-14.16-18.88-14.41-4.9-.24-10.51-.29-16.1-.29s-14.7,2.1-22.4,10.51S292,342.39,292,383.69s30.09,81.24,34.3,86.84,59.21,90.41,143.44,126.75A480.34,480.34,0,0,0,517.62,615c20.11,6.39,38.42,5.47,52.89,3.32,16.13-2.41,49.69-20.32,56.68-39.93s7-36.4,4.9-39.9-7.69-5.6-16.1-9.81"/></g></g></svg>